<?xml version="1.0" encoding="utf-8"?>
<!-- Generator: Adobe Illustrator 20.1.0, SVG Export Plug-In . SVG Version: 6.00 Build 0)  -->
<svg version="1.1" id="Слой_1" xmlns="http://www.w3.org/2000/svg" xmlns:xlink="http://www.w3.org/1999/xlink" x="0px" y="0px"
	 viewBox="0 0 100 100" style="enable-background:new 0 0 100 100;" xml:space="preserve">
<style type="text/css">
	.st0{fill:#FFFFFF;}
</style>
<path class="st0" d="M49.6,0C22.1,0.1-0.1,22.6,0,50.1c0.1,27.5,22.6,49.7,50.1,49.6c27.5-0.1,49.7-22.6,49.6-50.1
	C99.6,22.1,77.1-0.1,49.6,0z M50.1,98.9C50.1,98.9,50.1,98.9,50.1,98.9L50.1,98.9C50.1,98.9,50.1,98.9,50.1,98.9
	C30.3,99,12.3,87.1,4.6,68.8C-3,50.5,1.1,29.4,15,15.4C29,1.3,50-3,68.4,4.5C86.8,12,98.8,29.8,98.9,49.6
	C99,76.7,77.2,98.7,50.1,98.9z"/>
<path class="st0" d="M6.6,48.9c-0.4-0.1-0.7-0.5-0.8-0.9c-0.1-0.4,0.2-0.9,0.6-1.1c0.4-0.2,0.9-0.2,1.2,0.1c0.3,0.3,0.5,0.7,0.4,1.2
	c-0.1,0.3-0.3,0.5-0.5,0.7C7.1,48.9,6.8,48.9,6.6,48.9L6.6,48.9z M48.7,93c0-0.4,0.2-0.9,0.6-1.1c0.4-0.2,0.9-0.2,1.2,0.1
	c0.3,0.3,0.5,0.7,0.4,1.2c-0.2,0.6-0.8,0.9-1.3,0.7C49,93.8,48.7,93.4,48.7,93L48.7,93z M53.8,7.8c0-0.4,0.2-0.9,0.6-1.1
	s0.9-0.2,1.2,0.1S56.1,7.6,56,8c-0.2,0.6-0.8,0.9-1.3,0.7C54.2,8.6,53.9,8.3,53.8,7.8z M78.6,20c-0.1-0.4,0.2-0.9,0.6-1.1
	c0.4-0.2,0.9-0.2,1.2,0.1c0.3,0.3,0.5,0.7,0.4,1.2c-0.2,0.6-0.8,0.9-1.3,0.7C79,20.8,78.7,20.4,78.6,20L78.6,20z M16.8,36.2
	c-5.5,13.3-2.5,28.7,7.7,38.9s25.6,13.3,38.9,7.7s22.1-18.6,22.1-33c0-19.7-16-35.7-35.7-35.7C35.4,14.1,22.4,22.8,16.8,36.2
	L16.8,36.2z M47.2,25.5l0.2,0h2.5c4.9,0,6.9,0.9,9.2,2.6c3.3,2.6,3.9,6.4,3.9,8.3c0,2.5-0.9,5-2.5,6.9c-2,2.5-4.9,4.1-8.1,4.4
	c-2.1,0.3-4.3,0.3-6.4,0.1v-2.4c0.7,0.1,1.5,0.1,2.2,0.1c2.5,0,5-1.2,6.5-3.2c1.2-1.4,1.8-3.2,1.9-5h-8.4V35h8.3
	c-0.2-1.5-0.8-2.9-1.8-4c-1.9-2.4-4.6-2.8-6.4-2.8l-12,0L35,25.5L47.2,25.5L47.2,25.5z M37.1,70.5V30.3h6.5v40.2h4.6V54.7h6v15.7
	h5.2v-7.1c0-4.3-0.2-10.3-5.1-13.5l2.8-1C63,50.9,66,56.6,66,64.1v6.3l1.5,2.9H35.6C35.6,73.3,37.1,70.5,37.1,70.5z M48.4,9.6
	c0,0.3,0.1,1-0.2,1.2c-0.4,0.3-1.3,0.1-1.8,0.2c-0.5,0.1-1.1,0.2-1.6,0.1c-0.5-0.1-0.2-0.2-0.1-0.3c0.2-0.2,0.3,0,0.3-0.5
	c0-1-0.1-2.1-0.2-3.1l-0.1-1.1c0-0.3,0-0.9-0.2-1.1c-0.1-0.1-1.1-0.1-0.4-0.4c0.4-0.1,0.8-0.1,1.2-0.1c0.1,0,0.9-0.2,0.9,0.1
	c0,0.2-0.2,0.1-0.3,0.2c-0.2,0-0.3,0.2-0.3,0.4c-0.1,0.7,0.1,1.6,0.2,2.3c0.1,0.6,0.1,1.2,0.2,1.7c0.1,0.5,0,1.2,0.6,1.3
	c0.4,0.1,1.3,0.1,1.6-0.3C48.1,10,48.4,9,48.4,9.6L48.4,9.6z M39.7,8.5c0.3,0.9,0.2,1.8-0.2,2.7c-0.4,0.8-1.2,1.4-2.1,1.7
	c-0.9,0.3-1.8,0.2-2.6-0.3c-0.8-0.4-1.4-1.2-1.6-2.1c-0.2-0.9-0.1-1.8,0.3-2.6s1.2-1.4,2-1.6c0.8-0.3,1.8-0.2,2.5,0.2
	C38.8,6.9,39.4,7.6,39.7,8.5L39.7,8.5z M38.8,9c-0.4-1.4-1.6-2.6-3.2-2.2c-1.8,0.5-2,2.3-1.3,3.8c0.6,1.3,1.9,2.2,3.3,1.7
	C38.9,11.7,39.1,10.3,38.8,9z M29,12.5c0.6,0.8,0.7,1.9,0.5,2.8c-0.3,1-0.9,1.8-1.8,2.2c-1.5,0.8-3.4,0.2-4.3-1.2
	c-0.5-0.8-0.7-1.7-0.5-2.6c0.2-0.9,0.7-1.6,1.5-2.1C25.9,10.6,27.9,10.8,29,12.5L29,12.5z M28.3,13.2c-0.8-1.2-2.3-2.1-3.7-1.2
	c-1.5,1-1.2,2.8-0.2,4c0.9,1,2.3,1.5,3.5,0.7C29.2,15.9,29,14.3,28.3,13.2z M22.2,21.5c0.2,0.2-1.2,1.6-1.4,1.7
	c-0.4,0.1,0-0.4,0-0.4c0-0.1-0.1-0.3-0.2-0.4c-0.6-0.7-1.2-1.3-1.9-1.8l-2.4,2.6c0.5,0.5,1,1,1.6,1.4c0.2,0.2,0.4,0.4,0.7,0.5
	c0.2,0,0.5-0.5,0.7-0.3c0.2,0.2-0.9,1.2-1.1,1.4c-0.1,0.1-0.5,0.6-0.5,0.2l0.2-0.3c0-0.2-0.1-0.4-0.3-0.5c-0.4-0.4-0.9-0.8-1.3-1.2
	l-1.5-1.3c-0.2-0.2-0.7-0.9-1.1-0.9c-0.2,0-0.5,0.4-0.6,0.3c-0.2-0.2,0.5-0.7,0.6-0.8c0.2-0.3,0.4-0.5,0.6-0.7
	c0.5-0.3,0.2,0.1,0.1,0.4c-0.1,0.5,1.2,1.4,1.6,1.7l2.4-2.6c-0.3-0.3-1.3-1.5-1.7-1.5c-0.2,0-0.5,0.5-0.6,0.2
	c-0.1-0.3,0.6-0.7,0.7-0.9c0.1-0.1,0.6-0.8,0.8-0.7c0.2,0.1-0.1,0.3-0.1,0.4c0,0.2,0,0.4,0.2,0.5c0.6,0.6,1.3,1.2,2,1.8
	c0.5,0.6,1.1,1.1,1.7,1.5C21.8,22,21.9,21.3,22.2,21.5L22.2,21.5z M14.4,29.2c0.4,0.2,1,0.6,1,1c-0.1,0.5-0.2,1-0.5,1.5
	c-0.4,0.8-0.9,1.4-1.6,1.9c-1.3,0.7-2.9,0.5-4-0.5c-1.2-1-1.3-2.6-0.7-4c0.3-0.6,0.7-1.2,1.1-1.7c0.3-0.5,0.4-0.4,0.9-0.1
	c0.3,0.1,0.6,0.3,0.9,0.5c0.2,0.4-0.3,0.2-0.5,0.1c-0.4-0.1-0.8,0-1.1,0.3c-0.6,0.5-0.9,1.2-1.1,2c-0.3,1.5,1.3,2.7,2.7,2.8
	c1.5,0.1,2.8-0.8,3.2-2.2c0.2-0.4,0-0.9-0.3-1.2C14.3,29.4,14,28.9,14.4,29.2L14.4,29.2z M10.3,38.2c1.5,0.4,1.6,2.2,0.8,3.3
	c-0.3,0.5-1,0.3-1.4,0c-0.2-0.2-0.3-0.2,0-0.3l0.4,0c0.4-0.1,0.8-0.4,0.9-0.9c0.1-0.3,0.1-0.6-0.1-0.8c-0.1-0.3-0.4-0.4-0.6-0.5
	c-0.5-0.1-1,0-1.4,0.4c-0.8,0.5-1.7,1.3-2.7,1c-1.3-0.4-1.3-1.8-0.8-2.8c0.2-0.5,0.2-0.6,0.8-0.4c0.3,0.1,1,0.3,0.4,0.5
	c-0.3,0.1-0.4-0.1-0.7,0.2c-0.8,0.7-0.3,2.2,0.8,1.8C8,39.2,8.7,37.8,10.3,38.2L10.3,38.2z M10.5,57c0-0.3,0.2-0.1,0.3,0
	c0.1,0.2,0.1,0.4,0.1,0.6c0,0.3,0.1,0.7,0.2,1c0,0.1,0.1,0.4-0.1,0.4c-0.2,0-0.1-0.3-0.2-0.3c-0.1-0.1-0.3-0.2-0.5-0.1
	C9.1,58.6,8.1,58.8,7,59c-0.4,0.1-1.8,0-2.1,0.4C4.9,59.5,5,60,4.8,60c-0.2,0-0.2-0.3-0.2-0.5c-0.1-0.5-0.1-0.9-0.2-1.4
	c-0.2-0.6-0.1-1.3,0.2-1.9c0.5-0.7,1.4-0.9,2.2-0.6c0.2,0.1,0.9,0.6,1,0.5C8,56,8.2,55.8,8.4,55.5c0.2-0.3,0.5-0.5,0.7-0.8
	c0.4-0.4,0.7-0.9,0.8-1.5c0-0.3,0.1-0.8,0.3-0.2c0.2,0.5,0.2,1,0,1.5c-0.3,0.5-0.6,1-1.1,1.3c-0.4,0.3-0.7,0.6-1,1
	c-0.2,0.3,0,0.8,0.1,1.1c0.7,0,1.3-0.1,2-0.3C10.6,57.5,10.5,57.3,10.5,57L10.5,57z M6.2,56.3c-0.7,0-1.3,0.5-1.4,1.2
	c0,0.1,0,0.8,0.1,0.9c0.1,0,0.2,0,0.4,0l1.3-0.2c0.4-0.1,0.9,0,1.1-0.3c0.1-0.4,0-0.8-0.2-1.1C7.2,56.3,6.6,56.3,6.2,56.3L6.2,56.3z
	 M11.2,63.3c0.3-0.1,0.6-0.2,0.9-0.2c0.4,0.1,0.5,0.5,0.6,0.8c0.2,0.4,0.3,0.9,0.5,1.3c0.2,0.3,0.3,0.6,0.4,1c0.1,0.6-0.2,0.1-0.3,0
	c-0.1-0.1-0.2-0.1-0.4-0.1c-0.6,0.1-1.2,0.4-1.8,0.7l-2,0.8c-0.3,0.1-1,0.3-1.2,0.6c-0.1,0.2,0.3,0.9-0.2,0.7
	c-0.2-0.1-0.3-0.8-0.4-0.9C7,67.3,6.8,66.6,6.5,66c-0.1-0.3-0.4-0.4-0.1-0.6c0.3-0.1,0.6-0.2,0.9-0.2c0.4,0.1,0.1,0.2,0,0.3
	c-0.1,0.2-0.3,0.2-0.2,0.6c0.1,0.4,0.2,0.8,0.4,1.1l2.1-0.9l-0.3-0.7c-0.1-0.2-0.1-0.3-0.2-0.5C9,65,8.8,64.9,8.7,64.8
	c0-0.3,0.7-0.3,0.9-0.4c0.2,0,0.5-0.2,0.5,0c0,0.2-0.3,0.2-0.4,0.3c-0.2,0.4,0.2,1.1,0.4,1.5l1.5-0.6c0.4-0.2,0.9-0.3,0.8-0.8
	c-0.1-0.3-0.2-0.6-0.4-0.9c-0.1-0.2-0.2-0.3-0.4-0.3c-0.1,0-0.5,0.1-0.6,0C11,63.4,11,63.3,11.2,63.3L11.2,63.3z M15.3,70.2
	c0.2-0.1,1.7,1.8,1.3,1.9c-0.1,0-0.2-0.1-0.3-0.2c-0.1,0-0.3,0-0.4,0.1c-0.6,0.3-1.1,0.7-1.6,1.1c-0.6,0.4-0.6,0.3-0.2,0.9l1.3,1.8
	c0.1,0.2,0.2,0.3,0.4,0.5c0.2-0.1,0.4-0.2,0.6-0.4c0.5-0.3,1-0.7,1.5-1.2c0.1-0.1,0.2-0.2,0.2-0.3c0-0.2-0.3-0.4-0.3-0.6
	c0.1-0.5,0.8,0.7,0.9,0.9c0,0.1,0.7,0.7,0.4,0.9c-0.2,0.1-0.2-0.2-0.4-0.2c-0.5-0.1-1.3,0.7-1.7,1l-1.4,1l-1.1,0.8
	c-0.2,0.1-0.5,0.3-0.6,0.5c0,0.2,0.3,0.6,0.2,0.7c-0.2,0.1-0.3-0.1-0.3-0.2c-0.2-0.2-0.4-0.5-0.5-0.7c-0.2-0.2-0.3-0.4-0.5-0.6
	c-0.1-0.4,0-0.3,0.3-0.2c0.2,0.1,0.5,0.1,0.7-0.1c0.5-0.3,1-0.7,1.4-1l-2.1-2.8c-0.4,0.3-1.7,0.9-1.8,1.4c0,0.2,0.3,0.4,0.2,0.5
	c-0.1,0.4-0.4-0.1-0.5-0.2c-0.3-0.4-0.6-0.7-0.8-1.1c-0.1-0.3-0.2-0.4,0.2-0.3c0.3,0.1,0.2,0.3,0.6,0.1c0.2-0.1,0.4-0.3,0.6-0.4
	l2.1-1.5c0.4-0.3,1.6-0.9,1.6-1.4C15.5,70.7,15.1,70.5,15.3,70.2L15.3,70.2z M20,80.8c0.2-0.1,0.4,0.2,0.6,0.1
	c0.3-0.1,0.7-0.7,0.9-0.9c0.6-0.7,0.8-1.1,1.7-0.6c2,1.1,3.3,3.5,1.7,5.5c-1.4,1.8-3.6,1.7-5.3,0.2c-0.3-0.3-1.4-1.3-1.3-1.6
	c0-0.1,1-1.1,1.1-1c0.1,0.1-0.2,0.5-0.2,0.6c-0.2,0.9,0.8,1.8,1.5,2.2c1.9,1.1,4-0.9,3.9-2.8c0-0.9-0.4-1.7-1.1-2.2
	c-0.3-0.2-0.7-0.6-1-0.3c-0.4,0.4-0.8,0.8-1.1,1.3c-0.2,0.3-0.3,0.3-0.1,0.6l0.2,0.2c0.2,0.6-0.5-0.1-0.7-0.2
	C20.7,81.6,19.8,81.1,20,80.8L20,80.8z M30.1,84.5c0.1-0.2,1.8,0.8,1.9,0.9c0.2,0.4-0.1,0.2-0.3,0.2c-0.2,0-0.3,0.1-0.4,0.2
	c-0.8,0.9-1.3,2.1-1.9,3.1c-0.2,0.4-0.9,1.2-0.7,1.7c0.1,0.1,0.7,0.5,0.2,0.5c-0.2-0.1-0.5-0.2-0.6-0.4c-0.3-0.2-1.1-0.4-1.1-0.8
	c0.1-0.2,0.2,0,0.3,0c0.2,0.1,0.4,0,0.5-0.2c0.2-0.2,0.3-0.5,0.4-0.7l1-1.7c0.3-0.6,0.7-1.1,1-1.7c0.1-0.2,0.2-0.4,0.2-0.7
	C30.5,84.8,30.1,84.8,30.1,84.5L30.1,84.5z M35.9,87.4c0-0.1,1.9,0.3,2,0.4c0.5,0.4-0.2,0.2-0.4,0.4c-0.3,0.2-0.4,1-0.5,1.3
	c-0.1,0.2-0.5,1.2-0.4,1.4c0.2,0.1,0.5,0.2,0.8,0.3l1.7,0.5c0.3,0.1,0.5,0.2,0.8,0.2c0.2-0.1,0.4-1.3,0.4-1.6c0.1-0.3,0.2-0.7,0.2-1
	c0-0.5-0.2-0.2-0.5-0.6c-0.3-0.4,0.3-0.2,0.6-0.2c0.3,0.1,0.6,0.2,0.9,0.3c0.1,0,0.8,0.1,0.7,0.4c-0.1,0.2-0.3,0-0.4,0
	c-0.1,0-0.2,0.1-0.2,0.3c-0.3,0.6-0.5,1.3-0.6,2l-0.7,2.3c-0.1,0.2-0.3,0.7-0.2,1c0.1,0.2,0.6,0.2,0.5,0.4c-0.1,0.2-1.8-0.3-2-0.4
	c-0.5-0.4,0.2-0.2,0.4-0.3c0.3-0.1,0.3-0.8,0.4-1.1c0.1-0.2,0.4-0.9,0.3-1.1c-0.1-0.2-1-0.3-1.1-0.3l-1.6-0.5
	c-0.1-0.1-0.3-0.1-0.5-0.1l-0.1,0.1c-0.2,0.2-0.6,1.8-0.5,2.1c0.1,0.2,0.5,0.1,0.5,0.3c0.1,0.3-0.3,0.2-0.4,0.2
	c-0.4-0.1-0.8-0.2-1.2-0.3c-0.1,0-0.8-0.2-0.4-0.4l0.5,0c0.2-0.2,0.3-0.5,0.3-0.7l0.7-2.4c0.1-0.5,0.8-2,0.5-2.4
	C36.3,87.5,35.9,87.6,35.9,87.4L35.9,87.4z M57.2,90.6c-0.2-0.8,0.2-1.7,0.9-2.1c0.4-0.2,1.3-0.5,1.8-0.3c0.3,0.1,0.6,1.4,0.3,1.5
	c-0.2,0-0.1-0.1-0.2-0.2c-0.2-0.2-0.2-0.5-0.5-0.6c-0.3-0.1-0.6-0.2-0.9-0.1c-1.3,0.4-0.9,1.7,0,2.2c0.9,0.5,2.1,0.8,2.4,2
	c0.3,1.2-0.8,1.9-1.8,2.1c-0.2,0.1-0.5,0.1-0.7,0.1c-0.2-0.1-0.3-0.8-0.3-1c0-0.7,0.4,0.2,0.7,0.3C60,95,61,93.6,60,92.8
	C59,92,57.5,92,57.2,90.6L57.2,90.6z M64.5,88.3c-0.2-0.4-0.5-1.1-0.2-1.5c0.3-0.3,0.7-0.6,1.1-0.8c0.6-0.4,1.3-0.6,2-0.6
	c3-0.2,4.7,3.8,2.4,5.8c-0.5,0.4-1.1,0.8-1.8,1c-0.4,0.2-0.8,0.3-1.3,0.4c-0.3,0-1-1.5-0.7-1.6c0.2-0.1,0.4,0.4,0.4,0.5
	c0.2,0.2,0.5,0.3,0.7,0.3c0.7,0,1.4-0.2,1.9-0.7c1.3-1,1.1-2.7,0.2-3.8c-0.5-0.6-1.3-1-2.1-1.1c-0.8-0.1-1.6,0.2-2.2,0.7
	c-0.3,0.2-0.4,0.5-0.4,0.9c0,0.1,0.2,0.6,0,0.6l-0.1,0L64.5,88.3L64.5,88.3z M72.3,82.5c-0.1-0.2,1.8-1.6,1.9-1.4
	c0.1,0.1-0.2,0.4-0.2,0.6c0.1,0.5,0.8,1.2,1.1,1.7l0.8,1.1c0.3,0.4,0.6,0.9,1,1.3c0.1,0.1,0.2,0.2,0.3,0.3c0.2,0.1,0.7-0.2,0.8-0.1
	l0,0.2c-0.2,0.3-0.5,0.5-0.9,0.7c-0.2,0.2-0.4,0.4-0.7,0.6c-0.3,0.1-0.2,0-0.2-0.2c0-0.2,0.2-0.1,0.2-0.3c0-0.1-0.1-0.2-0.2-0.3
	c-0.3-0.4-0.6-0.8-0.9-1.2c-0.6-0.8-1.1-1.5-1.7-2.2c-0.2-0.2-0.5-0.7-0.8-0.7C72.7,82.3,72.6,82.6,72.3,82.5L72.3,82.5z M77,79
	c-0.2-0.2,0.9-1.3,1.1-1.4c0.3-0.2,0.4,0.2,0.7,0.4c1,0.7,2.1,1.4,3.1,2.1l-1.2-2.6c-0.1-0.2-1-1.8-0.8-2c0.2-0.3,1.9,0.4,2.2,0.4
	l2.8,0.7L83,74.8c-0.2-0.2-1-1.2-1.3-1.1c-0.1,0-0.5,0.6-0.5,0.1c0-0.2,1.2-1.5,1.3-1.3c0.1,0.1-0.2,0.3-0.2,0.4
	c0.1,0.3,0.2,0.5,0.5,0.7c0.6,0.6,1.2,1.3,1.8,1.9c0.6,0.6,1.3,1.2,1.8,1.9c0.3,0.4,0.1,0.4-0.3,0.4c-1.8-0.3-3.6-0.9-5.3-1.3
	l1.1,2.4l0.8,1.7c0.2,0.3,0.3,0.6,0.4,0.9c0.2,0.8-0.8-0.1-1.1-0.2L79,79.2c-0.3-0.3-0.6-0.5-1-0.6C77.5,78.5,77.3,79.1,77,79L77,79
	z M87.3,70.7c-0.9-0.3-1.6-1-1.9-1.9c-0.4-0.9-0.4-1.8,0-2.7c0.3-0.8,1-1.5,1.8-1.8c0.8-0.3,1.8-0.3,2.6,0.1c0.8,0.3,1.5,1,1.8,1.8
	s0.3,1.8,0,2.6C90.9,70.6,89.1,71.4,87.3,70.7L87.3,70.7z M87.5,69.7c1.5,0.6,3.3,0.3,3.8-1.3c0.6-1.7-0.9-2.9-2.5-3.2
	c-1.2-0.3-2.5,0.3-3.1,1.5C85.2,68,86.2,69.1,87.5,69.7z M94.2,60.5c-0.2,0-0.1-0.4-0.1-0.5c-0.2-0.1-0.4-0.2-0.6-0.2l-0.8-0.1
	l-3.1-0.5c-0.3,0-1.3,0-1.5-0.3c-0.4-0.3,1.3-1.3,1.5-1.5c1.3-1,2.7-1.9,4.1-2.8L91,54.3c-0.5-0.1-1.6-0.4-1.9,0.1
	c-0.1,0.1,0,0.5-0.2,0.4c-0.2,0,0-0.7,0-0.8c0.1-0.3,0-1,0.2-1.2c0.2-0.3,0.2,0,0.3,0.2c0.1,0.5,0.3,0.4,1,0.5
	c0.9,0.1,1.8,0.3,2.6,0.4l1.6,0.2c0.3,0,0.6,0.1,0.9,0.2c0.4,0.3-0.7,0.8-0.9,1c-1.6,1.1-3.2,2.2-4.8,3.3l2.5,0.3l1.3,0.2
	c0.2,0.1,0.5,0.1,0.8,0.1c0.3-0.1,0.1-0.4,0.3-0.6c0.4-0.4,0.2,0.5,0.2,0.7C94.5,59.5,94.5,60.4,94.2,60.5L94.2,60.5z M92.4,48.7
	c-1.8,0.2-3.5-1-3.8-2.8c-0.3-1.8,0.8-3.5,2.5-3.8c0.9-0.2,1.9-0.1,2.7,0.5s1.3,1.3,1.5,2.3C95.5,46.7,94.4,48.5,92.4,48.7
	L92.4,48.7z M92,47.7c1.7-0.2,3.2-1.5,2.6-3.4c-0.5-1.5-2.2-1.7-3.6-1.3c-1.2,0.4-2.2,1.4-2.1,2.8C89.2,47.3,90.7,47.9,92,47.7
	L92,47.7z M88.7,38.3c-0.4,0.1-1.1,0.4-1.5,0c-0.2-0.2-0.3-0.4-0.4-0.6c-0.4-0.7-0.6-1.6-0.7-2.4c-0.1-3.2,4.4-4.7,6.1-1.9
	c0.3,0.4,0.5,0.9,0.6,1.4c0.1,0.4,0.2,0.7,0.3,1.1c0.1,0.2,0.1,0.4,0.1,0.6c-0.1,0.3-0.8,0.4-1.1,0.5c-0.4,0.1-0.9,0.2-0.4-0.2
	c0.5-0.4,0.8-1,0.6-1.6c-0.1-0.6-0.4-1.1-0.7-1.6c-0.8-0.9-2-0.8-3-0.4c-1.4,0.6-2.1,2.1-1.7,3.5c0.1,0.5,0.4,1.2,0.9,1.4
	C88.1,38,89.3,38,88.7,38.3L88.7,38.3z M84.4,29.4c-0.2,0.2-0.5,0.3-0.8,0.4c-0.4,0.1-0.6-0.4-0.8-0.7c-0.3-0.4-0.5-0.8-0.8-1.2
	c-0.2-0.2-0.4-0.5-0.6-0.8c-0.2-0.5,0.2-0.1,0.3-0.1c0.6,0.2,1.4-0.7,1.9-1c0.6-0.4,1.2-0.8,1.7-1.2c0.3-0.2,1.2-0.6,1.3-1
	c0.1-0.2-0.4-0.9,0.1-0.6c0.2,0.2,0.4,0.5,0.6,0.9c0.4,0.6,0.9,1.2,1.3,1.8c0.2,0.2,0.2,0.2-0.1,0.4c-0.1,0.1-0.8,0.5-0.9,0.3
	c0-0.1,0.3-0.5,0.2-0.8c-0.2-0.4-0.4-0.8-0.7-1.1l-1.9,1.3c0.2,0.3,0.4,0.6,0.6,0.9c0.2,0.3,0.7,0.3,0.5,0.7
	c-0.3,0.2-0.5,0.4-0.9,0.5c-0.6,0.1-0.1-0.2,0-0.4c0.2-0.4-0.4-1.1-0.6-1.4c-0.5,0.3-2.2,1.1-2,1.8c0.1,0.4,0.4,0.7,0.7,1
	c0.3,0.2,0.4,0,0.8,0.1C84.4,29.2,84.6,29.2,84.4,29.4L84.4,29.4z M75.5,13.6l0.1-0.3c0-0.2-0.2-0.4-0.4-0.6
	c-0.3-0.2-0.6-0.4-0.9-0.6L73,14c0.3,0.2,0.6,0.4,1,0.6l0.2,0.1l0.6,0.1c0.1,0.1,0.1,0.2,0,0.2c-0.1,0.2-0.3,0.4-0.5,0.5
	c-0.1,0.1-0.3,0.5-0.4,0.3c-0.1-0.1,0.1-0.2,0.1-0.3c0.1-0.6-0.7-0.9-1.1-1.2L72,15.6c-0.3,0.3-0.5,0.7-0.7,1.1
	c0,0.3,0.2,0.3,0.3,0.5c0.1,0.2,0.2,0.4-0.2,0.3c-0.3-0.1-0.6-0.3-0.8-0.6c-0.3-0.1-0.5-0.3-0.7-0.5c-0.3-0.4,0.1-0.2,0.3-0.2
	c0.1,0,0.2-0.1,0.3-0.2c0.4-0.5,0.8-1,1.1-1.5l1.1-1.6c0.2-0.3,0.5-0.6,0.7-1c0.1-0.1,0.1-0.2,0.1-0.3s-0.1-0.3-0.2-0.3
	c-0.1-0.1-0.4-0.3,0-0.4c0.2-0.1,1.6,1.1,1.8,1.2c0.2,0.1,1.4,0.7,1.3,0.9C76.2,13.2,75.6,14.2,75.5,13.6L75.5,13.6z M67.4,11.1
	c-0.3,0.9-0.9,1.6-1.8,2s-1.8,0.5-2.7,0.1c-0.9-0.3-1.6-0.9-1.9-1.7c-0.4-0.8-0.4-1.8-0.1-2.6c0.3-0.8,0.9-1.5,1.8-1.9
	c0.8-0.4,1.7-0.4,2.6-0.1C67.1,7.5,68.1,9.3,67.4,11.1L67.4,11.1z M66.4,11c0.5-1.4,0.2-3.1-1.3-3.7c-1.6-0.6-2.8,0.5-3.2,2
	c-0.4,1.4,0,3,1.5,3.5C64.8,13.4,66,12.3,66.4,11z"/>
</svg>
