<?xml version="1.0" encoding="utf-8"?>
<svg version="1.1" id="logo" xmlns="http://www.w3.org/2000/svg" xmlns:xlink="http://www.w3.org/1999/xlink" x="0px" y="0px"
	 viewBox="0 0 288 48" style="enable-background:new 0 0 288 48; width:288px;" xml:space="preserve">
<style type="text/css">
	.st0{fill:#FFFFFF;}
</style>
	<path class="st0" d="M172,12h-16c-4.4,0-8,3.6-8,8v20c0,4.4,3.6,8,8,8h22.5c0.3,0,0.5-0.2,0.5-0.5v-3c0-0.3-0.2-0.5-0.5-0.5H156
		c-2.2,0-4-1.8-4-4v-6l27.5,0c0.3,0,0.5-0.2,0.5-0.5V20C180,15.6,176.4,12,172,12z M176,29.5c0,0.3-0.2,0.5-0.5,0.5H152V20
		c0-2.2,1.8-4,4-4h16c2.2,0,4,1.8,4,4V29.5z"/>
	<path class="st0" d="M132,12h-6c-3.6,0-6.8,1.6-9,4.1c-1.4-2.4-4-4.1-7-4.1h-6c-3.1,0-5.9,1.2-8,3.1v-2.6c0-0.3-0.2-0.5-0.5-0.5h-3
		c-0.3,0-0.5,0.2-0.5,0.5v35c0,0.3,0.2,0.5,0.5,0.5h3c0.3,0,0.5-0.2,0.5-0.5V24c0-4.4,3.6-8,8-8h6c2.2,0,4,1.8,4,4v27.5
		c0,0.3,0.2,0.5,0.5,0.5h3c0.3,0,0.5-0.2,0.5-0.5V24c0-4.4,3.6-8,8-8h6c2.2,0,4,1.8,4,4v27.5c0,0.3,0.2,0.5,0.5,0.5h3
		c0.3,0,0.5-0.2,0.5-0.5V20C140,15.6,136.4,12,132,12z"/>
	<path class="st0" d="M280,12h-12c-3.1,0-5.9,1.2-8,3.1V0.5c0-0.3-0.2-0.5-0.5-0.5h-3c-0.3,0-0.5,0.2-0.5,0.5v47
		c0,0.3,0.2,0.5,0.5,0.5h3c0.3,0,0.5-0.2,0.5-0.5V24c0-4.4,3.6-8,8-8h12c2.2,0,4,1.8,4,4v27.5c0,0.3,0.2,0.5,0.5,0.5h3
		c0.3,0,0.5-0.2,0.5-0.5V20C288,15.6,284.4,12,280,12z"/>
	<path class="st0" d="M212,12h-12c-3.1,0-5.9,1.2-8,3.1v-2.6c0-0.3-0.2-0.5-0.5-0.5h-3c-0.3,0-0.5,0.2-0.5,0.5v35
		c0,0.3,0.2,0.5,0.5,0.5h3c0.3,0,0.5-0.2,0.5-0.5V24c0-4.4,3.6-8,8-8h12c2.2,0,4,1.8,4,4v27.5c0,0.3,0.2,0.5,0.5,0.5h3
		c0.3,0,0.5-0.2,0.5-0.5V20C220,15.6,216.4,12,212,12z"/>
	<path class="st0" d="M76,12H60c-4.4,0-8,3.6-8,8v20c0,4.4,3.6,8,8,8h22.5c0.3,0,0.5-0.2,0.5-0.5v-3c0-0.3-0.2-0.5-0.5-0.5H60
		c-2.2,0-4-1.8-4-4v-6l27.5,0c0.3,0,0.5-0.2,0.5-0.5V20C84,15.6,80.4,12,76,12z M80,29.5c0,0.3-0.2,0.5-0.5,0.5H56V20
		c0-2.2,1.8-4,4-4h16c2.2,0,4,1.8,4,4V29.5z"/>
	<path class="st0" d="M44,0.5C44,0.2,43.8,0,43.5,0h-3C40.2,0,40,0.2,40,0.5v47c0,0.3,0.2,0.5,0.5,0.5h3c0.3,0,0.5-0.2,0.5-0.5V0.5z
		"/>
	<path class="st0" d="M249.5,44H238c-3.3,0-6-2.7-6-6V16h16.5c0.3,0,0.5-0.2,0.5-0.5v-3c0-0.3-0.2-0.5-0.5-0.5H232V4.5
		c0-0.3-0.2-0.5-0.5-0.5h-3c-0.3,0-0.5,0.2-0.5,0.5V38c0,5.5,4.5,10,10,10h11.5c0.3,0,0.5-0.2,0.5-0.5v-3
		C250,44.2,249.8,44,249.5,44z"/>
	<path class="st0" d="M16,10c2.8,0,5-2.2,5-5c0-2.8-2.2-5-5-5s-5,2.2-5,5C11,7.8,13.2,10,16,10z M16,3c1.1,0,2,0.9,2,2
		c0,1.1-0.9,2-2,2s-2-0.9-2-2C14,3.9,14.9,3,16,3z"/>
	<path class="st0" d="M24,12H8c-4.4,0-8,3.6-8,8v20c0,4.4,3.6,8,8,8h22.5c0.3,0,0.5-0.2,0.5-0.5v-3c0-0.3-0.2-0.5-0.5-0.5H8
		c-2.2,0-4-1.8-4-4v-6l27.5,0c0.3,0,0.5-0.2,0.5-0.5V20C32,15.6,28.4,12,24,12z M28,29.5c0,0.3-0.2,0.5-0.5,0.5H4V20
		c0-2.2,1.8-4,4-4h16c2.2,0,4,1.8,4,4V29.5z"/>
</svg>
