<svg xmlns="http://www.w3.org/2000/svg" xmlns:xlink="http://www.w3.org/1999/xlink" x="0px" y="0px" width="25" height="25" fill="#fff"
	 viewBox="0 0 25 25" style="enable-background:new 0 0 25 25;" xml:space="preserve">5
<path d="M11.1,12.1l-0.6,2.4c0.7,0.2,3,0.9,3.4-0.4v0C14.3,12.7,11.9,12.3,11.1,12.1z"/>
<path d="M14.4,2.3C9.1,1,3.6,4.2,2.3,9.6C1,14.9,4.2,20.4,9.6,21.7c5.4,1.3,10.8-1.9,12.1-7.3C23,9.1,19.8,3.6,14.4,2.3
	z M16.4,10.6L16.4,10.6c-0.1,1-0.7,1.4-1.4,1.6c1,0.5,1.5,1.3,1,2.7c-0.6,1.7-2,1.8-3.9,1.5l-0.5,1.8l-1.1-0.3l0.4-1.8
	c-0.3-0.1-0.6-0.1-0.9-0.2l-0.4,1.8l-1.1-0.3l0.5-1.8C8.8,15.5,6.9,15,6.9,15l0.5-1.3c0,0,0.8,0.2,0.8,0.2c0.3,0.1,0.4-0.1,0.5-0.3
	l1.2-4.9c0-0.2-0.1-0.5-0.5-0.6c0,0-0.8-0.2-0.8-0.2l0.3-1.2c0,0,2,0.5,2.2,0.5l0.4-1.8l1.1,0.3l-0.4,1.8c0.3,0.1,0.6,0.1,0.9,0.2
	L13.6,6l1.1,0.3l-0.4,1.8C15.6,8.5,16.6,9.2,16.4,10.6z"/>
<path d="M11.9,8.8L11.4,11c0.6,0.2,2.5,0.8,2.8-0.5C14.6,9.3,12.6,9,11.9,8.8z"/>
</svg>
