<svg xmlns="http://www.w3.org/2000/svg" width="25" height="25" viewBox="0 0 25 25">
<path fill="#FFF" fill-rule="evenodd" d="M18.4,5.2C18.3,5,18.1,5,18,5c-0.1,0-0.3,0-0.4,0.2C16.7,6,16,7,15.6,8.1c-2-0.5-4.2-0.5-6.2,0
	C9,7,8.3,6,7.4,5.2C7.3,5,7.2,5,7,5C6.9,5,6.7,5,6.6,5.2C4.9,6.8,4,9,4,11.3c0,4.8,3.8,8.7,8.5,8.7s8.5-3.9,8.5-8.7
	C21,9,20.1,6.8,18.4,5.2z M16.1,12c0-0.2,0-0.4,0-0.6c0-1.9,0.7-3.6,1.9-5c1.1,1.2,1.7,2.8,1.9,4.4C18.5,10.9,17.2,11.3,16.1,12z
	 M15.2,9.2c-0.2,0.7-0.3,1.4-0.3,2.2c0,0.5,0,0.9,0.1,1.4c-1.1,0.9-2,2.2-2.6,3.6c-0.5-1.4-1.4-2.7-2.6-3.6c0.1-0.5,0.1-0.9,0.1-1.4
	c0-0.7-0.1-1.5-0.3-2.2C11.6,8.8,13.4,8.8,15.2,9.2z M7,6.4c1.2,1.4,1.9,3.1,1.9,5c0,0.2,0,0.4,0,0.6c-1.1-0.7-2.4-1.1-3.7-1.2
	C5.3,9.2,5.9,7.6,7,6.4z M5.2,12c3.6,0.3,6.4,3.2,6.7,6.9C8.3,18.5,5.5,15.6,5.2,12z M13.1,18.8c0.3-3.7,3.2-6.6,6.7-6.9
	C19.5,15.6,16.7,18.5,13.1,18.8z"/>
</svg>
