<svg xmlns="http://www.w3.org/2000/svg" width="25" height="25" viewBox="0 0 25 25">
    <path fill="#fff" fill-rule="evenodd" d="M12,2C6.5,2,2,6.5,2,12c0,4.4,2.9,8.2,6.8,9.5c0.5,0.1,0.7-0.2,0.7-0.5c0-0.2,0-0.9,0-1.7
	C6.7,19.9,6.1,18,6.1,18C5.7,16.8,5,16.5,5,16.5c-0.9-0.6,0.1-0.6,0.1-0.6c1,0.1,1.5,1,1.5,1C7.5,18.5,9,18,9.5,17.8
	c0.1-0.6,0.3-1.1,0.6-1.3c-2.2-0.3-4.6-1.1-4.6-4.9c0-1.1,0.4-2,1-2.7C6.5,8.5,6.2,7.5,6.7,6.1c0,0,0.8-0.3,2.7,1
	C10.3,7,11.2,6.8,12,6.8c0.8,0,1.7,0.1,2.5,0.3c1.9-1.3,2.7-1,2.7-1c0.5,1.4,0.2,2.4,0.1,2.6c0.6,0.7,1,1.6,1,2.7
	c0,3.8-2.3,4.7-4.6,4.9c0.4,0.3,0.7,0.9,0.7,1.9c0,1.3,0,2.4,0,2.7c0,0.3,0.2,0.6,0.7,0.5c4-1.3,6.8-5.1,6.8-9.5C22,6.5,17.5,2,12,2
	z"/>
</svg>
