<svg version="1.1" xmlns="http://www.w3.org/2000/svg" xmlns:xlink="http://www.w3.org/1999/xlink" x="0px" y="0px" width="25" height="25" fill="#fff"
	 viewBox="0 0 25 25" style="enable-background:new 0 0 25 25;" xml:space="preserve">
<g>
	<path d="M12.5,2.3c3.3,0,3.7,0,5.1,0.1c1.2,0.1,1.9,0.3,2.3,0.4c0.6,0.2,1,0.5,1.4,0.9c0.4,0.4,0.7,0.9,0.9,1.4
		c0.2,0.4,0.4,1.1,0.4,2.3c0.1,1.3,0.1,1.7,0.1,5.1s0,3.7-0.1,5.1c-0.1,1.2-0.3,1.9-0.4,2.3c-0.2,0.6-0.5,1-0.9,1.4
		c-0.4,0.4-0.9,0.7-1.4,0.9c-0.4,0.2-1.1,0.4-2.3,0.4c-1.3,0.1-1.7,0.1-5.1,0.1s-3.7,0-5.1-0.1c-1.2-0.1-1.9-0.3-2.3-0.4
		c-0.6-0.2-1-0.5-1.4-0.9c-0.4-0.4-0.7-0.9-0.9-1.4c-0.2-0.4-0.4-1.1-0.4-2.3c-0.1-1.3-0.1-1.7-0.1-5.1s0-3.7,0.1-5.1
		c0.1-1.2,0.3-1.9,0.4-2.3c0.2-0.6,0.5-1,0.9-1.4C4.1,3.3,4.5,3,5.1,2.8c0.4-0.2,1.1-0.4,2.3-0.4C8.8,2.3,9.2,2.3,12.5,2.3 M12.5,0
		C9.1,0,8.7,0,7.3,0.1C6,0.1,5.1,0.3,4.3,0.7C3.5,1,2.8,1.4,2.1,2.1C1.4,2.8,1,3.5,0.7,4.3C0.3,5.1,0.1,6,0.1,7.3
		C0,8.7,0,9.1,0,12.5c0,3.4,0,3.8,0.1,5.2c0.1,1.3,0.3,2.2,0.6,3c0.3,0.8,0.7,1.5,1.4,2.2c0.7,0.7,1.4,1.1,2.2,1.4
		c0.8,0.3,1.7,0.5,3,0.6C8.7,25,9.1,25,12.5,25s3.8,0,5.2-0.1c1.3-0.1,2.2-0.3,3-0.6c0.8-0.3,1.5-0.7,2.2-1.4
		c0.7-0.7,1.1-1.4,1.4-2.2c0.3-0.8,0.5-1.7,0.6-3c0.1-1.3,0.1-1.8,0.1-5.2s0-3.8-0.1-5.2c-0.1-1.3-0.3-2.2-0.6-3
		c-0.3-0.8-0.7-1.5-1.4-2.2c-0.7-0.7-1.4-1.1-2.2-1.4c-0.8-0.3-1.7-0.5-3-0.6C16.3,0,15.9,0,12.5,0L12.5,0z"/>
	<path d="M12.5,6.1C9,6.1,6.1,9,6.1,12.5s2.9,6.4,6.4,6.4s6.4-2.9,6.4-6.4S16,6.1,12.5,6.1z M12.5,16.7
		c-2.3,0-4.2-1.9-4.2-4.2c0-2.3,1.9-4.2,4.2-4.2c2.3,0,4.2,1.9,4.2,4.2C16.7,14.8,14.8,16.7,12.5,16.7z"/>
	<circle cx="19.2" cy="5.8" r="1.5"/>
</g>
</svg>