<svg xmlns="http://www.w3.org/2000/svg" xmlns:xlink="http://www.w3.org/1999/xlink" x="0px" y="0px"  width="25" height="25"
	 viewBox="0 0 25 25" style="enable-background:new 0 0 25 25;" xml:space="preserve">
<style type="text/css">
	.st0{fill:#FFFFFF;}
</style>
<path id="Shape" class="st0" d="M3.8,7.5c0-0.3-0.1-0.5-0.3-0.7L1.3,4.4V4h6.6l5.2,10.6L17.7,4H24v0.4L22.2,6
	C22,6.1,21.9,6.2,22,6.4v12.1c0,0.2,0,0.4,0.2,0.4l1.7,1.6V21h-9v-0.4l1.8-1.7c0.2-0.2,0.2-0.2,0.2-0.4V8.7l-5,12.3h-0.7l-6-12.3
	v8.1c-0.1,0.4,0.1,0.7,0.4,0.9L8,20.4V21H1v-0.4L3.4,18c0.3-0.3,0.4-0.6,0.3-0.9L3.8,7.5L3.8,7.5z"/>
</svg>
