<svg xmlns="http://www.w3.org/2000/svg" xmlns:xlink="http://www.w3.org/1999/xlink" x="0px" y="0px" width="25" heidht="25"
	 viewBox="0 0 25 25" style="enable-background:new 0 0 25 25;" xml:space="preserve">
<style type="text/css">
	.st0{fill:#FFFFFF;}
</style>
<path class="st0" d="M16.7,16.9c-0.3-1.3-0.9-2.5-1.5-3.8c-0.8-1.7-1.7-3.4-2.5-5.1C12,6.8,11.7,5.5,11.8,4C11.9,3.4,12,2.9,12,2.3
	c0,0,0-0.1,0-0.1C12,2,12,2,11.8,2c-0.1,0-0.3,0.2-0.4,0.2c-0.9,0.7-1.8,1.5-2.4,2.4C8.5,5.2,8.2,5.8,8.1,6.5
	C8.1,7.1,8.3,7.7,8.5,8.4C9,10,9.8,11.5,10.5,13c0.7,1.4,1.4,2.8,2.1,4.2c0.4,0.9,0.7,1.8,0.5,2.7c-0.1,0.7-0.3,1.4-0.5,2.1
	c-0.1,0.3-0.2,0.5-0.2,0.7c0,0.3,0.1,0.3,0.3,0.2c0.1-0.1,0.3-0.1,0.4-0.2c1.4-1.1,2.5-2.3,3.4-3.7C16.8,18.4,16.9,17.7,16.7,16.9z"
	/>
<path class="st0" d="M8.8,16c-0.3-1-0.7-2-1.2-3c-0.7-1.3-1.3-2.7-2-4C5.1,8,4.8,6.9,4.9,5.8C5,5.3,5,4.9,5.1,4.4c0,0,0,0,0-0.1
	c0-0.2-0.1-0.2-0.2-0.2c-0.1,0-0.2,0.1-0.3,0.2C3.8,4.9,3.2,5.6,2.6,6.3C2.3,6.7,2.1,7.2,2,7.7C2,8.2,2.1,8.7,2.3,9.2
	c0.4,1.3,1,2.5,1.6,3.7C4.4,14,5,15.1,5.5,16.2c0.3,0.7,0.5,1.4,0.4,2.1c-0.1,0.6-0.3,1.1-0.4,1.6c-0.1,0.2-0.1,0.4-0.2,0.6
	c0,0.2,0.1,0.3,0.2,0.2c0.1-0.1,0.2-0.1,0.3-0.2c1.1-0.8,2-1.8,2.7-2.9C8.9,17.1,8.9,16.5,8.8,16z"/>
<path class="st0" d="M22.9,16c-0.3-1-0.7-2-1.2-3c-0.7-1.3-1.3-2.7-2-4c-0.5-1-0.8-2.1-0.7-3.3c0-0.4,0.1-0.9,0.2-1.3c0,0,0,0,0-0.1
	c0-0.2-0.1-0.2-0.2-0.2c-0.1,0-0.2,0.1-0.3,0.2C18,5,17.3,5.6,16.8,6.3c-0.3,0.4-0.6,0.9-0.6,1.4c-0.1,0.5,0.1,1,0.2,1.5
	c0.4,1.3,1,2.5,1.6,3.7c0.5,1.1,1.1,2.2,1.6,3.3c0.3,0.7,0.5,1.4,0.4,2.1c-0.1,0.6-0.3,1.1-0.4,1.6c-0.1,0.2-0.1,0.4-0.2,0.6
	c0,0.2,0.1,0.3,0.2,0.2c0.1-0.1,0.2-0.1,0.3-0.2c1.1-0.8,2-1.8,2.7-2.9C23,17.1,23.1,16.6,22.9,16z"/>
</svg>
