<?xml version="1.0" encoding="utf-8"?>
<!-- Generator: Adobe Illustrator 20.1.0, SVG Export Plug-In . SVG Version: 6.00 Build 0)  -->
<svg version="1.1" id="Layer_1" xmlns="http://www.w3.org/2000/svg" xmlns:xlink="http://www.w3.org/1999/xlink" x="0px" y="0px"
	 viewBox="0 0 49 49" style="enable-background:new 0 0 49 49;" xml:space="preserve">
<style type="text/css">
	.st0{fill:#FFFFFF;}
</style>
<path class="st0" d="M41.3,15.9c-0.4-1.5-1.6-2.7-3.1-3.2C35.4,12,24.5,12,24.5,12s-10.9,0-13.7,0.7c-1.5,0.4-2.7,1.6-3.1,3.2
	C7,18.7,7,24.5,7,24.5s0,5.8,0.7,8.6c0.4,1.5,1.6,2.7,3.1,3.2C13.6,37,24.5,37,24.5,37s10.9,0,13.7-0.7c1.5-0.4,2.7-1.6,3.1-3.2
	c0.7-2.8,0.7-8.6,0.7-8.6S42,18.7,41.3,15.9z M21,29.8V19.2l9.1,5.3L21,29.8z"/>
</svg>
