<svg xmlns="http://www.w3.org/2000/svg" xmlns:xlink="http://www.w3.org/1999/xlink" x="0px" y="0px"
	 viewBox="0 0 1200 1200" style="enable-background:new 0 0 1200 1200;" xml:space="preserve">
<style type="text/css">
	.st0{opacity:0.2;fill:#FFFFFF;}
	.st1{fill:#FFFFFF;}
	.st2{opacity:0.4;fill:#FFFFFF;}
	.st3{opacity:0.1;fill:#FFFFFF;}
	.st4{opacity:0.6;fill:#FFFFFF;}
</style>
<path class="st0" d="M872,127v20h-8v-20c0-2.2,1.8-4,4-4S872,124.8,872,127z"/>
<path class="st0" d="M860,127v20h-8v-20c0-2.2,1.8-4,4-4S860,124.8,860,127z"/>
<path class="st0" d="M840,87h16c0,4.4-3.6,8-8,8S840,91.4,840,87z"/>
<polygon class="st0" points="853.6,83 742.4,83 757.4,71 838.6,71 "/>
<path class="st0" d="M848,127v20h-8v-20c0-2.2,1.8-4,4-4S848,124.8,848,127z"/>
<path class="st0" d="M820,87h16c0,4.4-3.6,8-8,8S820,91.4,820,87z"/>
<path class="st1" d="M828,113v12c0,3.3-2.7,6-6,6h-12c-3.3,0-6-2.7-6-6v-12c0-3.3,2.7-6,6-6h12C825.3,107,828,109.7,828,113z
	 M824,125v-12c0-1.1-0.9-2-2-2h-12c-1.1,0-2,0.9-2,2v12c0,1.1,0.9,2,2,2h12C823.1,127,824,126.1,824,125z"/>
<path class="st0" d="M800,87h16c0,4.4-3.6,8-8,8S800,91.4,800,87z"/>
<path class="st0" d="M780,87h16c0,4.4-3.6,8-8,8S780,91.4,780,87z"/>
<path class="st0" d="M760,87h16c0,4.4-3.6,8-8,8S760,91.4,760,87z"/>
<path class="st0" d="M756,127v20h-8v-20c0-2.2,1.8-4,4-4S756,124.8,756,127z"/>
<path class="st0" d="M740,87h16c0,4.4-3.6,8-8,8S740,91.4,740,87z"/>
<path class="st0" d="M744,127v20h-8v-20c0-2.2,1.8-4,4-4S744,124.8,744,127z"/>
<path class="st0" d="M732,127v20h-8v-20c0-2.2,1.8-4,4-4S732,124.8,732,127z"/>
<rect x="200" y="323" class="st2" width="76" height="24"/>
<path class="st2" d="M276,191v8h-76v-8c0-2.2,1.8-4,4-4h68C274.2,187,276,188.8,276,191z"/>
<rect x="240" y="263" class="st2" width="16" height="16"/>
<rect x="220" y="283" class="st2" width="16" height="16"/>
<rect x="200" y="223" class="st2" width="16" height="16"/>
<rect x="124" y="323" class="st2" width="56" height="24"/>
<rect x="164" y="263" class="st2" width="16" height="16"/>
<path class="st2" d="M180,231v8h-56v-8c0-2.2,1.8-4,4-4h48C178.2,227,180,228.8,180,231z"/>
<rect x="144" y="303" class="st2" width="16" height="16"/>
<rect x="124" y="243" class="st2" width="16" height="16"/>
<rect x="598" y="116" class="st1" width="4" height="105.7"/>
<polygon class="st1" points="726.3,256.2 723.6,253 775.7,162.7 778.8,165.3 "/>
<polygon class="st1" points="473.1,255.2 421.1,165.1 424.6,163.1 476.9,253.9 "/>
<polygon class="st1" points="817,348 815.2,344.5 905.4,292.3 908,295.5 "/>
<rect x="849.1" y="469" class="st1" width="109.5" height="4"/>
<polygon class="st1" points="906.3,650.1 815.1,597.5 817.1,594.1 908,646.5 "/>
<polygon class="st1" points="775.5,779 723.1,688.2 726.4,685.9 779.1,777.2 "/>
<rect x="598" y="719.3" class="st1" width="4" height="107.7"/>
<polygon class="st1" points="424,780 420.5,778 473.1,686.8 476.6,688.8 "/>
<polygon class="st1" points="294.3,649.8 291.9,646.6 382.7,594.2 384.8,597.6 "/>
<rect x="248" y="469" class="st1" width="104" height="4"/>
<polygon class="st1" points="383.2,348.1 292.8,295.9 293.9,291.9 384.6,344.3 "/>
<path class="st3" d="M1060,695c2.2,0,4,1.8,4,4s-1.8,4-4,4s-4-1.8-4-4S1057.8,695,1060,695z"/>
<path class="st3" d="M986.9,695h66.2c-0.7,1.2-1.1,2.5-1.1,4s0.4,2.8,1.1,4h-66.2c0.7-1.2,1.1-2.5,1.1-4S987.6,696.2,986.9,695z"/>
<path class="st1" d="M1032,665v12c0,3.3-2.7,6-6,6h-4c-3.3,0-6-2.7-6-6v-12c0-3.3,2.7-6,6-6h4C1029.3,659,1032,661.7,1032,665z
	 M1028,677v-12c0-1.1-0.9-2-2-2h-4c-1.1,0-2,0.9-2,2v12c0,1.1,0.9,2,2,2h4C1027.1,679,1028,678.1,1028,677z"/>
<path class="st3" d="M1028,665v12c0,1.1-0.9,2-2,2h-4c-1.1,0-2-0.9-2-2v-12c0-1.1,0.9-2,2-2h4C1027.1,663,1028,663.9,1028,665z"/>
<path class="st1" d="M1004,665v12c0,3.3-2.7,6-6,6h-4c-3.3,0-6-2.7-6-6v-12c0-3.3,2.7-6,6-6h4C1001.3,659,1004,661.7,1004,665z
	 M1000,677v-12c0-1.1-0.9-2-2-2h-4c-1.1,0-2,0.9-2,2v12c0,1.1,0.9,2,2,2h4C999.1,679,1000,678.1,1000,677z"/>
<path class="st3" d="M1000,665v12c0,1.1-0.9,2-2,2h-4c-1.1,0-2-0.9-2-2v-12c0-1.1,0.9-2,2-2h4C999.1,663,1000,663.9,1000,665z"/>
<path class="st3" d="M980,695c2.2,0,4,1.8,4,4s-1.8,4-4,4s-4-1.8-4-4S977.8,695,980,695z"/>
<path class="st1" d="M976,665v12c0,3.3-2.7,6-6,6h-4c-3.3,0-6-2.7-6-6v-12c0-3.3,2.7-6,6-6h4C973.3,659,976,661.7,976,665z M972,677
	v-12c0-1.1-0.9-2-2-2h-4c-1.1,0-2,0.9-2,2v12c0,1.1,0.9,2,2,2h4C971.1,679,972,678.1,972,677z"/>
<path class="st3" d="M976,643v4h-16v-12h4v-4h-4v-12h4v-4h-4v-8c0-2.2,1.8-4,4-4h8c2.2,0,4,1.8,4,4h-4v4h4v12h-4v4h4v12h-4v4H976z"
	/>
<path class="st3" d="M972,665v12c0,1.1-0.9,2-2,2h-4c-1.1,0-2-0.9-2-2v-12c0-1.1,0.9-2,2-2h4C971.1,663,972,663.9,972,665z"/>
<path class="st1" d="M948,665v12c0,3.3-2.7,6-6,6h-4c-3.3,0-6-2.7-6-6v-12c0-3.3,2.7-6,6-6h4C945.3,659,948,661.7,948,665z M944,677
	v-12c0-1.1-0.9-2-2-2h-4c-1.1,0-2,0.9-2,2v12c0,1.1,0.9,2,2,2h4C943.1,679,944,678.1,944,677z"/>
<path class="st3" d="M948,635v12h-16v-4h4v-4h-4v-12h4v-4h-4v-12h4v-4h-4v-8c0-2.2,1.8-4,4-4h8c2.2,0,4,1.8,4,4h-4v4h4v12h-4v4h4v12
	h-4v4H948z"/>
<path class="st3" d="M944,665v12c0,1.1-0.9,2-2,2h-4c-1.1,0-2-0.9-2-2v-12c0-1.1,0.9-2,2-2h4C943.1,663,944,663.9,944,665z"/>
<g>
	<path class="st1" d="M689.4,1146.7h5.8v3.8c0.6-2.9,4.1-4.4,10.4-4.4c5.2,0,8.4,1.4,9.7,4.2c0.4-1.4,1.5-2.4,3.5-3.1
		s4.3-1.1,7.1-1.1c3.8,0,6.5,0.7,8.1,2.1c1.6,1.4,2.4,3.7,2.4,6.8v22.7h-5.8v-22.3c0-0.8-0.1-1.5-0.2-2s-0.4-1-0.8-1.5
		c-0.9-1.1-2.8-1.6-5.7-1.6c-2.3,0-3.9,0.2-5.1,0.4s-1.9,0.8-2.3,1.5c-0.4,0.7-0.6,1.8-0.6,3.1v22.3h-5.8v-22.3c0-0.8-0.1-1.5-0.2-2
		s-0.4-1-0.8-1.5c-0.9-1.1-2.7-1.6-5.6-1.6c-2.3,0-4.1,0.2-5.3,0.4c-1.2,0.3-2,0.8-2.5,1.5c-0.5,0.7-0.7,1.8-0.7,3.2v22.3h-5.8
		V1146.7z"/>
	<path class="st1" d="M748.8,1177.5c-1.6-0.6-2.8-1.5-3.5-2.9c-0.7-1.4-1.1-3.4-1.1-6.1c0-2.3,0.3-4.2,1-5.5s1.8-2.2,3.4-2.8
		c1.6-0.6,3.9-0.8,6.8-0.8h9.3v-4.9c0-1.2-0.2-2-0.7-2.7c-0.4-0.6-1.2-1.1-2.2-1.3c-1-0.3-2.6-0.4-4.6-0.4c-3.2,0-6.7,0.3-10.6,0.8
		v-4.2c4.2-0.4,8-0.6,11.5-0.6c3.6,0,6.2,0.3,7.9,0.8c1.7,0.5,2.9,1.5,3.5,2.8c0.6,1.3,1,3.4,1,6.1v21.9H765v-2.9
		c-0.5,2.4-3.6,3.6-9.3,3.6C752.7,1178.3,750.4,1178.1,748.8,1177.5z M756.6,1174.6c2.1,0,3.9-0.1,5.3-0.4c1.9-0.4,2.9-1.3,2.9-2.7
		v-8.4h-8.9c-1.8,0-3.2,0.1-4,0.4c-0.8,0.3-1.3,0.8-1.6,1.6c-0.3,0.8-0.4,2-0.4,3.7c0,1.5,0.1,2.7,0.4,3.6c0.3,0.8,0.8,1.4,1.6,1.8
		c0.8,0.4,1.9,0.5,3.5,0.5H756.6z"/>
	<path class="st1" d="M779.6,1146.7h5.8v3.8c0.6-2.9,4-4.4,10.2-4.4c4,0,6.8,0.7,8.4,2.1c1.6,1.4,2.4,3.7,2.4,6.8v22.7h-5.8v-22.4
		c0-0.8-0.1-1.5-0.2-2c-0.1-0.5-0.4-1-0.8-1.5c-0.9-1.1-2.8-1.6-5.7-1.6c-2.3,0-4,0.2-5.2,0.5c-1.2,0.3-2.1,0.8-2.6,1.6
		c-0.5,0.7-0.7,1.8-0.7,3.1v22.4h-5.8V1146.7z"/>
	<path class="st1" d="M817.7,1176.2c-1.6-1.4-2.4-3.7-2.4-6.8v-22.7h5.8v22.4c0,0.8,0.1,1.5,0.2,1.9c0.1,0.5,0.4,1,0.8,1.5
		c0.8,1.1,2.6,1.7,5.6,1.7c3.2,0,5.4-0.3,6.7-0.9c1.2-0.6,1.9-1.7,1.9-3.3v-23.4h5.8v31h-5.8v-3.8c-0.6,2.9-3.9,4.4-10.2,4.4
		C822.1,1178.3,819.3,1177.6,817.7,1176.2z"/>
	<path class="st1" d="M855.7,1150.5h-7.1v-3.8h7.1v-5c0-3.4,0.9-5.8,2.9-7.3c1.9-1.5,4.8-2.2,8.7-2.2c1.4,0,3.2,0.1,5.2,0.3v3.8
		c-1.6-0.2-3.3-0.3-5-0.3c-2.1,0-3.7,0.4-4.6,1.2s-1.4,2.2-1.4,4.2v5.4h10.3v3.8h-10.3v27.2h-5.8V1150.5z"/>
	<path class="st1" d="M880.8,1177.5c-1.6-0.6-2.8-1.5-3.5-2.9c-0.7-1.4-1.1-3.4-1.1-6.1c0-2.3,0.3-4.2,1-5.5s1.8-2.2,3.4-2.8
		c1.6-0.6,3.9-0.8,6.8-0.8h9.3v-4.9c0-1.2-0.2-2-0.7-2.7c-0.4-0.6-1.2-1.1-2.2-1.3c-1-0.3-2.6-0.4-4.6-0.4c-3.2,0-6.7,0.3-10.6,0.8
		v-4.2c4.2-0.4,8-0.6,11.5-0.6c3.6,0,6.2,0.3,7.9,0.8c1.7,0.5,2.9,1.5,3.5,2.8c0.6,1.3,1,3.4,1,6.1v21.9h-5.6v-2.9
		c-0.5,2.4-3.6,3.6-9.3,3.6C884.6,1178.3,882.4,1178.1,880.8,1177.5z M888.6,1174.6c2.1,0,3.9-0.1,5.3-0.4c1.9-0.4,2.9-1.3,2.9-2.7
		v-8.4h-8.9c-1.8,0-3.2,0.1-4,0.4c-0.8,0.3-1.3,0.8-1.6,1.6c-0.3,0.8-0.4,2-0.4,3.7c0,1.5,0.1,2.7,0.4,3.6c0.3,0.8,0.8,1.4,1.6,1.8
		c0.8,0.4,1.9,0.5,3.5,0.5H888.6z"/>
	<path class="st1" d="M919.8,1178.2c-1-0.1-2.1-0.3-3.3-0.6c-1.3-0.3-2.3-0.9-3.1-1.5c-0.7-0.7-1.3-1.7-1.9-3
		c-0.5-1.3-0.8-2.9-0.8-4.8v-11.4c0-3.5,0.7-5.9,2-7.4c0.7-0.9,1.5-1.5,2.2-1.9c0.7-0.4,1.7-0.8,2.9-0.9c1.2-0.2,2.3-0.3,3.2-0.4
		c0.9-0.1,2.3-0.1,4-0.1c2.9,0,5.9,0.3,8.8,1v4.2c-3.4-0.9-6.6-1.3-9.5-1.3c-2.2,0-3.8,0.2-4.9,0.5s-1.8,0.9-2.2,1.7
		s-0.6,2.1-0.6,3.8v12.7c0,1.6,0.2,2.8,0.7,3.5c0.4,0.8,1.3,1.3,2.4,1.6c1.2,0.3,2.9,0.5,5.2,0.5c3.1,0,6.2-0.4,9.3-1.2v4.4
		c-2.9,0.6-6.2,0.9-9.9,0.9C922.4,1178.3,920.8,1178.3,919.8,1178.2z"/>
	<path class="st1" d="M950.6,1177.5c-1.5-0.6-2.6-1.6-3.2-2.9s-1-3.3-1-5.9v-18.2h-6.9v-3.8h6.9v-9.6h5.8v9.6h11.1v3.8h-11.1v18.5
		c0,1.5,0.2,2.7,0.5,3.5c0.4,0.8,1,1.3,1.9,1.6s2.2,0.5,4,0.5c0.6,0,2.1-0.2,4.6-0.5v3.8c-2.2,0.3-4.3,0.5-6.5,0.5
		C954.2,1178.3,952.1,1178,950.6,1177.5z"/>
	<path class="st1" d="M972.6,1176.2c-1.6-1.4-2.4-3.7-2.4-6.8v-22.7h5.8v22.4c0,0.8,0.1,1.5,0.2,1.9c0.1,0.5,0.4,1,0.8,1.5
		c0.8,1.1,2.6,1.7,5.6,1.7c3.2,0,5.4-0.3,6.7-0.9c1.2-0.6,1.9-1.7,1.9-3.3v-23.4h5.8v31h-5.8v-3.8c-0.6,2.9-3.9,4.4-10.2,4.4
		C977,1178.3,974.2,1177.6,972.6,1176.2z"/>
	<path class="st1" d="M1006,1146.7h5.4v5.1c0-1,0.4-1.9,1.3-2.8c0.9-0.9,1.9-1.6,3.3-2.1c1.3-0.5,2.6-0.8,3.9-0.8h2.8v4.9h-3.2
		c-2.7,0-4.7,0.4-5.9,1.1c-1.2,0.7-1.8,2-1.8,3.8v21.8h-5.8V1146.7z"/>
	<path class="st1" d="M1028.5,1168.9v-12.2c0-3.8,1.1-6.5,3.2-8.1c2.2-1.6,5.6-2.5,10.5-2.5c4.6,0,7.9,0.8,9.9,2.4
		c2,1.6,3,4.3,3,8.2v6.8h-20.8v4.7c0,2.1,0.7,3.7,2.2,4.6c1.5,0.9,3.8,1.4,6.9,1.4c2.9,0,6.4-0.5,10.4-1.5v4.4
		c-3.9,0.9-7.7,1.3-11.2,1.3C1033.3,1178.3,1028.5,1175.2,1028.5,1168.9z M1049.4,1159.7v-4.9c0-1.9-0.6-3.2-1.7-3.9
		c-1.1-0.7-3.1-1.1-5.8-1.1c-2.6,0-4.6,0.4-5.8,1.1c-1.2,0.7-1.8,2-1.8,3.9v4.9H1049.4z"/>
	<path class="st1" d="M1063.3,1146.7h5.4v5.1c0-1,0.4-1.9,1.3-2.8c0.9-0.9,1.9-1.6,3.3-2.1c1.3-0.5,2.6-0.8,3.9-0.8h2.8v4.9h-3.2
		c-2.7,0-4.7,0.4-5.9,1.1c-1.2,0.7-1.8,2-1.8,3.8v21.8h-5.8V1146.7z"/>
</g>
<g>
	<path class="st1" d="M209.6,1177.4c-1.8-0.6-3-1.6-3.8-3s-1.2-3.4-1.2-5.9v-13.6c0-3.1,1-5.4,2.9-6.7c1.9-1.4,5.1-2.1,9.6-2.1
		c2.7,0,5,0.3,6.9,1c1.9,0.7,2.9,1.7,3,2.9h0.1l-0.1-7.9v-9.3h5.8v44.8h-5.6v-3.6c0,1.2-0.9,2.1-2.8,2.9c-1.8,0.9-4.4,1.3-7.6,1.3
		C213.8,1178.3,211.4,1178,209.6,1177.4z M225,1173.3c1.4-0.7,2.1-2,2.1-3.7v-15.3c0-2.8-2.8-4.2-8.5-4.2c-3.4,0-5.6,0.3-6.7,0.8
		c-1.1,0.5-1.6,1.6-1.6,3.4v15.3c0,1.8,0.6,3,1.8,3.7c1.2,0.7,3.2,1.1,6,1.1C221.3,1174.4,223.6,1174,225,1173.3z"/>
	<path class="st1" d="M241.7,1135.5h5.8v6h-5.8V1135.5z M241.7,1146.7h5.8v31h-5.8V1146.7z"/>
	<path class="st1" d="M256,1177.6v-4.4c5,0.8,8.6,1.2,10.8,1.2c2.7,0,4.7-0.3,5.9-0.8c1.2-0.5,1.8-1.5,1.8-3v-3.1
		c0-1.3-0.4-2.3-1.3-2.8c-0.9-0.6-2.3-0.8-4.4-0.8h-3.5c-3.2,0-5.6-0.7-7.3-2c-1.7-1.3-2.5-3.2-2.5-5.6v-2.9c0-4.9,4.6-7.3,13.8-7.3
		c0.7,0,3.8,0.2,9.4,0.5v4.2c-3.8-0.6-7-0.9-9.7-0.9c-3,0-5.1,0.3-6.2,0.9c-1.1,0.6-1.7,1.6-1.7,3v2.6c0,2.1,1.9,3.1,5.7,3.1h3.6
		c6.5,0,9.8,2.4,9.8,7.3v2.7c0,3.2-1.1,5.5-3.3,6.8s-5.6,2-10.2,2C263.4,1178.3,259.8,1178.1,256,1177.6z"/>
	<path class="st1" d="M296.1,1177.5c-1.5-0.6-2.6-1.6-3.2-2.9s-1-3.3-1-5.9v-18.2H285v-3.8h6.9v-9.6h5.8v9.6h11.1v3.8h-11.1v18.5
		c0,1.5,0.2,2.7,0.5,3.5c0.4,0.8,1,1.3,1.9,1.6s2.2,0.5,4,0.5c0.6,0,2.1-0.2,4.6-0.5v3.8c-2.2,0.3-4.3,0.5-6.5,0.5
		C299.7,1178.3,297.6,1178,296.1,1177.5z"/>
	<path class="st1" d="M315.7,1146.7h5.4v5.1c0-1,0.4-1.9,1.3-2.8c0.9-0.9,1.9-1.6,3.3-2.1c1.3-0.5,2.6-0.8,3.9-0.8h2.8v4.9h-3.2
		c-2.7,0-4.7,0.4-5.9,1.1c-1.2,0.7-1.8,2-1.8,3.8v21.8h-5.8V1146.7z"/>
	<path class="st1" d="M339.1,1135.5h5.8v6h-5.8V1135.5z M339.1,1146.7h5.8v31h-5.8V1146.7z"/>
	<path class="st1" d="M362.3,1178c-1.4-0.2-2.8-0.7-4.1-1.3c-2.8-1.3-4.2-4.4-4.2-9.1v-34.7h5.8v9.3v3.6c0,1.1-0.1,2.3-0.1,3.7
		c0.2-1,1.1-1.8,2.7-2.5c1.6-0.6,4-1,7-1c8.5,0,12.8,2.9,12.8,8.8v12.7c0,1.8-0.3,3.4-0.8,4.8c-0.5,1.4-1.2,2.4-2.1,3.2
		c-0.8,0.7-1.8,1.3-3.2,1.7s-2.7,0.7-4,0.8c-1.2,0.1-2.6,0.2-4.4,0.2C365.5,1178.3,363.6,1178.2,362.3,1178z M373,1174.1
		c1.2-0.3,2-0.9,2.5-1.8c0.5-0.9,0.8-2.2,0.8-3.9v-12.2c0-1.7-0.3-3.1-0.8-3.9s-1.4-1.4-2.5-1.7c-1.2-0.3-2.9-0.4-5.2-0.4
		c-2.1,0-3.7,0.2-4.9,0.5c-1.2,0.3-2,0.9-2.5,1.8s-0.8,2.1-0.8,3.7v12.2c0,1.8,0.2,3.1,0.7,3.9c0.5,0.9,1.3,1.4,2.5,1.8
		s2.8,0.5,5,0.5C370.1,1174.6,371.8,1174.4,373,1174.1z"/>
	<path class="st1" d="M392.9,1176.2c-1.6-1.4-2.4-3.7-2.4-6.8v-22.7h5.8v22.4c0,0.8,0.1,1.5,0.2,1.9c0.1,0.5,0.4,1,0.8,1.5
		c0.8,1.1,2.6,1.7,5.6,1.7c3.2,0,5.4-0.3,6.7-0.9c1.2-0.6,1.9-1.7,1.9-3.3v-23.4h5.8v31h-5.8v-3.8c-0.6,2.9-3.9,4.4-10.2,4.4
		C397.3,1178.3,394.5,1177.6,392.9,1176.2z"/>
	<path class="st1" d="M435,1177.5c-1.5-0.6-2.6-1.6-3.2-2.9s-1-3.3-1-5.9v-18.2h-6.9v-3.8h6.9v-9.6h5.8v9.6h11.1v3.8h-11.1v18.5
		c0,1.5,0.2,2.7,0.5,3.5c0.4,0.8,1,1.3,1.9,1.6s2.2,0.5,4,0.5c0.6,0,2.1-0.2,4.6-0.5v3.8c-2.2,0.3-4.3,0.5-6.5,0.5
		C438.5,1178.3,436.5,1178,435,1177.5z"/>
	<path class="st1" d="M461.8,1178c-1.4-0.2-2.7-0.6-4.1-1.2c-1.4-0.6-2.4-1.7-3.1-3.1s-1-3.4-1-5.8v-10.8c0-1.9,0.2-3.6,0.7-5.1
		c0.5-1.4,1.1-2.6,1.9-3.4c0.6-0.7,1.6-1.3,2.9-1.7s2.6-0.7,4-0.8c1.5-0.1,3.1-0.1,4.8-0.1c2.2,0,3.9,0.1,5,0.2
		c1.1,0.1,2.3,0.3,3.6,0.7c1.3,0.4,2.3,1,3.1,1.7c0.7,0.8,1.3,1.9,1.9,3.3c0.5,1.5,0.7,3.2,0.7,5.2v10.8c0,3.6-0.8,6.3-2.5,7.9
		c-0.7,0.7-1.7,1.2-2.9,1.6c-1.3,0.4-2.6,0.6-4,0.8c-1.6,0.1-3.2,0.1-4.9,0.1C465.2,1178.3,463.2,1178.2,461.8,1178z M471.8,1174.4
		c0.8-0.1,1.6-0.3,2.4-0.7c0.8-0.3,1.3-0.9,1.6-1.7s0.5-1.9,0.5-3.3v-12.5c0-1.9-0.2-3.3-0.7-4.2c-0.5-0.9-1.3-1.4-2.4-1.7
		c-1.1-0.3-2.9-0.4-5.3-0.4c-2.4,0-4.2,0.1-5.3,0.4c-1.1,0.3-1.9,0.9-2.4,1.7c-0.5,0.9-0.7,2.3-0.7,4.2v12.5c0,1.4,0.2,2.5,0.5,3.3
		s0.9,1.4,1.6,1.7c0.8,0.4,1.6,0.6,2.4,0.7c0.8,0.1,2.1,0.1,3.9,0.1C469.7,1174.6,471,1174.5,471.8,1174.4z"/>
	<path class="st1" d="M490.7,1146.7h5.4v5.1c0-1,0.4-1.9,1.3-2.8c0.9-0.9,1.9-1.6,3.3-2.1c1.3-0.5,2.6-0.8,3.9-0.8h2.8v4.9h-3.2
		c-2.7,0-4.7,0.4-5.9,1.1c-1.2,0.7-1.8,2-1.8,3.8v21.8h-5.8V1146.7z"/>
</g>
<g>
	<path class="st1" d="M204.9,1073.6v-4.4c5,0.8,8.6,1.2,10.8,1.2c2.7,0,4.7-0.3,5.9-0.8c1.2-0.5,1.8-1.5,1.8-3v-3.1
		c0-1.3-0.4-2.3-1.3-2.8c-0.9-0.6-2.3-0.8-4.4-0.8h-3.5c-3.2,0-5.6-0.7-7.3-2c-1.7-1.3-2.5-3.2-2.5-5.6v-2.9c0-4.9,4.6-7.3,13.8-7.3
		c0.7,0,3.8,0.2,9.4,0.5v4.2c-3.8-0.6-7-0.9-9.7-0.9c-3,0-5.1,0.3-6.2,0.9c-1.1,0.6-1.7,1.6-1.7,3v2.6c0,2.1,1.9,3.1,5.7,3.1h3.6
		c6.5,0,9.8,2.4,9.8,7.3v2.7c0,3.2-1.1,5.5-3.3,6.8s-5.6,2-10.2,2C212.2,1074.3,208.7,1074.1,204.9,1073.6z"/>
	<path class="st1" d="M245,1073.5c-1.5-0.6-2.6-1.6-3.2-2.9s-1-3.3-1-5.9v-18.2h-6.9v-3.8h6.9v-9.6h5.8v9.6h11.1v3.8h-11.1v18.5
		c0,1.5,0.2,2.7,0.5,3.5c0.4,0.8,1,1.3,1.9,1.6s2.2,0.5,4,0.5c0.6,0,2.1-0.2,4.6-0.5v3.8c-2.2,0.3-4.3,0.5-6.5,0.5
		C248.6,1074.3,246.5,1074,245,1073.5z"/>
	<path class="st1" d="M271.8,1074c-1.4-0.2-2.7-0.6-4.1-1.2c-1.4-0.6-2.4-1.7-3.1-3.1s-1-3.4-1-5.8v-10.8c0-1.9,0.2-3.6,0.7-5.1
		c0.5-1.4,1.1-2.6,1.9-3.4c0.6-0.7,1.6-1.3,2.9-1.7s2.6-0.7,4-0.8c1.5-0.1,3.1-0.1,4.8-0.1c2.2,0,3.9,0.1,5,0.2
		c1.1,0.1,2.3,0.3,3.6,0.7c1.3,0.4,2.3,1,3.1,1.7c0.7,0.8,1.3,1.9,1.9,3.3c0.5,1.5,0.7,3.2,0.7,5.2v10.8c0,3.6-0.8,6.3-2.5,7.9
		c-0.7,0.7-1.7,1.2-2.9,1.6c-1.3,0.4-2.6,0.6-4,0.8c-1.6,0.1-3.2,0.1-4.9,0.1C275.2,1074.3,273.2,1074.2,271.8,1074z M281.9,1070.4
		c0.8-0.1,1.6-0.3,2.4-0.7c0.8-0.3,1.3-0.9,1.6-1.7s0.5-1.9,0.5-3.3v-12.5c0-1.9-0.2-3.3-0.7-4.2c-0.5-0.9-1.3-1.4-2.4-1.7
		c-1.1-0.3-2.9-0.4-5.3-0.4c-2.4,0-4.2,0.1-5.3,0.4c-1.1,0.3-1.9,0.9-2.4,1.7c-0.5,0.9-0.7,2.3-0.7,4.2v12.5c0,1.4,0.2,2.5,0.5,3.3
		s0.9,1.4,1.6,1.7c0.8,0.4,1.6,0.6,2.4,0.7c0.8,0.1,2.1,0.1,3.9,0.1C279.7,1070.6,281,1070.5,281.9,1070.4z"/>
	<path class="st1" d="M300.7,1042.7h5.4v5.1c0-1,0.4-1.9,1.3-2.8c0.9-0.9,1.9-1.6,3.3-2.1c1.3-0.5,2.6-0.8,3.9-0.8h2.8v4.9h-3.2
		c-2.7,0-4.7,0.4-5.9,1.1c-1.2,0.7-1.8,2-1.8,3.8v21.8h-5.8V1042.7z"/>
	<path class="st1" d="M323.2,1064.9v-12.2c0-3.8,1.1-6.5,3.2-8.1c2.2-1.6,5.6-2.5,10.5-2.5c4.6,0,7.9,0.8,9.9,2.4c2,1.6,3,4.3,3,8.2
		v6.8H329v4.7c0,2.1,0.7,3.7,2.2,4.6c1.5,0.9,3.8,1.4,6.9,1.4c2.9,0,6.4-0.5,10.4-1.5v4.4c-3.9,0.9-7.7,1.3-11.2,1.3
		C327.9,1074.3,323.2,1071.2,323.2,1064.9z M344,1055.7v-4.9c0-1.9-0.6-3.2-1.7-3.9c-1.1-0.7-3.1-1.1-5.8-1.1
		c-2.6,0-4.6,0.4-5.8,1.1c-1.2,0.7-1.8,2-1.8,3.9v4.9H344z"/>
</g>
<path class="st0" d="M476,127v20h-8v-20c0-2.2,1.8-4,4-4S476,124.8,476,127z"/>
<path class="st0" d="M464,127v20h-8v-20c0-2.2,1.8-4,4-4S464,124.8,464,127z"/>
<path class="st0" d="M444,87h16c0,4.4-3.6,8-8,8S444,91.4,444,87z"/>
<polygon class="st0" points="457.6,83 346.4,83 361.4,71 442.6,71 "/>
<path class="st0" d="M452,127v20h-8v-20c0-2.2,1.8-4,4-4S452,124.8,452,127z"/>
<path class="st0" d="M424,87h16c0,4.4-3.6,8-8,8S424,91.4,424,87z"/>
<path class="st1" d="M432,113v12c0,3.3-2.7,6-6,6h-12c-3.3,0-6-2.7-6-6v-12c0-3.3,2.7-6,6-6h12C429.3,107,432,109.7,432,113z
	 M428,125v-12c0-1.1-0.9-2-2-2h-12c-1.1,0-2,0.9-2,2v12c0,1.1,0.9,2,2,2h12C427.1,127,428,126.1,428,125z"/>
<path class="st0" d="M404,87h16c0,4.4-3.6,8-8,8S404,91.4,404,87z"/>
<path class="st0" d="M384,87h16c0,4.4-3.6,8-8,8S384,91.4,384,87z"/>
<path class="st0" d="M364,87h16c0,4.4-3.6,8-8,8S364,91.4,364,87z"/>
<path class="st0" d="M360,127v20h-8v-20c0-2.2,1.8-4,4-4S360,124.8,360,127z"/>
<path class="st0" d="M344,87h16c0,4.4-3.6,8-8,8S344,91.4,344,87z"/>
<path class="st0" d="M348,127v20h-8v-20c0-2.2,1.8-4,4-4S348,124.8,348,127z"/>
<path class="st0" d="M336,127v20h-8v-20c0-2.2,1.8-4,4-4S336,124.8,336,127z"/>
<path class="st4" d="M468,799v36H292v-36c0-2.2,1.8-4,4-4h168C466.2,795,468,796.8,468,799z M460,821v-12c0-3.3-2.7-6-6-6h-4
	c-3.3,0-6,2.7-6,6v12c0,3.3,2.7,6,6,6h4C457.3,827,460,824.3,460,821z M436,821v-12c0-3.3-2.7-6-6-6h-4c-3.3,0-6,2.7-6,6v12
	c0,3.3,2.7,6,6,6h4C433.3,827,436,824.3,436,821z M412,821v-12c0-3.3-2.7-6-6-6h-4c-3.3,0-6,2.7-6,6v12c0,3.3,2.7,6,6,6h4
	C409.3,827,412,824.3,412,821z M388,821v-12c0-3.3-2.7-6-6-6h-4c-3.3,0-6,2.7-6,6v12c0,3.3,2.7,6,6,6h4C385.3,827,388,824.3,388,821
	z M364,821v-12c0-3.3-2.7-6-6-6h-4c-3.3,0-6,2.7-6,6v12c0,3.3,2.7,6,6,6h4C361.3,827,364,824.3,364,821z M340,821v-12
	c0-3.3-2.7-6-6-6h-4c-3.3,0-6,2.7-6,6v12c0,3.3,2.7,6,6,6h4C337.3,827,340,824.3,340,821z M316,821v-12c0-3.3-2.7-6-6-6h-4
	c-3.3,0-6,2.7-6,6v12c0,3.3,2.7,6,6,6h4C313.3,827,316,824.3,316,821z"/>
<path class="st1" d="M460,809v12c0,3.3-2.7,6-6,6h-4c-3.3,0-6-2.7-6-6v-12c0-3.3,2.7-6,6-6h4C457.3,803,460,805.7,460,809z M456,821
	v-12c0-1.1-0.9-2-2-2h-4c-1.1,0-2,0.9-2,2v12c0,1.1,0.9,2,2,2h4C455.1,823,456,822.1,456,821z"/>
<path class="st1" d="M436,809v12c0,3.3-2.7,6-6,6h-4c-3.3,0-6-2.7-6-6v-12c0-3.3,2.7-6,6-6h4C433.3,803,436,805.7,436,809z M432,821
	v-12c0-1.1-0.9-2-2-2h-4c-1.1,0-2,0.9-2,2v12c0,1.1,0.9,2,2,2h4C431.1,823,432,822.1,432,821z"/>
<rect x="400" y="875" class="st4" width="32" height="8"/>
<rect x="400" y="863" class="st4" width="32" height="8"/>
<path class="st4" d="M432,855v4h-32v-4c0-2.2,1.8-4,4-4h24C430.2,851,432,852.8,432,855z"/>
<path class="st1" d="M412,809v12c0,3.3-2.7,6-6,6h-4c-3.3,0-6-2.7-6-6v-12c0-3.3,2.7-6,6-6h4C409.3,803,412,805.7,412,809z M408,821
	v-12c0-1.1-0.9-2-2-2h-4c-1.1,0-2,0.9-2,2v12c0,1.1,0.9,2,2,2h4C407.1,823,408,822.1,408,821z"/>
<path class="st1" d="M388,809v12c0,3.3-2.7,6-6,6h-4c-3.3,0-6-2.7-6-6v-12c0-3.3,2.7-6,6-6h4C385.3,803,388,805.7,388,809z M384,821
	v-12c0-1.1-0.9-2-2-2h-4c-1.1,0-2,0.9-2,2v12c0,1.1,0.9,2,2,2h4C383.1,823,384,822.1,384,821z"/>
<path class="st1" d="M364,809v12c0,3.3-2.7,6-6,6h-4c-3.3,0-6-2.7-6-6v-12c0-3.3,2.7-6,6-6h4C361.3,803,364,805.7,364,809z M360,821
	v-12c0-1.1-0.9-2-2-2h-4c-1.1,0-2,0.9-2,2v12c0,1.1,0.9,2,2,2h4C359.1,823,360,822.1,360,821z"/>
<rect x="328" y="875" class="st4" width="32" height="8"/>
<rect x="328" y="863" class="st4" width="32" height="8"/>
<path class="st4" d="M360,855v4h-32v-4c0-2.2,1.8-4,4-4h24C358.2,851,360,852.8,360,855z"/>
<path class="st1" d="M340,809v12c0,3.3-2.7,6-6,6h-4c-3.3,0-6-2.7-6-6v-12c0-3.3,2.7-6,6-6h4C337.3,803,340,805.7,340,809z M336,821
	v-12c0-1.1-0.9-2-2-2h-4c-1.1,0-2,0.9-2,2v12c0,1.1,0.9,2,2,2h4C335.1,823,336,822.1,336,821z"/>
<path class="st1" d="M316,809v12c0,3.3-2.7,6-6,6h-4c-3.3,0-6-2.7-6-6v-12c0-3.3,2.7-6,6-6h4C313.3,803,316,805.7,316,809z M312,821
	v-12c0-1.1-0.9-2-2-2h-4c-1.1,0-2,0.9-2,2v12c0,1.1,0.9,2,2,2h4C311.1,823,312,822.1,312,821z"/>
<rect x="200" y="735" class="st2" width="76" height="24"/>
<path class="st2" d="M276,603v8h-76v-8c0-2.2,1.8-4,4-4h68C274.2,599,276,600.8,276,603z"/>
<rect x="240" y="675" class="st2" width="16" height="16"/>
<rect x="220" y="695" class="st2" width="16" height="16"/>
<rect x="200" y="635" class="st2" width="16" height="16"/>
<rect x="124" y="735" class="st2" width="56" height="24"/>
<rect x="164" y="675" class="st2" width="16" height="16"/>
<path class="st2" d="M180,643v8h-56v-8c0-2.2,1.8-4,4-4h48C178.2,639,180,640.8,180,643z"/>
<rect x="144" y="715" class="st2" width="16" height="16"/>
<rect x="124" y="655" class="st2" width="16" height="16"/>
<g>
	<path class="st1" d="M628,459h-16c-4.4,0-8,3.6-8,8v20c0,4.4,3.6,8,8,8h22.5c0.3,0,0.5-0.2,0.5-0.5v-3c0-0.3-0.2-0.5-0.5-0.5H612
		c-2.2,0-4-1.8-4-4v-6h27.5c0.3,0,0.5-0.2,0.5-0.5V467C636,462.6,632.4,459,628,459z M632,476.5c0,0.3-0.2,0.5-0.5,0.5H608v-10
		c0-2.2,1.8-4,4-4h16c2.2,0,4,1.8,4,4V476.5z"/>
	<path class="st1" d="M588,459h-6c-3.6,0-6.8,1.6-9,4.1c-1.4-2.4-4-4.1-7-4.1h-6c-3.1,0-5.9,1.2-8,3.1v-2.6c0-0.3-0.2-0.5-0.5-0.5
		h-3c-0.3,0-0.5,0.2-0.5,0.5v35c0,0.3,0.2,0.5,0.5,0.5h3c0.3,0,0.5-0.2,0.5-0.5V471c0-4.4,3.6-8,8-8h6c2.2,0,4,1.8,4,4v27.5
		c0,0.3,0.2,0.5,0.5,0.5h3c0.3,0,0.5-0.2,0.5-0.5V471c0-4.4,3.6-8,8-8h6c2.2,0,4,1.8,4,4v27.5c0,0.3,0.2,0.5,0.5,0.5h3
		c0.3,0,0.5-0.2,0.5-0.5V467C596,462.6,592.4,459,588,459z"/>
	<path class="st1" d="M736,459h-12c-3.1,0-5.9,1.2-8,3.1v-14.6c0-0.3-0.2-0.5-0.5-0.5h-3c-0.3,0-0.5,0.2-0.5,0.5v47
		c0,0.3,0.2,0.5,0.5,0.5h3c0.3,0,0.5-0.2,0.5-0.5V471c0-4.4,3.6-8,8-8h12c2.2,0,4,1.8,4,4v27.5c0,0.3,0.2,0.5,0.5,0.5h3
		c0.3,0,0.5-0.2,0.5-0.5V467C744,462.6,740.4,459,736,459z"/>
	<path class="st1" d="M668,459h-12c-3.1,0-5.9,1.2-8,3.1v-2.6c0-0.3-0.2-0.5-0.5-0.5h-3c-0.3,0-0.5,0.2-0.5,0.5v35
		c0,0.3,0.2,0.5,0.5,0.5h3c0.3,0,0.5-0.2,0.5-0.5V471c0-4.4,3.6-8,8-8h12c2.2,0,4,1.8,4,4v27.5c0,0.3,0.2,0.5,0.5,0.5h3
		c0.3,0,0.5-0.2,0.5-0.5V467C676,462.6,672.4,459,668,459z"/>
	<path class="st1" d="M532,459h-16c-4.4,0-8,3.6-8,8v20c0,4.4,3.6,8,8,8h22.5c0.3,0,0.5-0.2,0.5-0.5v-3c0-0.3-0.2-0.5-0.5-0.5H516
		c-2.2,0-4-1.8-4-4v-6h27.5c0.3,0,0.5-0.2,0.5-0.5V467C540,462.6,536.4,459,532,459z M536,476.5c0,0.3-0.2,0.5-0.5,0.5H512v-10
		c0-2.2,1.8-4,4-4h16c2.2,0,4,1.8,4,4V476.5z"/>
	<path class="st1" d="M500,447.5c0-0.3-0.2-0.5-0.5-0.5h-3c-0.3,0-0.5,0.2-0.5,0.5v47c0,0.3,0.2,0.5,0.5,0.5h3
		c0.3,0,0.5-0.2,0.5-0.5V447.5z"/>
	<path class="st1" d="M705.5,491H694c-3.3,0-6-2.7-6-6v-22h16.5c0.3,0,0.5-0.2,0.5-0.5v-3c0-0.3-0.2-0.5-0.5-0.5H688v-7.5
		c0-0.3-0.2-0.5-0.5-0.5h-3c-0.3,0-0.5,0.2-0.5,0.5V485c0,5.5,4.5,10,10,10h11.5c0.3,0,0.5-0.2,0.5-0.5v-3
		C706,491.2,705.8,491,705.5,491z"/>
	<path class="st1" d="M472,457c2.8,0,5-2.2,5-5s-2.2-5-5-5s-5,2.2-5,5S469.2,457,472,457z M472,450c1.1,0,2,0.9,2,2s-0.9,2-2,2
		s-2-0.9-2-2S470.9,450,472,450z"/>
	<path class="st1" d="M480,459h-16c-4.4,0-8,3.6-8,8v20c0,4.4,3.6,8,8,8h22.5c0.3,0,0.5-0.2,0.5-0.5v-3c0-0.3-0.2-0.5-0.5-0.5H464
		c-2.2,0-4-1.8-4-4v-6h27.5c0.3,0,0.5-0.2,0.5-0.5V467C488,462.6,484.4,459,480,459z M484,476.5c0,0.3-0.2,0.5-0.5,0.5H460v-10
		c0-2.2,1.8-4,4-4h16c2.2,0,4,1.8,4,4V476.5z"/>
</g>
<ellipse transform="matrix(0.5 -0.866 0.866 0.5 -107.898 1119.1152)" class="st3" cx="915.2" cy="653" rx="12" ry="12"/>
<path class="st1" d="M915.2,645L915.2,645c1.4,0,2.8,0.4,4,1.1c1.9,1.1,3.2,2.8,3.7,4.9c0.6,2.1,0.3,4.2-0.8,6.1
	c-1.4,2.5-4.1,4-6.9,4c-1.4,0-2.8-0.4-4-1.1c-1.9-1.1-3.2-2.8-3.7-4.9c-0.6-2.1-0.3-4.2,0.8-6.1C909.7,646.5,912.4,645,915.2,645
	 M915.2,641c-4.1,0-8.2,2.2-10.4,6c-3.3,5.7-1.3,13.1,4.4,16.4c1.9,1.1,4,1.6,6,1.6c4.1,0,8.2-2.2,10.4-6c3.3-5.7,1.3-13.1-4.4-16.4
	C919.3,641.5,917.3,641,915.2,641L915.2,641z"/>
<ellipse transform="matrix(0.5 -0.866 0.866 0.5 -107.898 391.1152)" class="st2" cx="284.8" cy="289" rx="12" ry="12"/>
<path class="st1" d="M284.8,281L284.8,281c1.4,0,2.8,0.4,4,1.1c3.8,2.2,5.1,7.1,2.9,10.9c-1.4,2.5-4.1,4-6.9,4c-1.4,0-2.8-0.4-4-1.1
	c-3.8-2.2-5.1-7.1-2.9-10.9C279.3,282.5,281.9,281,284.8,281 M284.8,277c-4.1,0-8.2,2.2-10.4,6c-3.3,5.7-1.3,13.1,4.4,16.4
	c1.9,1.1,4,1.6,6,1.6c4.1,0,8.2-2.2,10.4-6c3.3-5.7,1.3-13.1-4.4-16.4C288.9,277.5,286.8,277,284.8,277L284.8,277z"/>
<ellipse transform="matrix(0.866 -0.5 0.5 0.866 -288.3485 496.3353)" class="st4" cx="782" cy="786.2" rx="12" ry="12"/>
<path class="st1" d="M782,778.2L782,778.2c2.9,0,5.5,1.5,6.9,4c2.2,3.8,0.9,8.7-2.9,10.9c-1.2,0.7-2.6,1.1-4,1.1
	c-2.9,0-5.5-1.5-6.9-4c-2.2-3.8-0.9-8.7,2.9-10.9C779.2,778.6,780.6,778.2,782,778.2 M782,774.2c-2,0-4.1,0.5-6,1.6
	c-5.7,3.3-7.7,10.7-4.4,16.4c2.2,3.8,6.3,6,10.4,6c2,0,4.1-0.5,6-1.6c5.7-3.3,7.7-10.7,4.4-16.4C790.2,776.4,786.1,774.2,782,774.2
	L782,774.2z"/>
<ellipse transform="matrix(0.866 -0.5 0.5 0.866 -21.882 229.8688)" class="st0" cx="418" cy="155.8" rx="12" ry="12"/>
<path class="st1" d="M418,147.8L418,147.8c2.9,0,5.5,1.5,6.9,4c1.1,1.9,1.4,4,0.8,6.1s-1.9,3.8-3.7,4.9c-1.2,0.7-2.6,1.1-4,1.1
	c-2.9,0-5.5-1.5-6.9-4c-1.1-1.9-1.4-4-0.8-6.1s1.9-3.8,3.7-4.9C415.2,148.1,416.6,147.8,418,147.8 M418,143.8c-2,0-4.1,0.5-6,1.6
	c-5.7,3.3-7.7,10.7-4.4,16.4c2.2,3.8,6.3,6,10.4,6c2,0,4.1-0.5,6-1.6c5.7-3.3,7.7-10.7,4.4-16.4C426.2,145.9,422.1,143.8,418,143.8
	L418,143.8z"/>
<circle class="st4" cx="600" cy="835" r="12"/>
<path class="st1" d="M600,827c4.4,0,8,3.6,8,8s-3.6,8-8,8s-8-3.6-8-8S595.6,827,600,827 M600,823c-6.6,0-12,5.4-12,12s5.4,12,12,12
	s12-5.4,12-12S606.6,823,600,823L600,823z"/>
<circle class="st0" cx="600" cy="107" r="12"/>
<path class="st1" d="M600,99c4.4,0,8,3.6,8,8s-3.6,8-8,8s-8-3.6-8-8S595.6,99,600,99 M600,95c-6.6,0-12,5.4-12,12s5.4,12,12,12
	s12-5.4,12-12S606.6,95,600,95L600,95z"/>
<ellipse transform="matrix(0.5 -0.866 0.866 0.5 -471.898 755.1152)" class="st4" cx="418" cy="786.2" rx="12" ry="12"/>
<path class="st1" d="M418,778.2L418,778.2c1.4,0,2.8,0.4,4,1.1c3.8,2.2,5.1,7.1,2.9,10.9c-1.4,2.5-4.1,4-6.9,4c-1.4,0-2.8-0.4-4-1.1
	c-3.8-2.2-5.1-7.1-2.9-10.9C412.5,779.8,415.2,778.2,418,778.2 M418,774.2c-4.1,0-8.2,2.2-10.4,6c-3.3,5.7-1.3,13.1,4.4,16.4
	c1.9,1.1,4,1.6,6,1.6c4.1,0,8.2-2.2,10.4-6c3.3-5.7,1.3-13.1-4.4-16.4C422.1,774.7,420,774.2,418,774.2L418,774.2z"/>
<ellipse transform="matrix(0.5 -0.866 0.866 0.5 256.102 755.1152)" class="st0" cx="782" cy="155.8" rx="12" ry="12"/>
<path class="st1" d="M782,147.8L782,147.8c1.4,0,2.8,0.4,4,1.1c3.8,2.2,5.1,7.1,2.9,10.9c-1.4,2.5-4.1,4-6.9,4c-1.4,0-2.8-0.4-4-1.1
	c-3.8-2.2-5.1-7.1-2.9-10.9C776.5,149.3,779.2,147.8,782,147.8 M782,143.8c-4.1,0-8.2,2.2-10.4,6c-3.3,5.7-1.3,13.1,4.4,16.4
	c1.9,1.1,4,1.6,6,1.6c4.1,0,8.2-2.2,10.4-6c3.3-5.7,1.3-13.1-4.4-16.4C786.1,144.3,784,143.8,782,143.8L782,143.8z"/>
<ellipse transform="matrix(0.866 -0.5 0.5 0.866 -288.3485 229.8688)" class="st2" cx="284.8" cy="653" rx="12" ry="12"/>
<path class="st1" d="M284.8,645L284.8,645c2.9,0,5.5,1.5,6.9,4c2.2,3.8,0.9,8.7-2.9,10.9c-1.2,0.7-2.6,1.1-4,1.1
	c-2.9,0-5.5-1.5-6.9-4c-2.2-3.8-0.9-8.7,2.9-10.9C282,645.4,283.4,645,284.8,645 M284.8,641c-2,0-4.1,0.5-6,1.6
	c-5.7,3.3-7.7,10.7-4.4,16.4c2.2,3.8,6.3,6,10.4,6c2,0,4.1-0.5,6-1.6c5.7-3.3,7.7-10.7,4.4-16.4C292.9,643.2,288.9,641,284.8,641
	L284.8,641z"/>
<ellipse transform="matrix(0.866 -0.5 0.5 0.866 -21.882 496.3353)" class="st3" cx="915.2" cy="289" rx="12" ry="12"/>
<path class="st1" d="M915.2,281L915.2,281c2.9,0,5.5,1.5,6.9,4c1.1,1.9,1.4,4,0.8,6.1c-0.6,2.1-1.9,3.8-3.7,4.9
	c-1.2,0.7-2.6,1.1-4,1.1c-2.9,0-5.5-1.5-6.9-4c-1.1-1.9-1.4-4-0.8-6.1c0.6-2.1,1.9-3.8,3.7-4.9C912.4,281.4,913.8,281,915.2,281
	 M915.2,277c-2,0-4.1,0.5-6,1.6c-5.7,3.3-7.7,10.7-4.4,16.4c2.2,3.8,6.3,6,10.4,6c2,0,4.1-0.5,6-1.6c5.7-3.3,7.7-10.7,4.4-16.4
	C923.4,279.2,919.4,277,915.2,277L915.2,277z"/>
<circle class="st2" cx="240" cy="471" r="12"/>
<path class="st1" d="M240,463c4.4,0,8,3.6,8,8s-3.6,8-8,8s-8-3.6-8-8S235.6,463,240,463 M240,459c-6.6,0-12,5.4-12,12s5.4,12,12,12
	s12-5.4,12-12S246.6,459,240,459L240,459z"/>
<ellipse transform="matrix(0.5 -0.866 0.866 0.5 -107.898 515.1152)" class="st2" cx="392.2" cy="351" rx="12" ry="12"/>
<path class="st1" d="M392.2,343L392.2,343c1.4,0,2.8,0.4,4,1.1c3.8,2.2,5.1,7.1,2.9,10.9c-1.4,2.5-4.1,4-6.9,4c-1.4,0-2.8-0.4-4-1.1
	c-3.8-2.2-5.1-7.1-2.9-10.9C386.7,344.5,389.3,343,392.2,343 M392.2,339c-4.1,0-8.2,2.2-10.4,6c-3.3,5.7-1.3,13.1,4.4,16.4
	c1.9,1.1,4,1.6,6,1.6c4.1,0,8.2-2.2,10.4-6c3.3-5.7,1.3-13.1-4.4-16.4C396.3,339.5,394.2,339,392.2,339L392.2,339z"/>
<circle class="st3" cx="968" cy="471" r="12"/>
<path class="st1" d="M968,463c4.4,0,8,3.6,8,8s-3.6,8-8,8s-8-3.6-8-8S963.6,463,968,463 M968,459c-6.6,0-12,5.4-12,12s5.4,12,12,12
	s12-5.4,12-12S974.6,459,968,459L968,459z"/>
<ellipse transform="matrix(0.5 -0.866 0.866 0.5 -107.898 995.1152)" class="st3" cx="807.8" cy="591" rx="12" ry="12"/>
<path class="st1" d="M807.9,583L807.9,583c1.4,0,2.8,0.4,4,1.1c1.9,1.1,3.2,2.8,3.7,4.9c0.6,2.1,0.3,4.2-0.8,6.1
	c-1.4,2.5-4.1,4-6.9,4c-1.4,0-2.8-0.4-4-1.1c-1.9-1.1-3.2-2.8-3.7-4.9c-0.6-2.1-0.3-4.2,0.8-6.1C802.3,584.5,805,583,807.9,583
	 M807.9,579c-4.1,0-8.2,2.2-10.4,6c-3.3,5.7-1.3,13.1,4.4,16.4c1.9,1.1,4,1.6,6,1.6c4.1,0,8.2-2.2,10.4-6c3.3-5.7,1.3-13.1-4.4-16.4
	C812,579.5,809.9,579,807.9,579L807.9,579z"/>
<ellipse transform="matrix(0.866 -0.5 0.5 0.866 -67.2691 275.256)" class="st0" cx="480" cy="263.2" rx="12" ry="12"/>
<path class="st1" d="M480,255.2L480,255.2c2.9,0,5.5,1.5,6.9,4c1.1,1.9,1.4,4,0.8,6.1c-0.6,2.1-1.9,3.8-3.7,4.9
	c-1.2,0.7-2.6,1.1-4,1.1c-2.9,0-5.5-1.5-6.9-4c-2.2-3.8-0.9-8.7,2.9-10.9C477.2,255.5,478.6,255.2,480,255.2 M480,251.2
	c-2,0-4.1,0.5-6,1.6c-5.7,3.3-7.7,10.7-4.4,16.4c2.2,3.8,6.3,6,10.4,6c2,0,4.1-0.5,6-1.6c5.7-3.3,7.7-10.7,4.4-16.4
	C488.2,253.3,484.1,251.2,480,251.2L480,251.2z"/>
<ellipse transform="matrix(0.866 -0.5 0.5 0.866 -242.9613 450.9481)" class="st4" cx="720" cy="678.8" rx="12" ry="12"/>
<path class="st1" d="M720,670.8L720,670.8c2.9,0,5.5,1.5,6.9,4c2.2,3.8,0.9,8.7-2.9,10.9c-1.2,0.7-2.6,1.1-4,1.1
	c-2.9,0-5.5-1.5-6.9-4c-2.2-3.8-0.9-8.7,2.9-10.9C717.2,671.2,718.6,670.8,720,670.8 M720,666.8c-2,0-4.1,0.5-6,1.6
	c-5.7,3.3-7.7,10.7-4.4,16.4c2.2,3.8,6.3,6,10.4,6c2,0,4.1-0.5,6-1.6c5.7-3.3,7.7-10.7,4.4-16.4C728.2,669,724.1,666.8,720,666.8
	L720,666.8z"/>
<circle class="st0" cx="600" cy="231" r="12"/>
<path class="st1" d="M600,223c4.4,0,8,3.6,8,8s-3.6,8-8,8s-8-3.6-8-8S595.6,223,600,223 M600,219c-6.6,0-12,5.4-12,12s5.4,12,12,12
	s12-5.4,12-12S606.6,219,600,219L600,219z"/>
<ellipse transform="matrix(0.5 -0.866 0.866 0.5 -347.898 755.1152)" class="st4" cx="480" cy="678.8" rx="12" ry="12"/>
<circle class="st4" cx="600" cy="711" r="12"/>
<path class="st1" d="M600,703c4.4,0,8,3.6,8,8s-3.6,8-8,8s-8-3.6-8-8S595.6,703,600,703 M600,699c-6.6,0-12,5.4-12,12s5.4,12,12,12
	s12-5.4,12-12S606.6,699,600,699L600,699z"/>
<path class="st1" d="M480,670.8L480,670.8c1.4,0,2.8,0.4,4,1.1c3.8,2.2,5.1,7.1,2.9,10.9c-1.4,2.5-4.1,4-6.9,4c-1.4,0-2.8-0.4-4-1.1
	c-3.8-2.2-5.1-7.1-2.9-10.9C474.5,672.4,477.2,670.8,480,670.8 M480,666.8c-4.1,0-8.2,2.2-10.4,6c-3.3,5.7-1.3,13.1,4.4,16.4
	c1.9,1.1,4,1.6,6,1.6c4.1,0,8.2-2.2,10.4-6c3.3-5.7,1.3-13.1-4.4-16.4C484.1,667.4,482,666.8,480,666.8L480,666.8z"/>
<ellipse transform="matrix(0.5 -0.866 0.866 0.5 132.102 755.1152)" class="st0" cx="720" cy="263.2" rx="12" ry="12"/>
<path class="st1" d="M720,255.2L720,255.2c1.4,0,2.8,0.4,4,1.1c3.8,2.2,5.1,7.1,2.9,10.9c-1.4,2.5-4.1,4-6.9,4c-1.4,0-2.8-0.4-4-1.1
	c-3.8-2.2-5.1-7.1-2.9-10.9C714.5,256.7,717.2,255.2,720,255.2 M720,251.2c-4.1,0-8.2,2.2-10.4,6c-3.3,5.7-1.3,13.1,4.4,16.4
	c1.9,1.1,4,1.6,6,1.6c4.1,0,8.2-2.2,10.4-6c3.3-5.7,1.3-13.1-4.4-16.4C724.1,251.7,722,251.2,720,251.2L720,251.2z"/>
<path class="st1" d="M392.1,583L392.1,583c2.9,0,5.5,1.5,6.9,4c2.2,3.8,0.9,8.7-2.9,10.9c-1.2,0.7-2.6,1.1-4,1.1
	c-2.9,0-5.5-1.5-6.9-4c-2.2-3.8-0.9-8.7,2.9-10.9C389.4,583.4,390.8,583,392.1,583 M392.1,579c-2,0-4.1,0.5-6,1.6
	c-5.7,3.3-7.7,10.7-4.4,16.4c2.2,3.8,6.3,6,10.4,6c2,0,4.1-0.5,6-1.6c5.7-3.3,7.7-10.7,4.4-16.4C400.3,581.2,396.3,579,392.1,579
	L392.1,579z"/>
<ellipse transform="matrix(0.866 -0.5 0.5 0.866 -67.2691 450.9481)" class="st3" cx="807.8" cy="351" rx="12" ry="12"/>
<path class="st1" d="M807.8,343L807.8,343c2.9,0,5.5,1.5,6.9,4c1.1,1.9,1.4,4,0.8,6.1c-0.6,2.1-1.9,3.8-3.7,4.9
	c-1.2,0.7-2.6,1.1-4,1.1c-2.9,0-5.5-1.5-6.9-4c-1.1-1.9-1.4-4-0.8-6.1c0.6-2.1,1.9-3.8,3.7-4.9C805.1,343.4,806.4,343,807.8,343
	 M807.8,339c-2,0-4.1,0.5-6,1.6c-5.7,3.3-7.7,10.7-4.4,16.4c2.2,3.8,6.3,6,10.4,6c2,0,4.1-0.5,6-1.6c5.7-3.3,7.7-10.7,4.4-16.4
	C816,341.2,812,339,807.8,339L807.8,339z"/>
<circle class="st2" cx="360" cy="471" r="12"/>
<path class="st1" d="M360,463c4.4,0,8,3.6,8,8s-3.6,8-8,8s-8-3.6-8-8S355.6,463,360,463 M360,459c-6.6,0-12,5.4-12,12s5.4,12,12,12
	s12-5.4,12-12S366.6,459,360,459L360,459z"/>
<circle class="st3" cx="840" cy="471" r="12"/>
<path class="st1" d="M840,463c4.4,0,8,3.6,8,8s-3.6,8-8,8s-8-3.6-8-8S835.6,463,840,463 M840,459c-6.6,0-12,5.4-12,12s5.4,12,12,12
	s12-5.4,12-12S846.6,459,840,459L840,459z"/>
<circle class="st3" cx="628" cy="1164.9" r="24"/>
<path class="st1" d="M628,1144.9c11,0,20,9,20,20s-9,20-20,20s-20-9-20-20S617,1144.9,628,1144.9 M628,1140.9c-13.3,0-24,10.7-24,24
	s10.7,24,24,24s24-10.7,24-24S641.3,1140.9,628,1140.9L628,1140.9z"/>
<circle class="st2" cx="628" cy="1060.9" r="24"/>
<path class="st1" d="M628,1040.9c11,0,20,9,20,20s-9,20-20,20s-20-9-20-20S617,1040.9,628,1040.9 M628,1036.9c-13.3,0-24,10.7-24,24
	s10.7,24,24,24s24-10.7,24-24S641.3,1036.9,628,1036.9L628,1036.9z"/>
<circle class="st4" cx="144" cy="1164.9" r="24"/>
<path class="st1" d="M144,1144.9c11,0,20,9,20,20s-9,20-20,20s-20-9-20-20S133,1144.9,144,1144.9 M144,1140.9c-13.3,0-24,10.7-24,24
	s10.7,24,24,24s24-10.7,24-24S157.3,1140.9,144,1140.9L144,1140.9z"/>
<circle class="st0" cx="144" cy="1060.9" r="24"/>
<path class="st1" d="M144,1040.9c11,0,20,9,20,20s-9,20-20,20s-20-9-20-20S133,1040.9,144,1040.9 M144,1036.9c-13.3,0-24,10.7-24,24
	s10.7,24,24,24s24-10.7,24-24S157.3,1036.9,144,1036.9L144,1036.9z"/>
<g>
	<path class="st1" d="M687.8,1073.6v-4.4c5,0.8,8.6,1.2,10.8,1.2c2.7,0,4.7-0.3,5.9-0.8c1.2-0.5,1.8-1.5,1.8-3v-3.1
		c0-1.3-0.4-2.3-1.3-2.8c-0.9-0.6-2.3-0.8-4.4-0.8h-3.5c-3.2,0-5.6-0.7-7.3-2c-1.7-1.3-2.5-3.2-2.5-5.6v-2.9c0-4.9,4.6-7.3,13.8-7.3
		c0.7,0,3.8,0.2,9.4,0.5v4.2c-3.8-0.6-7-0.9-9.7-0.9c-3,0-5.1,0.3-6.2,0.9c-1.1,0.6-1.7,1.6-1.7,3v2.6c0,2.1,1.9,3.1,5.7,3.1h3.6
		c6.5,0,9.8,2.4,9.8,7.3v2.7c0,3.2-1.1,5.5-3.3,6.8c-2.2,1.3-5.6,2-10.2,2C695.2,1074.3,691.6,1074.1,687.8,1073.6z"/>
	<path class="st1" d="M718.1,1064.9v-12.2c0-3.8,1.1-6.5,3.2-8.1c2.2-1.6,5.6-2.5,10.5-2.5c4.6,0,7.9,0.8,9.9,2.4c2,1.6,3,4.3,3,8.2
		v6.8h-20.8v4.7c0,2.1,0.7,3.7,2.2,4.6c1.5,0.9,3.8,1.4,6.9,1.4c2.9,0,6.4-0.5,10.4-1.5v4.4c-3.9,0.9-7.7,1.3-11.2,1.3
		C722.8,1074.3,718.1,1071.2,718.1,1064.9z M738.9,1055.7v-4.9c0-1.9-0.6-3.2-1.7-3.9s-3.1-1.1-5.8-1.1c-2.6,0-4.6,0.4-5.8,1.1
		c-1.2,0.7-1.8,2-1.8,3.9v4.9H738.9z"/>
	<path class="st1" d="M751.7,1042.7h5.4v5.1c0-1,0.4-1.9,1.3-2.8c0.9-0.9,1.9-1.6,3.3-2.1c1.3-0.5,2.6-0.8,3.9-0.8h2.8v4.9h-3.2
		c-2.7,0-4.7,0.4-5.9,1.1c-1.2,0.7-1.8,2-1.8,3.8v21.8h-5.8V1042.7z"/>
	<path class="st1" d="M772,1042.7h6.1l8.6,26h0.3l8.3-26h5.6l-10.8,31h-6.9L772,1042.7z"/>
	<path class="st1" d="M806.3,1031.5h5.8v6h-5.8V1031.5z M806.3,1042.7h5.8v31h-5.8V1042.7z"/>
	<path class="st1" d="M828.4,1074.2c-1-0.1-2.1-0.3-3.3-0.6c-1.3-0.3-2.3-0.9-3.1-1.5c-0.7-0.7-1.3-1.7-1.9-3
		c-0.5-1.3-0.8-2.9-0.8-4.8v-11.4c0-3.5,0.7-5.9,2-7.4c0.7-0.9,1.5-1.5,2.2-2c0.7-0.4,1.7-0.8,2.9-0.9c1.2-0.2,2.3-0.3,3.2-0.4
		c0.9-0.1,2.3-0.1,4-0.1c2.9,0,5.9,0.3,8.8,1v4.2c-3.4-0.9-6.6-1.3-9.5-1.3c-2.2,0-3.9,0.2-4.9,0.5c-1,0.3-1.8,0.9-2.2,1.7
		c-0.4,0.8-0.6,2.1-0.6,3.8v12.7c0,1.6,0.2,2.8,0.7,3.5c0.4,0.8,1.3,1.3,2.4,1.6c1.2,0.3,2.9,0.5,5.2,0.5c3.1,0,6.2-0.4,9.3-1.2v4.4
		c-2.9,0.6-6.2,0.9-9.9,0.9C830.9,1074.3,829.4,1074.3,828.4,1074.2z"/>
	<path class="st1" d="M848.6,1064.9v-12.2c0-3.8,1.1-6.5,3.2-8.1c2.2-1.6,5.6-2.5,10.5-2.5c4.6,0,7.9,0.8,9.9,2.4c2,1.6,3,4.3,3,8.2
		v6.8h-20.8v4.7c0,2.1,0.7,3.7,2.2,4.6s3.8,1.4,6.9,1.4c2.9,0,6.4-0.5,10.4-1.5v4.4c-3.9,0.9-7.7,1.3-11.2,1.3
		C853.3,1074.3,848.6,1071.2,848.6,1064.9z M869.4,1055.7v-4.9c0-1.9-0.6-3.2-1.7-3.9c-1.1-0.7-3.1-1.1-5.8-1.1
		c-2.6,0-4.6,0.4-5.8,1.1s-1.8,2-1.8,3.9v4.9H869.4z"/>
	<path class="st1" d="M898.7,1042.7h5.7v3.3h0.1c0.5-2.6,4-4,10.6-4c3.9,0,6.9,0.8,8.9,2.5c2,1.6,3,3.7,3,6.3v12.7
		c0,1.8-0.3,3.4-0.8,4.8c-0.5,1.4-1.2,2.4-2.1,3.2c-0.8,0.7-1.8,1.3-3.2,1.7s-2.7,0.7-4,0.8c-1.2,0.1-2.6,0.2-4.4,0.2
		c-1.9,0-3.6-0.2-5.2-0.7c-1.6-0.4-2.5-1.1-2.9-2v15.3h-5.8V1042.7z M917.7,1069.9c1.2-0.3,2-0.9,2.5-1.8c0.5-0.9,0.8-2.2,0.8-3.9
		v-11.4c0-1.9-0.3-3.3-0.8-4.3c-0.5-0.9-1.4-1.6-2.5-1.9c-1.2-0.3-2.9-0.5-5.2-0.5s-3.9,0.2-5.1,0.5c-1.1,0.3-1.9,0.9-2.4,1.9
		c-0.5,0.9-0.7,2.4-0.7,4.3v11.4c0,1.8,0.2,3.1,0.7,3.9c0.5,0.9,1.3,1.4,2.5,1.8s2.8,0.5,5,0.5
		C914.8,1070.4,916.5,1070.3,917.7,1069.9z"/>
	<path class="st1" d="M934.2,1042.7h5.4v5.1c0-1,0.4-1.9,1.3-2.8c0.9-0.9,1.9-1.6,3.3-2.1c1.3-0.5,2.6-0.8,3.9-0.8h2.8v4.9h-3.2
		c-2.7,0-4.7,0.4-5.9,1.1c-1.2,0.7-1.8,2-1.8,3.8v21.8h-5.8V1042.7z"/>
	<path class="st1" d="M963.8,1074c-1.4-0.2-2.7-0.6-4.1-1.2c-1.4-0.6-2.4-1.7-3.1-3.1c-0.6-1.4-1-3.4-1-5.8v-10.8
		c0-1.9,0.2-3.6,0.7-5.1c0.5-1.5,1.1-2.6,1.9-3.4c0.6-0.7,1.6-1.3,2.9-1.7c1.3-0.4,2.6-0.7,4-0.8c1.5-0.1,3.1-0.1,4.8-0.1
		c2.2,0,3.9,0.1,5,0.2c1.1,0.1,2.3,0.3,3.6,0.7c1.3,0.4,2.3,1,3.1,1.7c0.7,0.8,1.3,1.9,1.9,3.3c0.5,1.5,0.7,3.2,0.7,5.2v10.8
		c0,3.6-0.8,6.3-2.5,7.9c-0.7,0.7-1.7,1.2-2.9,1.6s-2.6,0.6-4,0.8c-1.6,0.1-3.2,0.1-4.9,0.1C967.2,1074.3,965.1,1074.2,963.8,1074z
		 M973.8,1070.4c0.8-0.1,1.6-0.3,2.4-0.7c0.8-0.3,1.3-0.9,1.6-1.7c0.3-0.8,0.5-1.9,0.5-3.3v-12.5c0-1.9-0.2-3.3-0.7-4.2
		c-0.5-0.9-1.3-1.5-2.4-1.7c-1.1-0.3-2.9-0.4-5.3-0.4s-4.1,0.1-5.3,0.4s-1.9,0.9-2.4,1.7c-0.5,0.9-0.7,2.3-0.7,4.2v12.5
		c0,1.4,0.2,2.5,0.5,3.3c0.3,0.8,0.9,1.4,1.6,1.7c0.8,0.4,1.6,0.6,2.4,0.7c0.8,0.1,2.1,0.1,3.9,0.1S973,1070.5,973.8,1070.4z"/>
	<path class="st1" d="M988.1,1042.7h6.1l8.6,26h0.3l8.3-26h5.6l-10.8,31h-6.9L988.1,1042.7z"/>
	<path class="st1" d="M1022.4,1031.5h5.8v6h-5.8V1031.5z M1022.4,1042.7h5.8v31h-5.8V1042.7z"/>
	<path class="st1" d="M1040.5,1073.4c-1.8-0.6-3-1.6-3.8-3c-0.8-1.4-1.2-3.4-1.2-5.9v-13.6c0-3.1,1-5.4,2.9-6.7c1.9-1.4,5.2-2,9.6-2
		c2.7,0,5,0.3,6.9,1c1.9,0.7,2.9,1.7,3,2.9h0.1l-0.1-7.9v-9.3h5.8v44.8h-5.6v-3.6c0,1.2-0.9,2.1-2.8,2.9c-1.8,0.9-4.4,1.3-7.6,1.3
		C1044.7,1074.3,1042.2,1074,1040.5,1073.4z M1055.9,1069.3c1.4-0.7,2.1-2,2.1-3.7v-15.3c0-2.8-2.8-4.2-8.5-4.2
		c-3.4,0-5.6,0.3-6.7,0.8c-1.1,0.5-1.6,1.6-1.6,3.4v15.3c0,1.8,0.6,3,1.8,3.7c1.2,0.7,3.2,1.1,6,1.1
		C1052.1,1070.4,1054.5,1070,1055.9,1069.3z"/>
	<path class="st1" d="M1070.8,1064.9v-12.2c0-3.8,1.1-6.5,3.2-8.1c2.2-1.6,5.6-2.5,10.5-2.5c4.6,0,7.9,0.8,9.9,2.4
		c2,1.6,3,4.3,3,8.2v6.8h-20.8v4.7c0,2.1,0.7,3.7,2.2,4.6c1.5,0.9,3.8,1.4,6.9,1.4c2.9,0,6.4-0.5,10.4-1.5v4.4
		c-3.9,0.9-7.7,1.3-11.2,1.3C1075.5,1074.3,1070.8,1071.2,1070.8,1064.9z M1091.6,1055.7v-4.9c0-1.9-0.6-3.2-1.7-3.9
		c-1.1-0.7-3.1-1.1-5.8-1.1c-2.6,0-4.6,0.4-5.8,1.1c-1.2,0.7-1.8,2-1.8,3.9v4.9H1091.6z"/>
	<path class="st1" d="M1104.4,1042.7h5.4v5.1c0-1,0.4-1.9,1.3-2.8c0.9-0.9,1.9-1.6,3.3-2.1c1.3-0.5,2.6-0.8,3.9-0.8h2.8v4.9h-3.2
		c-2.7,0-4.7,0.4-5.9,1.1s-1.8,2-1.8,3.8v21.8h-5.8V1042.7z"/>
</g>
<path class="st4" d="M688,859v36H512v-36c0-2.2,1.8-4,4-4h168C686.2,855,688,856.8,688,859z M680,881v-12c0-3.3-2.7-6-6-6h-4
	c-3.3,0-6,2.7-6,6v12c0,3.3,2.7,6,6,6h4C677.3,887,680,884.3,680,881z M656,881v-12c0-3.3-2.7-6-6-6h-4c-3.3,0-6,2.7-6,6v12
	c0,3.3,2.7,6,6,6h4C653.3,887,656,884.3,656,881z M632,881v-12c0-3.3-2.7-6-6-6h-4c-3.3,0-6,2.7-6,6v12c0,3.3,2.7,6,6,6h4
	C629.3,887,632,884.3,632,881z M608,881v-12c0-3.3-2.7-6-6-6h-4c-3.3,0-6,2.7-6,6v12c0,3.3,2.7,6,6,6h4C605.3,887,608,884.3,608,881
	z M584,881v-12c0-3.3-2.7-6-6-6h-4c-3.3,0-6,2.7-6,6v12c0,3.3,2.7,6,6,6h4C581.3,887,584,884.3,584,881z M560,881v-12
	c0-3.3-2.7-6-6-6h-4c-3.3,0-6,2.7-6,6v12c0,3.3,2.7,6,6,6h4C557.3,887,560,884.3,560,881z M536,881v-12c0-3.3-2.7-6-6-6h-4
	c-3.3,0-6,2.7-6,6v12c0,3.3,2.7,6,6,6h4C533.3,887,536,884.3,536,881z"/>
<path class="st1" d="M680,869v12c0,3.3-2.7,6-6,6h-4c-3.3,0-6-2.7-6-6v-12c0-3.3,2.7-6,6-6h4C677.3,863,680,865.7,680,869z M676,881
	v-12c0-1.1-0.9-2-2-2h-4c-1.1,0-2,0.9-2,2v12c0,1.1,0.9,2,2,2h4C675.1,883,676,882.1,676,881z"/>
<path class="st1" d="M656,869v12c0,3.3-2.7,6-6,6h-4c-3.3,0-6-2.7-6-6v-12c0-3.3,2.7-6,6-6h4C653.3,863,656,865.7,656,869z M652,881
	v-12c0-1.1-0.9-2-2-2h-4c-1.1,0-2,0.9-2,2v12c0,1.1,0.9,2,2,2h4C651.1,883,652,882.1,652,881z"/>
<rect x="620" y="935" class="st4" width="32" height="8"/>
<rect x="620" y="923" class="st4" width="32" height="8"/>
<path class="st4" d="M652,915v4h-32v-4c0-2.2,1.8-4,4-4h24C650.2,911,652,912.8,652,915z"/>
<path class="st1" d="M632,869v12c0,3.3-2.7,6-6,6h-4c-3.3,0-6-2.7-6-6v-12c0-3.3,2.7-6,6-6h4C629.3,863,632,865.7,632,869z M628,881
	v-12c0-1.1-0.9-2-2-2h-4c-1.1,0-2,0.9-2,2v12c0,1.1,0.9,2,2,2h4C627.1,883,628,882.1,628,881z"/>
<path class="st1" d="M608,869v12c0,3.3-2.7,6-6,6h-4c-3.3,0-6-2.7-6-6v-12c0-3.3,2.7-6,6-6h4C605.3,863,608,865.7,608,869z M604,881
	v-12c0-1.1-0.9-2-2-2h-4c-1.1,0-2,0.9-2,2v12c0,1.1,0.9,2,2,2h4C603.1,883,604,882.1,604,881z"/>
<path class="st1" d="M584,869v12c0,3.3-2.7,6-6,6h-4c-3.3,0-6-2.7-6-6v-12c0-3.3,2.7-6,6-6h4C581.3,863,584,865.7,584,869z M580,881
	v-12c0-1.1-0.9-2-2-2h-4c-1.1,0-2,0.9-2,2v12c0,1.1,0.9,2,2,2h4C579.1,883,580,882.1,580,881z"/>
<rect x="548" y="935" class="st4" width="32" height="8"/>
<rect x="548" y="923" class="st4" width="32" height="8"/>
<path class="st4" d="M580,915v4h-32v-4c0-2.2,1.8-4,4-4h24C578.2,911,580,912.8,580,915z"/>
<path class="st1" d="M560,869v12c0,3.3-2.7,6-6,6h-4c-3.3,0-6-2.7-6-6v-12c0-3.3,2.7-6,6-6h4C557.3,863,560,865.7,560,869z M556,881
	v-12c0-1.1-0.9-2-2-2h-4c-1.1,0-2,0.9-2,2v12c0,1.1,0.9,2,2,2h4C555.1,883,556,882.1,556,881z"/>
<path class="st1" d="M536,869v12c0,3.3-2.7,6-6,6h-4c-3.3,0-6-2.7-6-6v-12c0-3.3,2.7-6,6-6h4C533.3,863,536,865.7,536,869z M532,881
	v-12c0-1.1-0.9-2-2-2h-4c-1.1,0-2,0.9-2,2v12c0,1.1,0.9,2,2,2h4C531.1,883,532,882.1,532,881z"/>
<path class="st4" d="M908,799v36H732v-36c0-2.2,1.8-4,4-4h168C906.2,795,908,796.8,908,799z M900,821v-12c0-3.3-2.7-6-6-6h-4
	c-3.3,0-6,2.7-6,6v12c0,3.3,2.7,6,6,6h4C897.3,827,900,824.3,900,821z M876,821v-12c0-3.3-2.7-6-6-6h-4c-3.3,0-6,2.7-6,6v12
	c0,3.3,2.7,6,6,6h4C873.3,827,876,824.3,876,821z M852,821v-12c0-3.3-2.7-6-6-6h-4c-3.3,0-6,2.7-6,6v12c0,3.3,2.7,6,6,6h4
	C849.3,827,852,824.3,852,821z M828,821v-12c0-3.3-2.7-6-6-6h-4c-3.3,0-6,2.7-6,6v12c0,3.3,2.7,6,6,6h4C825.3,827,828,824.3,828,821
	z M804,821v-12c0-3.3-2.7-6-6-6h-4c-3.3,0-6,2.7-6,6v12c0,3.3,2.7,6,6,6h4C801.3,827,804,824.3,804,821z M780,821v-12
	c0-3.3-2.7-6-6-6h-4c-3.3,0-6,2.7-6,6v12c0,3.3,2.7,6,6,6h4C777.3,827,780,824.3,780,821z M756,821v-12c0-3.3-2.7-6-6-6h-4
	c-3.3,0-6,2.7-6,6v12c0,3.3,2.7,6,6,6h4C753.3,827,756,824.3,756,821z"/>
<path class="st1" d="M900,809v12c0,3.3-2.7,6-6,6h-4c-3.3,0-6-2.7-6-6v-12c0-3.3,2.7-6,6-6h4C897.3,803,900,805.7,900,809z M896,821
	v-12c0-1.1-0.9-2-2-2h-4c-1.1,0-2,0.9-2,2v12c0,1.1,0.9,2,2,2h4C895.1,823,896,822.1,896,821z"/>
<path class="st1" d="M876,809v12c0,3.3-2.7,6-6,6h-4c-3.3,0-6-2.7-6-6v-12c0-3.3,2.7-6,6-6h4C873.3,803,876,805.7,876,809z M872,821
	v-12c0-1.1-0.9-2-2-2h-4c-1.1,0-2,0.9-2,2v12c0,1.1,0.9,2,2,2h4C871.1,823,872,822.1,872,821z"/>
<rect x="840" y="875" class="st4" width="32" height="8"/>
<rect x="840" y="863" class="st4" width="32" height="8"/>
<path class="st4" d="M872,855v4h-32v-4c0-2.2,1.8-4,4-4h24C870.2,851,872,852.8,872,855z"/>
<path class="st1" d="M852,809v12c0,3.3-2.7,6-6,6h-4c-3.3,0-6-2.7-6-6v-12c0-3.3,2.7-6,6-6h4C849.3,803,852,805.7,852,809z M848,821
	v-12c0-1.1-0.9-2-2-2h-4c-1.1,0-2,0.9-2,2v12c0,1.1,0.9,2,2,2h4C847.1,823,848,822.1,848,821z"/>
<path class="st1" d="M828,809v12c0,3.3-2.7,6-6,6h-4c-3.3,0-6-2.7-6-6v-12c0-3.3,2.7-6,6-6h4C825.3,803,828,805.7,828,809z M824,821
	v-12c0-1.1-0.9-2-2-2h-4c-1.1,0-2,0.9-2,2v12c0,1.1,0.9,2,2,2h4C823.1,823,824,822.1,824,821z"/>
<path class="st1" d="M804,809v12c0,3.3-2.7,6-6,6h-4c-3.3,0-6-2.7-6-6v-12c0-3.3,2.7-6,6-6h4C801.3,803,804,805.7,804,809z M800,821
	v-12c0-1.1-0.9-2-2-2h-4c-1.1,0-2,0.9-2,2v12c0,1.1,0.9,2,2,2h4C799.1,823,800,822.1,800,821z"/>
<rect x="768" y="875" class="st4" width="32" height="8"/>
<rect x="768" y="863" class="st4" width="32" height="8"/>
<path class="st4" d="M800,855v4h-32v-4c0-2.2,1.8-4,4-4h24C798.2,851,800,852.8,800,855z"/>
<path class="st1" d="M780,809v12c0,3.3-2.7,6-6,6h-4c-3.3,0-6-2.7-6-6v-12c0-3.3,2.7-6,6-6h4C777.3,803,780,805.7,780,809z M776,821
	v-12c0-1.1-0.9-2-2-2h-4c-1.1,0-2,0.9-2,2v12c0,1.1,0.9,2,2,2h4C775.1,823,776,822.1,776,821z"/>
<path class="st1" d="M756,809v12c0,3.3-2.7,6-6,6h-4c-3.3,0-6-2.7-6-6v-12c0-3.3,2.7-6,6-6h4C753.3,803,756,805.7,756,809z M752,821
	v-12c0-1.1-0.9-2-2-2h-4c-1.1,0-2,0.9-2,2v12c0,1.1,0.9,2,2,2h4C751.1,823,752,822.1,752,821z"/>
<rect x="160" y="527" class="st2" width="76" height="24"/>
<path class="st2" d="M236,395v8h-76v-8c0-2.2,1.8-4,4-4h68C234.2,391,236,392.8,236,395z"/>
<rect x="200" y="467" class="st2" width="16" height="16"/>
<rect x="180" y="487" class="st2" width="16" height="16"/>
<rect x="160" y="427" class="st2" width="16" height="16"/>
<rect x="84" y="527" class="st2" width="56" height="24"/>
<rect x="124" y="467" class="st2" width="16" height="16"/>
<path class="st2" d="M140,435v8H84v-8c0-2.2,1.8-4,4-4h48C138.2,431,140,432.8,140,435z"/>
<rect x="104" y="507" class="st2" width="16" height="16"/>
<rect x="84" y="447" class="st2" width="16" height="16"/>
<path class="st0" d="M672,83v20h-8V83c0-2.2,1.8-4,4-4S672,80.8,672,83z"/>
<path class="st0" d="M660,83v20h-8V83c0-2.2,1.8-4,4-4S660,80.8,660,83z"/>
<path class="st0" d="M640,43h16c0,4.4-3.6,8-8,8S640,47.4,640,43z"/>
<polygon class="st0" points="653.6,39 542.4,39 557.4,27 638.6,27 "/>
<path class="st0" d="M648,83v20h-8V83c0-2.2,1.8-4,4-4S648,80.8,648,83z"/>
<path class="st0" d="M620,43h16c0,4.4-3.6,8-8,8S620,47.4,620,43z"/>
<path class="st1" d="M628,69v12c0,3.3-2.7,6-6,6h-12c-3.3,0-6-2.7-6-6V69c0-3.3,2.7-6,6-6h12C625.3,63,628,65.7,628,69z M624,81V69
	c0-1.1-0.9-2-2-2h-12c-1.1,0-2,0.9-2,2v12c0,1.1,0.9,2,2,2h12C623.1,83,624,82.1,624,81z"/>
<path class="st0" d="M600,43h16c0,4.4-3.6,8-8,8S600,47.4,600,43z"/>
<path class="st0" d="M580,43h16c0,4.4-3.6,8-8,8S580,47.4,580,43z"/>
<path class="st0" d="M560,43h16c0,4.4-3.6,8-8,8S560,47.4,560,43z"/>
<path class="st0" d="M556,83v20h-8V83c0-2.2,1.8-4,4-4S556,80.8,556,83z"/>
<path class="st0" d="M540,43h16c0,4.4-3.6,8-8,8S540,47.4,540,43z"/>
<path class="st0" d="M544,83v20h-8V83c0-2.2,1.8-4,4-4S544,80.8,544,83z"/>
<path class="st0" d="M532,83v20h-8V83c0-2.2,1.8-4,4-4S532,80.8,532,83z"/>
<path class="st3" d="M1112,511c2.2,0,4,1.8,4,4s-1.8,4-4,4s-4-1.8-4-4S1109.8,511,1112,511z"/>
<path class="st3" d="M1038.9,511h66.2c-0.7,1.2-1.1,2.5-1.1,4s0.4,2.8,1.1,4h-66.2c0.7-1.2,1.1-2.5,1.1-4S1039.6,512.2,1038.9,511z"
	/>
<path class="st1" d="M1084,481v12c0,3.3-2.7,6-6,6h-4c-3.3,0-6-2.7-6-6v-12c0-3.3,2.7-6,6-6h4C1081.3,475,1084,477.7,1084,481z
	 M1080,493v-12c0-1.1-0.9-2-2-2h-4c-1.1,0-2,0.9-2,2v12c0,1.1,0.9,2,2,2h4C1079.1,495,1080,494.1,1080,493z"/>
<path class="st3" d="M1080,481v12c0,1.1-0.9,2-2,2h-4c-1.1,0-2-0.9-2-2v-12c0-1.1,0.9-2,2-2h4C1079.1,479,1080,479.9,1080,481z"/>
<path class="st1" d="M1056,481v12c0,3.3-2.7,6-6,6h-4c-3.3,0-6-2.7-6-6v-12c0-3.3,2.7-6,6-6h4C1053.3,475,1056,477.7,1056,481z
	 M1052,493v-12c0-1.1-0.9-2-2-2h-4c-1.1,0-2,0.9-2,2v12c0,1.1,0.9,2,2,2h4C1051.1,495,1052,494.1,1052,493z"/>
<path class="st3" d="M1052,481v12c0,1.1-0.9,2-2,2h-4c-1.1,0-2-0.9-2-2v-12c0-1.1,0.9-2,2-2h4C1051.1,479,1052,479.9,1052,481z"/>
<path class="st3" d="M1032,511c2.2,0,4,1.8,4,4s-1.8,4-4,4s-4-1.8-4-4S1029.8,511,1032,511z"/>
<path class="st1" d="M1028,481v12c0,3.3-2.7,6-6,6h-4c-3.3,0-6-2.7-6-6v-12c0-3.3,2.7-6,6-6h4C1025.3,475,1028,477.7,1028,481z
	 M1024,493v-12c0-1.1-0.9-2-2-2h-4c-1.1,0-2,0.9-2,2v12c0,1.1,0.9,2,2,2h4C1023.1,495,1024,494.1,1024,493z"/>
<path class="st3" d="M1028,459v4h-16v-12h4v-4h-4v-12h4v-4h-4v-8c0-2.2,1.8-4,4-4h8c2.2,0,4,1.8,4,4h-4v4h4v12h-4v4h4v12h-4v4H1028z
	"/>
<path class="st3" d="M1024,481v12c0,1.1-0.9,2-2,2h-4c-1.1,0-2-0.9-2-2v-12c0-1.1,0.9-2,2-2h4C1023.1,479,1024,479.9,1024,481z"/>
<path class="st1" d="M1000,481v12c0,3.3-2.7,6-6,6h-4c-3.3,0-6-2.7-6-6v-12c0-3.3,2.7-6,6-6h4C997.3,475,1000,477.7,1000,481z
	 M996,493v-12c0-1.1-0.9-2-2-2h-4c-1.1,0-2,0.9-2,2v12c0,1.1,0.9,2,2,2h4C995.1,495,996,494.1,996,493z"/>
<path class="st3" d="M1000,451v12h-16v-4h4v-4h-4v-12h4v-4h-4v-12h4v-4h-4v-8c0-2.2,1.8-4,4-4h8c2.2,0,4,1.8,4,4h-4v4h4v12h-4v4h4
	v12h-4v4H1000z"/>
<path class="st3" d="M996,481v12c0,1.1-0.9,2-2,2h-4c-1.1,0-2-0.9-2-2v-12c0-1.1,0.9-2,2-2h4C995.1,479,996,479.9,996,481z"/>
<path class="st3" d="M1060,327c2.2,0,4,1.8,4,4s-1.8,4-4,4s-4-1.8-4-4S1057.8,327,1060,327z"/>
<path class="st3" d="M986.9,327h66.2c-0.7,1.2-1.1,2.5-1.1,4s0.4,2.8,1.1,4h-66.2c0.7-1.2,1.1-2.5,1.1-4S987.6,328.2,986.9,327z"/>
<path class="st1" d="M1032,297v12c0,3.3-2.7,6-6,6h-4c-3.3,0-6-2.7-6-6v-12c0-3.3,2.7-6,6-6h4C1029.3,291,1032,293.7,1032,297z
	 M1028,309v-12c0-1.1-0.9-2-2-2h-4c-1.1,0-2,0.9-2,2v12c0,1.1,0.9,2,2,2h4C1027.1,311,1028,310.1,1028,309z"/>
<path class="st3" d="M1028,297v12c0,1.1-0.9,2-2,2h-4c-1.1,0-2-0.9-2-2v-12c0-1.1,0.9-2,2-2h4C1027.1,295,1028,295.9,1028,297z"/>
<path class="st1" d="M1004,297v12c0,3.3-2.7,6-6,6h-4c-3.3,0-6-2.7-6-6v-12c0-3.3,2.7-6,6-6h4C1001.3,291,1004,293.7,1004,297z
	 M1000,309v-12c0-1.1-0.9-2-2-2h-4c-1.1,0-2,0.9-2,2v12c0,1.1,0.9,2,2,2h4C999.1,311,1000,310.1,1000,309z"/>
<path class="st3" d="M1000,297v12c0,1.1-0.9,2-2,2h-4c-1.1,0-2-0.9-2-2v-12c0-1.1,0.9-2,2-2h4C999.1,295,1000,295.9,1000,297z"/>
<path class="st3" d="M980,327c2.2,0,4,1.8,4,4s-1.8,4-4,4s-4-1.8-4-4S977.8,327,980,327z"/>
<path class="st1" d="M976,297v12c0,3.3-2.7,6-6,6h-4c-3.3,0-6-2.7-6-6v-12c0-3.3,2.7-6,6-6h4C973.3,291,976,293.7,976,297z M972,309
	v-12c0-1.1-0.9-2-2-2h-4c-1.1,0-2,0.9-2,2v12c0,1.1,0.9,2,2,2h4C971.1,311,972,310.1,972,309z"/>
<path class="st3" d="M976,275v4h-16v-12h4v-4h-4v-12h4v-4h-4v-8c0-2.2,1.8-4,4-4h8c2.2,0,4,1.8,4,4h-4v4h4v12h-4v4h4v12h-4v4H976z"
	/>
<path class="st3" d="M972,297v12c0,1.1-0.9,2-2,2h-4c-1.1,0-2-0.9-2-2v-12c0-1.1,0.9-2,2-2h4C971.1,295,972,295.9,972,297z"/>
<path class="st1" d="M948,297v12c0,3.3-2.7,6-6,6h-4c-3.3,0-6-2.7-6-6v-12c0-3.3,2.7-6,6-6h4C945.3,291,948,293.7,948,297z M944,309
	v-12c0-1.1-0.9-2-2-2h-4c-1.1,0-2,0.9-2,2v12c0,1.1,0.9,2,2,2h4C943.1,311,944,310.1,944,309z"/>
<path class="st3" d="M948,267v12h-16v-4h4v-4h-4v-12h4v-4h-4v-12h4v-4h-4v-8c0-2.2,1.8-4,4-4h8c2.2,0,4,1.8,4,4h-4v4h4v12h-4v4h4v12
	h-4v4H948z"/>
<path class="st3" d="M944,297v12c0,1.1-0.9,2-2,2h-4c-1.1,0-2-0.9-2-2v-12c0-1.1,0.9-2,2-2h4C943.1,295,944,295.9,944,297z"/>
<path class="st1" d="M464,791h-16v-8h4v-4h-24v0.6c0.7,1,1.2,2.2,1.6,3.4h2.4v8h-3c-0.2,0.4-0.4,0.8-0.6,1.2c-0.6,1.1-1.4,2-2.2,2.8
	H464c2.2,0,4,1.8,4,4v36H292v-36c0-2.2,1.8-4,4-4h113.8c-1.2-1.1-2.2-2.5-2.8-4h-19v-8h4v-4h-24v4h4v8h-44v-8h4v-4h-24v4h4v8h-16
	c-4.4,0-8,3.6-8,8v88h36h40h32h40h36v-88C472,794.6,468.4,791,464,791z M444,791h-8v-8h8V791z M376,783h8v8h-8V783z M316,783h8v8h-8
	V783z M360,883h-32v-8h32V883z M360,871h-32v-8h32V871z M360,859h-32v-4c0-2.2,1.8-4,4-4h24c2.2,0,4,1.8,4,4V859z M432,883h-32v-8
	h32V883z M432,871h-32v-8h32V871z M432,859h-32v-4c0-2.2,1.8-4,4-4h24c2.2,0,4,1.8,4,4V859z M468,883h-32v-28c0-4.4-3.6-8-8-8h-24
	c-4.4,0-8,3.6-8,8v28h-32v-28c0-4.4-3.6-8-8-8h-24c-4.4,0-8,3.6-8,8v28h-32v-44h176V883z"/>
<g>
	<path class="st1" d="M491.8,680.8c-0.2,1.3-0.6,2.6-1.3,3.8C520,699.8,553,709,588,710.7c0-1.4,0.3-2.7,0.8-3.9
		c-27.9-1.3-55-7.4-80.7-18.3C502.6,686.1,497.2,683.6,491.8,680.8z"/>
	<path class="st1" d="M708.2,680.8c-5.3,2.7-10.8,5.3-16.3,7.7c-25.7,10.9-52.8,17-80.7,18.3c0.5,1.2,0.7,2.6,0.8,4
		c35-1.7,68-11,97.5-26.1C708.8,683.4,708.4,682.1,708.2,680.8z"/>
	<path class="st1" d="M401.4,598.6c-0.8,1-1.8,1.9-3,2.6c18.5,28.5,42.8,52.9,71.4,71.4c0.7-1.2,1.6-2.2,2.6-3
		c-14.1-9.1-27.2-19.7-39.3-31.7S410.5,612.7,401.4,598.6z"/>
	<path class="st1" d="M364.3,482.2c-1.2,0.5-2.6,0.7-3.9,0.8c1.7,35,10.9,68,26.1,97.5c1.2-0.7,2.5-1.1,3.8-1.3
		c-2.7-5.3-5.3-10.8-7.7-16.3C371.7,537.2,365.6,510.1,364.3,482.2z"/>
	<path class="st1" d="M386.4,361.5C371.3,391,362,424,360.3,459c1.4,0,2.7,0.3,4,0.8c1.3-27.9,7.4-55,18.3-80.7
		c2.3-5.6,4.9-11,7.7-16.3C388.9,362.6,387.6,362.2,386.4,361.5z"/>
	<g>
		<path class="st1" d="M727.6,272.4c14.1,9.1,27.2,19.7,39.3,31.7s22.6,25.2,31.7,39.3c0.8-1,1.8-1.9,3-2.6
			c-18.5-28.5-42.8-52.9-71.4-71.4C729.5,270.6,728.6,271.6,727.6,272.4z"/>
		<path class="st1" d="M469.8,269.4c-28.5,18.5-52.9,42.8-71.4,71.4c1.2,0.7,2.2,1.6,3,2.6c9.1-14.1,19.7-27.2,31.7-39.3
			s25.2-22.6,39.3-31.7C471.4,271.6,470.5,270.6,469.8,269.4z"/>
		<path class="st1" d="M817.5,379.1c10.9,25.7,17,52.8,18.3,80.7c1.2-0.5,2.6-0.7,4-0.8c-1.7-35-10.9-68-26.1-97.5
			c-1.2,0.7-2.5,1.1-3.8,1.3C812.6,368.2,815.1,373.6,817.5,379.1z"/>
		<path class="st1" d="M835.7,482.2c-1.3,27.9-7.4,55-18.3,80.7c-2.3,5.6-4.9,11-7.7,16.3c1.3,0.2,2.6,0.6,3.8,1.3
			C828.8,551,838,518,839.7,483C838.3,483,837,482.7,835.7,482.2z"/>
		<path class="st1" d="M798.6,598.6c-9.1,14.1-19.7,27.2-31.7,39.3s-25.2,22.6-39.3,31.7c1,0.8,1.9,1.8,2.6,3
			c28.5-18.5,52.9-42.8,71.4-71.4C800.4,600.5,799.4,599.6,798.6,598.6z"/>
		<path class="st1" d="M709.5,257.4C680,242.2,647,233,612,231.3c0,1.4-0.3,2.7-0.8,4c27.9,1.3,55,7.4,80.7,18.3
			c5.6,2.3,11,4.9,16.3,7.7C708.4,259.9,708.8,258.6,709.5,257.4z"/>
		<path class="st1" d="M588,231.3c-35,1.7-68,10.9-97.5,26.1c0.7,1.2,1.1,2.5,1.3,3.8c5.3-2.7,10.8-5.3,16.3-7.7
			c25.7-10.9,52.8-17,80.7-18.3C588.3,234,588,232.7,588,231.3z"/>
	</g>
</g>
<g>
	<path class="st1" d="M588.7,839H588v4h3.1C590,841.8,589.2,840.5,588.7,839z"/>
	<path class="st1" d="M612,843v-4h-0.7c-0.5,1.5-1.3,2.8-2.4,4H612z"/>
	<path class="st1" d="M684,851h-16v-8h4v-4h-24v4h4v8h-44v-7.1c-1.2,1-2.5,1.8-4,2.4v4.7h-8v-4.7c-1.5-0.5-2.8-1.3-4-2.4v7.1h-44v-8
		h4v-4h-24v4h4v8h-16c-4.4,0-8,3.6-8,8v88h36h40h32h40h36v-88C692,854.6,688.4,851,684,851z M656,843h8v8h-8V843z M536,843h8v8h-8
		V843z M580,943h-32v-8h32V943z M580,931h-32v-8h32V931z M580,919h-32v-4c0-2.2,1.8-4,4-4h24c2.2,0,4,1.8,4,4V919z M652,943h-32v-8
		h32V943z M652,931h-32v-8h32V931z M652,919h-32v-4c0-2.2,1.8-4,4-4h24c2.2,0,4,1.8,4,4V919z M688,943h-32v-28c0-4.4-3.6-8-8-8h-24
		c-4.4,0-8,3.6-8,8v28h-32v-28c0-4.4-3.6-8-8-8h-24c-4.4,0-8,3.6-8,8v28h-32v-44h176V943z M688,895H512v-36c0-2.2,1.8-4,4-4h168
		c2.2,0,4,1.8,4,4V895z"/>
</g>
<path class="st1" d="M904,791h-16v-8h4v-4h-24v4h4v8h-44v-8h4v-4h-24v4h4v8h-19c-0.6,1.5-1.6,2.9-2.8,4H904c2.2,0,4,1.8,4,4v36H732
	v-36c0-2.2,1.8-4,4-4h37.8c-0.8-0.8-1.6-1.7-2.2-2.8c-0.2-0.4-0.4-0.8-0.6-1.2h-3v-8h2.4c0.3-1.2,0.9-2.3,1.6-3.4V779h-24v4h4v8h-16
	c-4.4,0-8,3.6-8,8v88h36h40h32h40h36v-88C912,794.6,908.4,791,904,791z M824,791h-8v-8h8V791z M884,791h-8v-8h8V791z M756,783h8v8
	h-8V783z M800,883h-32v-8h32V883z M800,871h-32v-8h32V871z M800,859h-32v-4c0-2.2,1.8-4,4-4h24c2.2,0,4,1.8,4,4V859z M872,883h-32
	v-8h32V883z M872,871h-32v-8h32V871z M872,859h-32v-4c0-2.2,1.8-4,4-4h24c2.2,0,4,1.8,4,4V859z M908,883h-32v-28c0-4.4-3.6-8-8-8
	h-24c-4.4,0-8,3.6-8,8v28h-32v-28c0-4.4-3.6-8-8-8h-24c-4.4,0-8,3.6-8,8v28h-32v-44h176V883z"/>
<path class="st1" d="M276,661.2v9.8h-16v-16h12.9c-0.2-1.3-0.2-2.7,0-4H260v-16h16v9.8c0.8-0.8,1.7-1.6,2.8-2.2
	c0.4-0.2,0.8-0.4,1.2-0.6v-39c0-4.4-3.6-8-8-8h-68c-4.4,0-8,3.6-8,8v156h-12V643c0-4.4-3.6-8-8-8h-48c-4.4,0-8,3.6-8,8v120h160v-99
	C278.5,663.4,277.1,662.4,276,661.2z M124,655h16v16h-16V655z M124,675h16v16h-16V675z M124,695h16v16h-16V695z M124,715h16v16h-16
	V715z M180,759h-56v-24h56V759z M160,675v16h-16v-16H160z M144,671v-16h16v16H144z M160,695v16h-16v-16H160z M160,715v16h-16v-16
	H160z M180,731h-16v-16h16V731z M180,711h-16v-16h16V711z M180,691h-16v-16h16V691z M180,671h-16v-16h16V671z M180,651h-56v-8
	c0-2.2,1.8-4,4-4h48c2.2,0,4,1.8,4,4V651z M276,631h-16v-16h16V631z M200,603c0-2.2,1.8-4,4-4h68c2.2,0,4,1.8,4,4v8h-76V603z
	 M240,711v-16h16v16H240z M256,715v16h-16v-16H256z M240,691v-16h16v16H240z M240,671v-16h16v16H240z M240,651v-16h16v16H240z
	 M240,631v-16h16v16H240z M220,711v-16h16v16H220z M236,715v16h-16v-16H236z M220,691v-16h16v16H220z M220,671v-16h16v16H220z
	 M220,651v-16h16v16H220z M220,631v-16h16v16H220z M200,615h16v16h-16V615z M200,635h16v16h-16V635z M200,655h16v16h-16V655z
	 M200,675h16v16h-16V675z M200,695h16v16h-16V695z M200,715h16v16h-16V715z M276,759h-76v-24h76V759z M276,731h-16v-16h16V731z
	 M276,711h-16v-16h16V711z M276,691h-16v-16h16V691z"/>
<ellipse transform="matrix(0.866 -0.5 0.5 0.866 -242.9613 275.256)" class="st2" cx="392.2" cy="591" rx="12" ry="12"/>
<path class="st1" d="M236,483h-16v-16h8.7c0.5-1.5,1.3-2.8,2.4-4H220v-16h16v12.7c1.3-0.4,2.6-0.7,4-0.7v-64c0-4.4-3.6-8-8-8h-68
	c-4.4,0-8,3.6-8,8v156h-12V435c0-4.4-3.6-8-8-8H88c-4.4,0-8,3.6-8,8v120h160v-72c-1.4,0-2.7-0.3-4-0.7V483z M84,447h16v16H84V447z
	 M84,467h16v16H84V467z M84,487h16v16H84V487z M84,507h16v16H84V507z M140,551H84v-24h56V551z M120,467v16h-16v-16H120z M104,463
	v-16h16v16H104z M120,487v16h-16v-16H120z M120,507v16h-16v-16H120z M140,523h-16v-16h16V523z M140,503h-16v-16h16V503z M140,483
	h-16v-16h16V483z M140,463h-16v-16h16V463z M140,443H84v-8c0-2.2,1.8-4,4-4h48c2.2,0,4,1.8,4,4V443z M236,443h-16v-16h16V443z
	 M236,423h-16v-16h16V423z M160,395c0-2.2,1.8-4,4-4h68c2.2,0,4,1.8,4,4v8h-76V395z M200,503v-16h16v16H200z M216,507v16h-16v-16
	H216z M200,483v-16h16v16H200z M200,463v-16h16v16H200z M200,443v-16h16v16H200z M200,423v-16h16v16H200z M180,503v-16h16v16H180z
	 M196,507v16h-16v-16H196z M180,483v-16h16v16H180z M180,463v-16h16v16H180z M180,443v-16h16v16H180z M180,423v-16h16v16H180z
	 M160,407h16v16h-16V407z M160,427h16v16h-16V427z M160,447h16v16h-16V447z M160,467h16v16h-16V467z M160,487h16v16h-16V487z
	 M160,507h16v16h-16V507z M236,551h-76v-24h76V551z M236,523h-16v-16h16V523z M236,503h-16v-16h16V503z"/>
<path class="st1" d="M278.8,299.4c-1.1-0.6-2-1.4-2.8-2.2v1.8h-16v-16h14.4c1.3-2.3,3.3-4,5.6-5v-87c0-4.4-3.6-8-8-8h-68
	c-4.4,0-8,3.6-8,8v156h-12V231c0-4.4-3.6-8-8-8h-48c-4.4,0-8,3.6-8,8v120h160v-51C279.6,299.8,279.2,299.6,278.8,299.4z M124,243h16
	v16h-16V243z M124,263h16v16h-16V263z M124,283h16v16h-16V283z M124,303h16v16h-16V303z M180,347h-56v-24h56V347z M160,263v16h-16
	v-16H160z M144,259v-16h16v16H144z M160,283v16h-16v-16H160z M160,303v16h-16v-16H160z M180,319h-16v-16h16V319z M180,299h-16v-16
	h16V299z M180,279h-16v-16h16V279z M180,259h-16v-16h16V259z M180,239h-56v-8c0-2.2,1.8-4,4-4h48c2.2,0,4,1.8,4,4V239z M276,279h-16
	v-16h16V279z M276,259h-16v-16h16V259z M276,239h-16v-16h16V239z M276,219h-16v-16h16V219z M200,191c0-2.2,1.8-4,4-4h68
	c2.2,0,4,1.8,4,4v8h-76V191z M240,299v-16h16v16H240z M256,303v16h-16v-16H256z M240,279v-16h16v16H240z M240,259v-16h16v16H240z
	 M240,239v-16h16v16H240z M240,219v-16h16v16H240z M220,299v-16h16v16H220z M236,303v16h-16v-16H236z M220,279v-16h16v16H220z
	 M220,259v-16h16v16H220z M220,239v-16h16v16H220z M220,219v-16h16v16H220z M200,203h16v16h-16V203z M200,223h16v16h-16V223z
	 M200,243h16v16h-16V243z M200,263h16v16h-16V263z M200,283h16v16h-16V283z M200,303h16v16h-16V303z M276,347h-76v-24h76V347z
	 M276,319h-16v-16h16V319z"/>
<path class="st1" d="M472,119c-2.4,0-4.5,1.1-6,2.8c-1.5-1.7-3.6-2.8-6-2.8s-4.5,1.1-6,2.8c-1.5-1.7-3.6-2.8-6-2.8
	c-1.5,0-2.8,0.4-4,1.1V95.9c2.1,1.9,4.9,3.1,8,3.1c6.6,0,12-5.4,12-12v-4l-20-16v-4c0-4.4-3.6-8-8-8h-68c-4.4,0-8,3.6-8,8v4l-20,16
	v4c0,6.6,5.4,12,12,12c3.1,0,5.9-1.2,8-3.1v24.2c-1.2-0.7-2.5-1.1-4-1.1c-2.4,0-4.5,1.1-6,2.8c-1.5-1.7-3.6-2.8-6-2.8
	s-4.5,1.1-6,2.8c-1.5-1.7-3.6-2.8-6-2.8c-4.4,0-8,3.6-8,8v20v4h83c0.6-1.5,1.6-2.9,2.8-4H400v-36c0-4.4-3.6-8-8-8h-12
	c-4.4,0-8,3.6-8,8v36h-8V95.9c2.1,1.9,4.9,3.1,8,3.1c4.2,0,7.8-2.2,10-5.4c2.2,3.2,5.8,5.4,10,5.4s7.8-2.2,10-5.4
	c2.2,3.2,5.8,5.4,10,5.4s7.8-2.2,10-5.4c2.2,3.2,5.8,5.4,10,5.4c3.1,0,5.9-1.2,8-3.1V147h-13.8c0.8,0.8,1.6,1.7,2.2,2.8
	c0.2,0.4,0.4,0.8,0.6,1.2h51v-4v-20C480,122.6,476.4,119,472,119z M336,147h-8v-20c0-2.2,1.8-4,4-4s4,1.8,4,4V147z M348,147h-8v-20
	c0-2.2,1.8-4,4-4s4,1.8,4,4V147z M360,147h-8v-20c0-2.2,1.8-4,4-4s4,1.8,4,4V147z M376,111c0-2.2,1.8-4,4-4h12c2.2,0,4,1.8,4,4v36
	h-20V111z M452,95c-4.4,0-8-3.6-8-8h16C460,91.4,456.4,95,452,95z M364,63c0-2.2,1.8-4,4-4h68c2.2,0,4,1.8,4,4v4h-76V63z M352,95
	c-4.4,0-8-3.6-8-8h16C360,91.4,356.4,95,352,95z M372,95c-4.4,0-8-3.6-8-8h16C380,91.4,376.4,95,372,95z M392,95c-4.4,0-8-3.6-8-8
	h16C400,91.4,396.4,95,392,95z M412,95c-4.4,0-8-3.6-8-8h16C420,91.4,416.4,95,412,95z M346.4,83l15-12h81.2l15,12H346.4z M432,95
	c-4.4,0-8-3.6-8-8h16C440,91.4,436.4,95,432,95z M452,147h-8v-20c0-2.2,1.8-4,4-4s4,1.8,4,4V147z M464,147h-8v-20c0-2.2,1.8-4,4-4
	s4,1.8,4,4V147z M476,147h-8v-20c0-2.2,1.8-4,4-4s4,1.8,4,4V147z"/>
<path class="st1" d="M668,75c-2.4,0-4.5,1.1-6,2.8c-1.5-1.7-3.6-2.8-6-2.8s-4.5,1.1-6,2.8c-1.5-1.7-3.6-2.8-6-2.8
	c-1.5,0-2.8,0.4-4,1.1V51.9c2.1,1.9,4.9,3.1,8,3.1c6.6,0,12-5.4,12-12v-4l-20-16v-4c0-4.4-3.6-8-8-8h-68c-4.4,0-8,3.6-8,8v4l-20,16
	v4c0,6.6,5.4,12,12,12c3.1,0,5.9-1.2,8-3.1v24.2c-1.2-0.7-2.5-1.1-4-1.1c-2.4,0-4.5,1.1-6,2.8c-1.5-1.7-3.6-2.8-6-2.8
	s-4.5,1.1-6,2.8c-1.5-1.7-3.6-2.8-6-2.8c-4.4,0-8,3.6-8,8v20v4h68c0-1.4,0.3-2.7,0.7-4H572V67c0-2.2,1.8-4,4-4h12c2.2,0,4,1.8,4,4
	v31.1c1.2-1,2.5-1.8,4-2.4V67c0-4.4-3.6-8-8-8h-12c-4.4,0-8,3.6-8,8v36h-8V51.9c2.1,1.9,4.9,3.1,8,3.1c4.2,0,7.8-2.2,10-5.4
	c2.2,3.2,5.8,5.4,10,5.4s7.8-2.2,10-5.4c2.2,3.2,5.8,5.4,10,5.4s7.8-2.2,10-5.4c2.2,3.2,5.8,5.4,10,5.4c3.1,0,5.9-1.2,8-3.1V103
	h-24.7c0.4,1.3,0.7,2.6,0.7,4h64v-4V83C676,78.6,672.4,75,668,75z M532,103h-8V83c0-2.2,1.8-4,4-4s4,1.8,4,4V103z M544,103h-8V83
	c0-2.2,1.8-4,4-4s4,1.8,4,4V103z M556,103h-8V83c0-2.2,1.8-4,4-4s4,1.8,4,4V103z M648,51c-4.4,0-8-3.6-8-8h16
	C656,47.4,652.4,51,648,51z M560,19c0-2.2,1.8-4,4-4h68c2.2,0,4,1.8,4,4v4h-76V19z M548,51c-4.4,0-8-3.6-8-8h16
	C556,47.4,552.4,51,548,51z M568,51c-4.4,0-8-3.6-8-8h16C576,47.4,572.4,51,568,51z M588,51c-4.4,0-8-3.6-8-8h16
	C596,47.4,592.4,51,588,51z M608,51c-4.4,0-8-3.6-8-8h16C616,47.4,612.4,51,608,51z M542.4,39l15-12h81.2l15,12H542.4z M628,51
	c-4.4,0-8-3.6-8-8h16C636,47.4,632.4,51,628,51z M648,103h-8V83c0-2.2,1.8-4,4-4s4,1.8,4,4V103z M660,103h-8V83c0-2.2,1.8-4,4-4
	s4,1.8,4,4V103z M672,103h-8V83c0-2.2,1.8-4,4-4s4,1.8,4,4V103z"/>
<path class="st1" d="M868,119c-2.4,0-4.5,1.1-6,2.8c-1.5-1.7-3.6-2.8-6-2.8s-4.5,1.1-6,2.8c-1.5-1.7-3.6-2.8-6-2.8
	c-1.5,0-2.8,0.4-4,1.1V95.9c2.1,1.9,4.9,3.1,8,3.1c6.6,0,12-5.4,12-12v-4l-20-16v-4c0-4.4-3.6-8-8-8h-68c-4.4,0-8,3.6-8,8v4l-20,16
	v4c0,6.6,5.4,12,12,12c3.1,0,5.9-1.2,8-3.1v24.2c-1.2-0.7-2.5-1.1-4-1.1c-2.4,0-4.5,1.1-6,2.8c-1.5-1.7-3.6-2.8-6-2.8
	s-4.5,1.1-6,2.8c-1.5-1.7-3.6-2.8-6-2.8c-4.4,0-8,3.6-8,8v20v4h51c0.2-0.4,0.4-0.8,0.6-1.2c0.6-1.1,1.4-2,2.2-2.8H772v-36
	c0-2.2,1.8-4,4-4h12c2.2,0,4,1.8,4,4v36h-1.8c1.2,1.1,2.2,2.5,2.8,4h83v-4v-20C876,122.6,872.4,119,868,119z M732,147h-8v-20
	c0-2.2,1.8-4,4-4s4,1.8,4,4V147z M744,147h-8v-20c0-2.2,1.8-4,4-4s4,1.8,4,4V147z M756,147h-8v-20c0-2.2,1.8-4,4-4s4,1.8,4,4V147z
	 M848,95c-4.4,0-8-3.6-8-8h16C856,91.4,852.4,95,848,95z M760,63c0-2.2,1.8-4,4-4h68c2.2,0,4,1.8,4,4v4h-76V63z M757.4,71h81.2
	l15,12H742.4L757.4,71z M816,87c0,4.4-3.6,8-8,8s-8-3.6-8-8H816z M796,87c0,4.4-3.6,8-8,8s-8-3.6-8-8H796z M776,87c0,4.4-3.6,8-8,8
	s-8-3.6-8-8H776z M748,95c-4.4,0-8-3.6-8-8h16C756,91.4,752.4,95,748,95z M836,147h-40v-36c0-4.4-3.6-8-8-8h-12c-4.4,0-8,3.6-8,8v36
	h-8V95.9c2.1,1.9,4.9,3.1,8,3.1c4.2,0,7.8-2.2,10-5.4c2.2,3.2,5.8,5.4,10,5.4s7.8-2.2,10-5.4c2.2,3.2,5.8,5.4,10,5.4s7.8-2.2,10-5.4
	c2.2,3.2,5.8,5.4,10,5.4c3.1,0,5.9-1.2,8-3.1V147z M828,95c-4.4,0-8-3.6-8-8h16C836,91.4,832.4,95,828,95z M848,147h-8v-20
	c0-2.2,1.8-4,4-4s4,1.8,4,4V147z M860,147h-8v-20c0-2.2,1.8-4,4-4s4,1.8,4,4V147z M872,147h-8v-20c0-2.2,1.8-4,4-4s4,1.8,4,4V147z"
	/>
<path class="st1" d="M1048,707h12c4.4,0,8-3.6,8-8c0-4.4-3.6-8-8-8h-12v-36c0-4.4-3.6-8-8-8h-60v-40c0-4.4-3.6-8-8-8h-8
	c-4.4,0-8,3.6-8,8v40h-4v-48c0-4.4-3.6-8-8-8h-8c-4.4,0-8,3.6-8,8v48h-2.4c0.7,1.2,1.2,2.6,1.4,4h6.3c0.2,0,0.4,0,0.6,0
	c0.6,0,1.3,0,2,0h8c0.7,0,1.4,0,2,0c0.2,0,0.4,0,0.6,0h93.3c2.2,0,4,1.8,4,4v36h-64c-4.4,0-8,3.6-8,8c0,4.4,3.6,8,8,8h64v8H920v-51
	c-1.3,0.5-2.6,0.9-4,1v50h-8v4h160v-4h-20V707z M948,603v12h-4v4h4v12h-4v4h4v12h-16v-4h4v-4h-4v-12h4v-4h-4v-12h4v-4h-4v-8
	c0-2.2,1.8-4,4-4h8c2.2,0,4,1.8,4,4h-4v4H948z M976,611v12h-4v4h4v12h-4v4h4v4h-16v-12h4v-4h-4v-12h4v-4h-4v-8c0-2.2,1.8-4,4-4h8
	c2.2,0,4,1.8,4,4h-4v4H976z M1060,695c2.2,0,4,1.8,4,4s-1.8,4-4,4s-4-1.8-4-4S1057.8,695,1060,695z M980,703c-2.2,0-4-1.8-4-4
	s1.8-4,4-4s4,1.8,4,4S982.2,703,980,703z M986.9,703c0.7-1.2,1.1-2.5,1.1-4c0-1.5-0.4-2.8-1.1-4h66.2c-0.7,1.2-1.1,2.5-1.1,4
	c0,1.5,0.4,2.8,1.1,4H986.9z"/>
<path class="st1" d="M1048,339h12c4.4,0,8-3.6,8-8c0-4.4-3.6-8-8-8h-12v-36c0-4.4-3.6-8-8-8h-60v-40c0-4.4-3.6-8-8-8h-8
	c-4.4,0-8,3.6-8,8v40h-4v-48c0-4.4-3.6-8-8-8h-8c-4.4,0-8,3.6-8,8v48h-4c-0.6,0-1.2,0.1-1.8,0.2c1.4,1,2.6,2.2,3.5,3.8h7.7
	c0.2,0,0.4,0,0.6,0c0.6,0,1.3,0,2,0h8c0.7,0,1.4,0,2,0c0.2,0,0.4,0,0.6,0h93.3c2.2,0,4,1.8,4,4v36h-64c-4.4,0-8,3.6-8,8
	c0,4.4,3.6,8,8,8h64v8H920v-47c-1.3,0.6-2.6,0.9-4,1v46h-8v4h160v-4h-20V339z M948,235v12h-4v4h4v12h-4v4h4v12h-16v-4h4v-4h-4v-12h4
	v-4h-4v-12h4v-4h-4v-8c0-2.2,1.8-4,4-4h8c2.2,0,4,1.8,4,4h-4v4H948z M976,243v12h-4v4h4v12h-4v4h4v4h-16v-12h4v-4h-4v-12h4v-4h-4v-8
	c0-2.2,1.8-4,4-4h8c2.2,0,4,1.8,4,4h-4v4H976z M1060,327c2.2,0,4,1.8,4,4s-1.8,4-4,4s-4-1.8-4-4S1057.8,327,1060,327z M980,335
	c-2.2,0-4-1.8-4-4s1.8-4,4-4s4,1.8,4,4S982.2,335,980,335z M986.9,335c0.7-1.2,1.1-2.5,1.1-4c0-1.5-0.4-2.8-1.1-4h66.2
	c-0.7,1.2-1.1,2.5-1.1,4c0,1.5,0.4,2.8,1.1,4H986.9z"/>
<path class="st1" d="M1100,523h12c4.4,0,8-3.6,8-8c0-4.4-3.6-8-8-8h-12v-36c0-4.4-3.6-8-8-8h-60v-40c0-4.4-3.6-8-8-8h-8
	c-4.4,0-8,3.6-8,8v40h-4v-48c0-4.4-3.6-8-8-8h-8c-4.4,0-8,3.6-8,8v48h-3.1c1,1.2,1.8,2.5,2.4,4h6c0.2,0,0.4,0,0.6,0c0.6,0,1.3,0,2,0
	h8c0.7,0,1.4,0,2,0c0.2,0,0.4,0,0.6,0h93.3c2.2,0,4,1.8,4,4v36h-64c-4.4,0-8,3.6-8,8c0,4.4,3.6,8,8,8h64v8H972v-48.7
	c-1.3,0.4-2.6,0.7-4,0.7v48h-8v4h160v-4h-20V523z M1000,419v12h-4v4h4v12h-4v4h4v12h-16v-4h4v-4h-4v-12h4v-4h-4v-12h4v-4h-4v-8
	c0-2.2,1.8-4,4-4h8c2.2,0,4,1.8,4,4h-4v4H1000z M1028,427v12h-4v4h4v12h-4v4h4v4h-16v-12h4v-4h-4v-12h4v-4h-4v-8c0-2.2,1.8-4,4-4h8
	c2.2,0,4,1.8,4,4h-4v4H1028z M1112,511c2.2,0,4,1.8,4,4s-1.8,4-4,4s-4-1.8-4-4S1109.8,511,1112,511z M1032,519c-2.2,0-4-1.8-4-4
	s1.8-4,4-4s4,1.8,4,4S1034.2,519,1032,519z M1038.9,519c0.7-1.2,1.1-2.5,1.1-4c0-1.5-0.4-2.8-1.1-4h66.2c-0.7,1.2-1.1,2.5-1.1,4
	c0,1.5,0.4,2.8,1.1,4H1038.9z"/>
</svg>
