<?xml version="1.0" encoding="utf-8"?>
<!-- Generator: Adobe Illustrator 20.1.0, SVG Export Plug-In . SVG Version: 6.00 Build 0)  -->
<svg version="1.1" id="Слой_1" xmlns="http://www.w3.org/2000/svg" xmlns:xlink="http://www.w3.org/1999/xlink" x="0px" y="0px"
	 viewBox="0 0 500 700" style="enable-background:new 0 0 500 700;" xml:space="preserve">
<style type="text/css">
	.st0{fill:#FFFFFF;}
	.st1{opacity:0.6;fill:#FFFFFF;}
	.st2{opacity:0.4;fill:#FFFFFF;}
	.st3{opacity:0.2;fill:#FFFFFF;}
</style>
<path class="st0" d="M479,675H21c-0.6,0-1-0.4-1-1s0.4-1,1-1h458c0.6,0,1,0.4,1,1S479.6,675,479,675z"/>
<path class="st0" d="M399,95H101c-0.6,0-1-0.4-1-1s0.4-1,1-1h298c0.6,0,1,0.4,1,1S399.6,95,399,95z"/>
<rect x="249" y="94" class="st0" width="2" height="44"/>
<rect x="249" y="316" class="st0" width="2" height="44"/>
<path class="st0" d="M91,138h-2v-10c0-7.2,5.8-13,13-13h113c6.1,0,11-4.9,11-11V94h2v10c0,7.2-5.8,13-13,13H102c-6.1,0-11,4.9-11,11
	V138z"/>
<path class="st0" d="M411,138h-2v-10c0-6.1-4.9-11-11-11H285c-7.2,0-13-5.8-13-13V94h2v10c0,6.1,4.9,11,11,11h113
	c7.2,0,13,5.8,13,13V138z"/>
<path class="st0" d="M228,360h-2v-10c0-6.1-4.9-11-11-11H102c-7.2,0-13-5.8-13-13v-10h2v10c0,6.1,4.9,11,11,11h113
	c7.2,0,13,5.8,13,13V360z"/>
<path class="st0" d="M274,360h-2v-10c0-7.2,5.8-13,13-13h113c6.1,0,11-4.9,11-11v-10h2v10c0,7.2-5.8,13-13,13H285
	c-6.1,0-11,4.9-11,11V360z"/>
<path class="st0" d="M124,643v12H58v-36h22c2.2,0,4,1.8,4,4v4c0,4.4,3.6,8,8,8h24C120.4,635,124,638.6,124,643z M122,653v-4H60v4
	H122z M122,647v-4c0-3.3-2.7-6-6-6h-12v10H122z M102,647v-10H92c-5.5,0-10-4.5-10-10v-4c0-1.1-0.9-2-2-2H60v26H102z"/>
<path class="st0" d="M71,627c2.8,0,5,2.2,5,5s-2.2,5-5,5s-5-2.2-5-5S68.2,627,71,627z M74,632c0-1.7-1.3-3-3-3s-3,1.3-3,3s1.3,3,3,3
	S74,633.7,74,632z"/>
<path class="st0" d="M286,645v10h-39c0-2.2-1.8-4-4-4s-4,1.8-4,4h-23v-10h2v-18h2v-8c-2.2,0-4-1.8-4-4v-4c0-2.2,1.8-4,4-4h14
	c2.2,0,4,1.8,4,4h2v-2c0-2.2,1.8-4,4-4s4,1.8,4,4v12c0,4.4,3.6,8,8,8h4v-2h8c8.8,0,16,7.2,16,16v2H286z M284,653v-6h-22h-2h-22h-20
	v6h6v-2h2v2h6v-2h2v2h3.3c0.8-2.3,3.1-4,5.7-4s4.8,1.7,5.7,4h3.3v-2h2v2h6v-2h2v2h6v-2h2v2h6v-2h2v2H284z M282,645v-2
	c0-7.7-6.3-14-14-14h-6v16H282z M260,645v-14h-8c-5.5,0-10-4.5-10-10v-6c0-1.1-0.9-2-2-2h-2v2c0,2.2-1.8,4-4,4h-12v8
	c8.8,0,16,7.2,16,16v2h2H260z M249.5,628.6c-2.1-1.8-3.5-4.5-3.5-7.6v-12c0-1.1-0.9-2-2-2s-2,0.9-2,2v2.6c1.2,0.7,2,2,2,3.4v6
	C244,624.6,246.3,627.5,249.5,628.6z M236,645v-2c0-7.7-6.3-14-14-14h-2v16H236z M236,615v-4c0-1.1-0.9-2-2-2h-14c-1.1,0-2,0.9-2,2
	v4c0,1.1,0.9,2,2,2h14C235.1,617,236,616.1,236,615z"/>
<path class="st0" d="M446,647v8h-30c-6,0-16-4-18-4v4h-22v-10h2v-14h2h18c2.2,0,4-1.8,4-4l2.1,2.1c3.8,3.8,8.9,6.1,14.3,6.4L440,637
	c2.2,0,4,1.8,4,4v6H446z M444,653v-4h-28c-2.2,0-6.9-0.6-11.3-1.1c-3.6-0.4-7.3-0.9-8.7-0.9h-18v6h18v-2v-2h2c1,0,2.4,0.4,5.4,1.3
	c3.8,1.1,9.1,2.7,12.6,2.7H444z M442,647v-6c0-1.1-0.9-2-2-2l-21.8-1.5c-5.8-0.3-11.3-2.8-15.5-6.9c-1.1,1.4-2.8,2.4-4.8,2.4h-18v12
	h16c3.1,0,16,2,20,2H442z"/>
<path class="st0" d="M378,359H122c-6.6,0-12,5.4-12,12v156c0,6.6,5.4,12,12,12h105.8l-7.1,30H211c-1.7,0-3,1.3-3,3s1.3,3,3,3h78
	c1.7,0,3-1.3,3-3s-1.3-3-3-3h-9.1l-7.1-30H378c6.6,0,12-5.4,12-12V371C390,364.4,384.6,359,378,359z M290,572c0,0.6-0.4,1-1,1h-78
	c-0.6,0-1-0.4-1-1s0.4-1,1-1h78C289.6,571,290,571.4,290,572z M277.8,569h-55l7.1-30h40.9L277.8,569z M388,527c0,5.5-4.5,10-10,10
	H122c-5.5,0-10-4.5-10-10v-14h276V527z M388,511H112V371c0-5.5,4.5-10,10-10h256c5.5,0,10,4.5,10,10V511z"/>
<rect x="112" y="385" class="st1" width="276" height="2"/>
<circle class="st1" cx="124" cy="373" r="6"/>
<path class="st1" d="M187,375h-38c-0.6,0-1-0.5-1-1v-2c0-0.5,0.4-1,1-1h38c0.6,0,1,0.5,1,1v2C188,374.5,187.6,375,187,375z"/>
<circle class="st1" cx="350" cy="373" r="2"/>
<circle class="st1" cx="338" cy="373" r="2"/>
<path class="st2" d="M204,401c1.1,0,2,0.9,2,2v72c0,1.1-0.9,2-2,2h-52c-1.1,0-2-0.9-2-2v-72c0-1.1,0.9-2,2-2H204 M204,399h-52
	c-2.2,0-4,1.8-4,4v72c0,2.2,1.8,4,4,4h52c2.2,0,4-1.8,4-4v-72C208,400.8,206.2,399,204,399L204,399z"/>
<path class="st2" d="M276,401c1.1,0,2,0.9,2,2v72c0,1.1-0.9,2-2,2h-52c-1.1,0-2-0.9-2-2v-72c0-1.1,0.9-2,2-2H276 M276,399h-52
	c-2.2,0-4,1.8-4,4v72c0,2.2,1.8,4,4,4h52c2.2,0,4-1.8,4-4v-72C280,400.8,278.2,399,276,399L276,399z"/>
<path class="st2" d="M348,401c1.1,0,2,0.9,2,2v72c0,1.1-0.9,2-2,2h-52c-1.1,0-2-0.9-2-2v-72c0-1.1,0.9-2,2-2H348 M348,399h-52
	c-2.2,0-4,1.8-4,4v72c0,2.2,1.8,4,4,4h52c2.2,0,4-1.8,4-4v-72C352,400.8,350.2,399,348,399L348,399z"/>
<rect x="154" y="405" class="st3" width="48" height="36"/>
<rect x="226" y="405" class="st3" width="48" height="36"/>
<rect x="298" y="405" class="st3" width="48" height="36"/>
<rect x="154" y="447" class="st2" width="26" height="4"/>
<rect x="154" y="457" class="st2" width="48" height="2"/>
<rect x="154" y="463" class="st2" width="40" height="2"/>
<rect x="226" y="447" class="st2" width="38" height="4"/>
<rect x="226" y="457" class="st2" width="48" height="2"/>
<rect x="226" y="463" class="st2" width="32" height="2"/>
<rect x="298" y="447" class="st2" width="20" height="4"/>
<rect x="298" y="457" class="st2" width="48" height="2"/>
<rect x="298" y="463" class="st2" width="48" height="2"/>
<path class="st0" d="M152,139c3.3,0,6,2.7,6,6v164c0,3.3-2.7,6-6,6H28c-3.3,0-6-2.7-6-6V145c0-3.3,2.7-6,6-6H152 M152,137H28
	c-4.4,0-8,3.6-8,8v164c0,4.4,3.6,8,8,8h124c4.4,0,8-3.6,8-8V145C160,140.6,156.4,137,152,137L152,137z"/>
<path class="st0" d="M312,139c3.3,0,6,2.7,6,6v164c0,3.3-2.7,6-6,6H188c-3.3,0-6-2.7-6-6V145c0-3.3,2.7-6,6-6H312 M312,137H188
	c-4.4,0-8,3.6-8,8v164c0,4.4,3.6,8,8,8h124c4.4,0,8-3.6,8-8V145C320,140.6,316.4,137,312,137L312,137z"/>
<path class="st0" d="M472,139c3.3,0,6,2.7,6,6v164c0,3.3-2.7,6-6,6H348c-3.3,0-6-2.7-6-6V145c0-3.3,2.7-6,6-6H472 M472,137H348
	c-4.4,0-8,3.6-8,8v164c0,4.4,3.6,8,8,8h124c4.4,0,8-3.6,8-8V145C480,140.6,476.4,137,472,137L472,137z"/>
<path class="st3" d="M144,235H36c-1.1,0-2-0.9-2-2v-80c0-1.1,0.9-2,2-2h108c1.1,0,2,0.9,2,2v80C146,234.1,145.1,235,144,235z"/>
<path class="st3" d="M304,235H196c-1.1,0-2-0.9-2-2v-80c0-1.1,0.9-2,2-2h108c1.1,0,2,0.9,2,2v80C306,234.1,305.1,235,304,235z"/>
<path class="st3" d="M464,235H356c-1.1,0-2-0.9-2-2v-80c0-1.1,0.9-2,2-2h108c1.1,0,2,0.9,2,2v80C466,234.1,465.1,235,464,235z"/>
<rect x="34" y="247" class="st2" width="60" height="10"/>
<rect x="34" y="269" class="st2" width="112" height="4"/>
<rect x="34" y="283" class="st2" width="90" height="4"/>
<rect x="194" y="247" class="st2" width="86" height="10"/>
<rect x="194" y="269" class="st2" width="112" height="4"/>
<rect x="194" y="283" class="st2" width="72" height="4"/>
<rect x="354" y="247" class="st2" width="44" height="8"/>
<rect x="354" y="269" class="st2" width="112" height="4"/>
<rect x="354" y="283" class="st2" width="108" height="4"/>
<path class="st0" d="M124,199v12H58v-36h22c2.2,0,4,1.8,4,4v4c0,4.4,3.6,8,8,8h24C120.4,191,124,194.6,124,199z M122,209v-4H60v4
	H122z M122,203v-4c0-3.3-2.7-6-6-6h-12v10H122z M102,203v-10H92c-5.5,0-10-4.5-10-10v-4c0-1.1-0.9-2-2-2H60v26H102z"/>
<path class="st0" d="M71,183c2.8,0,5,2.2,5,5s-2.2,5-5,5s-5-2.2-5-5S68.2,183,71,183z M74,188c0-1.7-1.3-3-3-3s-3,1.3-3,3s1.3,3,3,3
	S74,189.7,74,188z"/>
<path class="st0" d="M286,207v10h-39c0-2.2-1.8-4-4-4s-4,1.8-4,4h-23v-10h2v-18h2v-8c-2.2,0-4-1.8-4-4v-4c0-2.2,1.8-4,4-4h14
	c2.2,0,4,1.8,4,4h2v-2c0-2.2,1.8-4,4-4s4,1.8,4,4v12c0,4.4,3.6,8,8,8h4v-2h8c8.8,0,16,7.2,16,16v2H286z M284,215v-6h-22h-2h-22h-20
	v6h6v-2h2v2h6v-2h2v2h3.3c0.8-2.3,3.1-4,5.7-4s4.8,1.7,5.7,4h3.3v-2h2v2h6v-2h2v2h6v-2h2v2h6v-2h2v2H284z M282,207v-2
	c0-7.7-6.3-14-14-14h-6v16H282z M260,207v-14h-8c-5.5,0-10-4.5-10-10v-6c0-1.1-0.9-2-2-2h-2v2c0,2.2-1.8,4-4,4h-12v8
	c8.8,0,16,7.2,16,16v2h2H260z M249.5,190.6c-2.1-1.8-3.5-4.5-3.5-7.6v-12c0-1.1-0.9-2-2-2s-2,0.9-2,2v2.6c1.2,0.7,2,2,2,3.4v6
	C244,186.6,246.3,189.5,249.5,190.6z M236,207v-2c0-7.7-6.3-14-14-14h-2v16H236z M236,177v-4c0-1.1-0.9-2-2-2h-14c-1.1,0-2,0.9-2,2
	v4c0,1.1,0.9,2,2,2h14C235.1,179,236,178.1,236,177z"/>
<path class="st0" d="M446,199v8h-30c-6,0-16-4-18-4v4h-22v-10h2v-14h2h18c2.2,0,4-1.8,4-4l2.1,2.1c3.8,3.8,8.9,6.1,14.3,6.4L440,189
	c2.2,0,4,1.8,4,4v6H446z M444,205v-4h-28c-2.2,0-6.9-0.6-11.3-1.1c-3.6-0.4-7.3-0.9-8.7-0.9h-18v6h18v-2v-2h2c1,0,2.4,0.4,5.4,1.3
	c3.8,1.1,9.1,2.7,12.6,2.7H444z M442,199v-6c0-1.1-0.9-2-2-2l-21.8-1.5c-5.8-0.3-11.3-2.8-15.5-6.9c-1.1,1.4-2.8,2.4-4.8,2.4h-18v12
	h16c3.1,0,16,2,20,2H442z"/>
<circle class="st2" cx="48" cy="301" r="2"/>
<circle class="st2" cx="36" cy="301" r="2"/>
<circle class="st2" cx="208" cy="301" r="2"/>
<circle class="st2" cx="196" cy="301" r="2"/>
<circle class="st2" cx="368" cy="301" r="2"/>
<circle class="st2" cx="356" cy="301" r="2"/>
<circle class="st1" cx="250" cy="525" r="6"/>
<g>
	<path class="st0" d="M278,37h-16c-4.4,0-8,3.6-8,8v20c0,4.4,3.6,8,8,8h22.5c0.3,0,0.5-0.2,0.5-0.5v-3c0-0.3-0.2-0.5-0.5-0.5H262
		c-2.2,0-4-1.8-4-4v-6h27.5c0.3,0,0.5-0.2,0.5-0.5V45C286,40.6,282.4,37,278,37z M282,54.5c0,0.3-0.2,0.5-0.5,0.5H258V45
		c0-2.2,1.8-4,4-4h16c2.2,0,4,1.8,4,4V54.5z"/>
	<path class="st0" d="M238,37h-6c-3.6,0-6.8,1.6-9,4.1c-1.4-2.4-4-4.1-7-4.1h-6c-3.1,0-5.9,1.2-8,3.1v-2.6c0-0.3-0.2-0.5-0.5-0.5h-3
		c-0.3,0-0.5,0.2-0.5,0.5v35c0,0.3,0.2,0.5,0.5,0.5h3c0.3,0,0.5-0.2,0.5-0.5V49c0-4.4,3.6-8,8-8h6c2.2,0,4,1.8,4,4v27.5
		c0,0.3,0.2,0.5,0.5,0.5h3c0.3,0,0.5-0.2,0.5-0.5V49c0-4.4,3.6-8,8-8h6c2.2,0,4,1.8,4,4v27.5c0,0.3,0.2,0.5,0.5,0.5h3
		c0.3,0,0.5-0.2,0.5-0.5V45C246,40.6,242.4,37,238,37z"/>
	<path class="st0" d="M386,37h-12c-3.1,0-5.9,1.2-8,3.1V25.5c0-0.3-0.2-0.5-0.5-0.5h-3c-0.3,0-0.5,0.2-0.5,0.5v47
		c0,0.3,0.2,0.5,0.5,0.5h3c0.3,0,0.5-0.2,0.5-0.5V49c0-4.4,3.6-8,8-8h12c2.2,0,4,1.8,4,4v27.5c0,0.3,0.2,0.5,0.5,0.5h3
		c0.3,0,0.5-0.2,0.5-0.5V45C394,40.6,390.4,37,386,37z"/>
	<path class="st0" d="M318,37h-12c-3.1,0-5.9,1.2-8,3.1v-2.6c0-0.3-0.2-0.5-0.5-0.5h-3c-0.3,0-0.5,0.2-0.5,0.5v35
		c0,0.3,0.2,0.5,0.5,0.5h3c0.3,0,0.5-0.2,0.5-0.5V49c0-4.4,3.6-8,8-8h12c2.2,0,4,1.8,4,4v27.5c0,0.3,0.2,0.5,0.5,0.5h3
		c0.3,0,0.5-0.2,0.5-0.5V45C326,40.6,322.4,37,318,37z"/>
	<path class="st0" d="M182,37h-16c-4.4,0-8,3.6-8,8v20c0,4.4,3.6,8,8,8h22.5c0.3,0,0.5-0.2,0.5-0.5v-3c0-0.3-0.2-0.5-0.5-0.5H166
		c-2.2,0-4-1.8-4-4v-6h27.5c0.3,0,0.5-0.2,0.5-0.5V45C190,40.6,186.4,37,182,37z M186,54.5c0,0.3-0.2,0.5-0.5,0.5H162V45
		c0-2.2,1.8-4,4-4h16c2.2,0,4,1.8,4,4V54.5z"/>
	<path class="st0" d="M150,25.5c0-0.3-0.2-0.5-0.5-0.5h-3c-0.3,0-0.5,0.2-0.5,0.5v47c0,0.3,0.2,0.5,0.5,0.5h3c0.3,0,0.5-0.2,0.5-0.5
		V25.5z"/>
	<path class="st0" d="M355.5,69H344c-3.3,0-6-2.7-6-6V41h16.5c0.3,0,0.5-0.2,0.5-0.5v-3c0-0.3-0.2-0.5-0.5-0.5H338v-7.5
		c0-0.3-0.2-0.5-0.5-0.5h-3c-0.3,0-0.5,0.2-0.5,0.5V63c0,5.5,4.5,10,10,10h11.5c0.3,0,0.5-0.2,0.5-0.5v-3
		C356,69.2,355.8,69,355.5,69z"/>
	<path class="st0" d="M122,35c2.8,0,5-2.2,5-5s-2.2-5-5-5s-5,2.2-5,5S119.2,35,122,35z M122,28c1.1,0,2,0.9,2,2s-0.9,2-2,2
		s-2-0.9-2-2S120.9,28,122,28z"/>
	<path class="st0" d="M130,37h-16c-4.4,0-8,3.6-8,8v20c0,4.4,3.6,8,8,8h22.5c0.3,0,0.5-0.2,0.5-0.5v-3c0-0.3-0.2-0.5-0.5-0.5H114
		c-2.2,0-4-1.8-4-4v-6h27.5c0.3,0,0.5-0.2,0.5-0.5V45C138,40.6,134.4,37,130,37z M134,54.5c0,0.3-0.2,0.5-0.5,0.5H110V45
		c0-2.2,1.8-4,4-4h16c2.2,0,4,1.8,4,4V54.5z"/>
</g>
</svg>
