<?xml version="1.0" encoding="utf-8"?>
<!-- Generator: Adobe Illustrator 20.1.0, SVG Export Plug-In . SVG Version: 6.00 Build 0)  -->
<svg version="1.1" id="Слой_1" xmlns="http://www.w3.org/2000/svg" xmlns:xlink="http://www.w3.org/1999/xlink" x="0px" y="0px"
	 viewBox="0 0 1399 1019.3" style="enable-background:new 0 0 1399 1019.3;" xml:space="preserve">
<style type="text/css">
	.st0{fill:#FFFFFF;}
	.st1{opacity:0.2;fill:#FFFFFF;}
	.st2{font-family:'Play-Regular';}
	.st3{font-size:32px;}
	.st4{font-size:24px;}
	.st5{opacity:0.4;fill:#FFFFFF;}
	.st6{opacity:0.6;fill:#FFFFFF;}
	.st7{fill:#BDBDBD;}
	.st8{opacity:0.5;fill:#FFFFFF;}
	.st9{font-size:40px;}
	.st10{opacity:0.3;fill:#FFFFFF;}
</style>
<path class="st0" d="M956,244c6.6,0,12,5.4,12,12v704c0,6.6-5.4,12-12,12H44c-6.6,0-12-5.4-12-12V256c0-6.6,5.4-12,12-12H956
	 M956,240H44c-8.8,0-16,7.2-16,16v704c0,8.8,7.2,16,16,16h912c8.8,0,16-7.2,16-16V256C972,247.2,964.8,240,956,240L956,240z"/>
<path class="st0" d="M998,176H402c-1.1,0-2-0.9-2-2s0.9-2,2-2h596c1.1,0,2,0.9,2,2S999.1,176,998,176z"/>
<rect x="188" y="480" class="st1" width="120" height="16"/>
<path class="st0" d="M756,64h-32c-8.8,0-16,7.2-16,16v40c0,8.8,7.2,16,16,16h45c0.6,0,1-0.4,1-1v-6c0-0.6-0.4-1-1-1h-45
	c-4.4,0-8-3.6-8-8v-12h55c0.6,0,1-0.4,1-1V80C772,71.2,764.8,64,756,64z M764,99c0,0.6-0.4,1-1,1h-47V80c0-4.4,3.6-8,8-8h32
	c4.4,0,8,3.6,8,8V99z"/>
<path class="st0" d="M676,64h-12c-7.2,0-13.6,3.2-18,8.2c-2.8-4.8-8-8.2-14-8.2h-12c-6.2,0-11.8,2.4-16,6.2V65c0-0.6-0.4-1-1-1h-6
	c-0.6,0-1,0.4-1,1v70c0,0.6,0.4,1,1,1h6c0.6,0,1-0.4,1-1V88c0-8.8,7.2-16,16-16h12c4.4,0,8,3.6,8,8v55c0,0.6,0.4,1,1,1h6
	c0.6,0,1-0.4,1-1V88c0-8.8,7.2-16,16-16h12c4.4,0,8,3.6,8,8v55c0,0.6,0.4,1,1,1h6c0.6,0,1-0.4,1-1V80C692,71.2,684.8,64,676,64z"/>
<path class="st0" d="M972,64h-24c-6.2,0-11.8,2.4-16,6.2V41c0-0.6-0.4-1-1-1h-6c-0.6,0-1,0.4-1,1v94c0,0.6,0.4,1,1,1h6
	c0.6,0,1-0.4,1-1V88c0-8.8,7.2-16,16-16h24c4.4,0,8,3.6,8,8v55c0,0.6,0.4,1,1,1h6c0.6,0,1-0.4,1-1V80C988,71.2,980.8,64,972,64z"/>
<path class="st0" d="M836,64h-24c-6.2,0-11.8,2.4-16,6.2V65c0-0.6-0.4-1-1-1h-6c-0.6,0-1,0.4-1,1v70c0,0.6,0.4,1,1,1h6
	c0.6,0,1-0.4,1-1V88c0-8.8,7.2-16,16-16h24c4.4,0,8,3.6,8,8v55c0,0.6,0.4,1,1,1h6c0.6,0,1-0.4,1-1V80C852,71.2,844.8,64,836,64z"/>
<path class="st0" d="M564,64h-32c-8.8,0-16,7.2-16,16v40c0,8.8,7.2,16,16,16h45c0.6,0,1-0.4,1-1v-6c0-0.6-0.4-1-1-1h-45
	c-4.4,0-8-3.6-8-8v-12h55c0.6,0,1-0.4,1-1V80C580,71.2,572.8,64,564,64z M572,99c0,0.6-0.4,1-1,1h-47V80c0-4.4,3.6-8,8-8h32
	c4.4,0,8,3.6,8,8V99z"/>
<path class="st0" d="M500,41c0-0.6-0.4-1-1-1h-6c-0.6,0-1,0.4-1,1v94c0,0.6,0.4,1,1,1h6c0.6,0,1-0.4,1-1V41z"/>
<path class="st0" d="M911,128h-23c-6.6,0-12-5.4-12-12V72h33c0.6,0,1-0.4,1-1v-6c0-0.6-0.4-1-1-1h-33V49c0-0.6-0.4-1-1-1h-6
	c-0.6,0-1,0.4-1,1v67c0,11,9,20,20,20h23c0.6,0,1-0.4,1-1v-6C912,128.4,911.6,128,911,128z"/>
<path class="st0" d="M444,60c5.6,0,10-4.4,10-10s-4.4-10-10-10s-10,4.4-10,10S438.4,60,444,60z M444,46c2.2,0,4,1.8,4,4s-1.8,4-4,4
	s-4-1.8-4-4S441.8,46,444,46z"/>
<path class="st0" d="M460,64h-32c-8.8,0-16,7.2-16,16v40c0,8.8,7.2,16,16,16h45c0.6,0,1-0.4,1-1v-6c0-0.6-0.4-1-1-1h-45
	c-4.4,0-8-3.6-8-8v-12h55c0.6,0,1-0.4,1-1V80C476,71.2,468.8,64,460,64z M468,99c0,0.6-0.4,1-1,1h-47V80c0-4.4,3.6-8,8-8h32
	c4.4,0,8,3.6,8,8V99z"/>
<text transform="matrix(1 0 0 1 75.9995 576)" class="st0 st2 st3">Data:</text>
<text transform="matrix(1 0 0 1 75.9995 496.0005)" class="st0 st2 st3">Name:</text>
<text transform="matrix(1 0 0 1 75.9995 416.0005)" class="st0 st2 st3">@account1</text>
<rect x="64" y="526" class="st0" width="264" height="2"/>
<rect x="172" y="560" class="st1" width="136" height="16"/>
<rect x="532" y="480" class="st1" width="384" height="16"/>
<text transform="matrix(1 0 0 1 661.04 912)" class="st0 st2 st4">10</text>
<text transform="matrix(1 0 0 1 668 864)" class="st0 st2 st4">3</text>
<text transform="matrix(1 0 0 1 657.668 806)" class="st0 st2 st4">qty</text>
<text transform="matrix(1 0 0 1 491.9995 912)" class="st5 st2 st4">@account3</text>
<text transform="matrix(1 0 0 1 491.9995 864)" class="st6 st2 st4">@account2</text>
<text transform="matrix(1 0 0 1 491.9995 806)" class="st0 st2 st4">@account</text>
<text transform="matrix(1 0 0 1 475.9995 736)" class="st0 st2 st3">Balances</text>
<path class="st7" d="M919,882h-2v-2h2V882z M915,882h-2v-2h2V882z M911,882h-2v-2h2V882z M907,882h-2v-2h2V882z M903,882h-2v-2h2
	V882z M899,882h-2v-2h2V882z M895,882h-2v-2h2V882z M891,882h-2v-2h2V882z M887,882h-2v-2h2V882z M883,882h-2v-2h2V882z M879,882h-2
	v-2h2V882z M875,882h-2v-2h2V882z M871,882h-2v-2h2V882z M867,882h-2v-2h2V882z M863,882h-2v-2h2V882z M859,882h-2v-2h2V882z
	 M855,882h-2v-2h2V882z M851,882h-2v-2h2V882z M847,882h-2v-2h2V882z M843,882h-2v-2h2V882z M839,882h-2v-2h2V882z M835,882h-2v-2h2
	V882z M831,882h-2v-2h2V882z M827,882h-2v-2h2V882z M823,882h-2v-2h2V882z M819,882h-2v-2h2V882z M815,882h-2v-2h2V882z M811,882h-2
	v-2h2V882z M807,882h-2v-2h2V882z M803,882h-2v-2h2V882z M799,882h-2v-2h2V882z M795,882h-2v-2h2V882z M791,882h-2v-2h2V882z
	 M787,882h-2v-2h2V882z M783,882h-2v-2h2V882z M779,882h-2v-2h2V882z M775,882h-2v-2h2V882z M771,882h-2v-2h2V882z M767,882h-2v-2h2
	V882z M763,882h-2v-2h2V882z M759,882h-2v-2h2V882z M755,882h-2v-2h2V882z M751,882h-2v-2h2V882z M747,882h-2v-2h2V882z M743,882h-2
	v-2h2V882z M739,882h-2v-2h2V882z M735,882h-2v-2h2V882z M731,882h-2v-2h2V882z M727,882h-2v-2h2V882z M723,882h-2v-2h2V882z
	 M719,882h-2v-2h2V882z M715,882h-2v-2h2V882z M711,882h-2v-2h2V882z M707,882h-2v-2h2V882z M703,882h-2v-2h2V882z M699,882h-2v-2h2
	V882z M695,882h-2v-2h2V882z M691,882h-2v-2h2V882z M687,882h-2v-2h2V882z M683,882h-2v-2h2V882z M679,882h-2v-2h2V882z M675,882h-2
	v-2h2V882z M671,882h-2v-2h2V882z M667,882h-2v-2h2V882z M663,882h-2v-2h2V882z M659,882h-2v-2h2V882z M655,882h-2v-2h2V882z
	 M651,882h-2v-2h2V882z M647,882h-2v-2h2V882z M643,882h-2v-2h2V882z M639,882h-2v-2h2V882z M635,882h-2v-2h2V882z M631,882h-2v-2h2
	V882z M627,882h-2v-2h2V882z M623,882h-2v-2h2V882z M619,882h-2v-2h2V882z M615,882h-2v-2h2V882z M611,882h-2v-2h2V882z M607,882h-2
	v-2h2V882z M603,882h-2v-2h2V882z M599,882h-2v-2h2V882z M595,882h-2v-2h2V882z M591,882h-2v-2h2V882z M587,882h-2v-2h2V882z
	 M583,882h-2v-2h2V882z M579,882h-2v-2h2V882z M575,882h-2v-2h2V882z M571,882h-2v-2h2V882z M567,882h-2v-2h2V882z M563,882h-2v-2h2
	V882z M559,882h-2v-2h2V882z M555,882h-2v-2h2V882z M551,882h-2v-2h2V882z M547,882h-2v-2h2V882z M543,882h-2v-2h2V882z M539,882h-2
	v-2h2V882z M535,882h-2v-2h2V882z M531,882h-2v-2h2V882z M527,882h-2v-2h2V882z M523,882h-2v-2h2V882z M519,882h-2v-2h2V882z
	 M515,882h-2v-2h2V882z M511,882h-2v-2h2V882z M507,882h-2v-2h2V882z M503,882h-2v-2h2V882z M499,882h-2v-2h2V882z M495,882h-2v-2h2
	V882z M491,882h-2v-2h2V882z M487,882h-2v-2h2V882z M483,882h-2v-2h2V882z"/>
<path class="st8" d="M919,882h-2v-2h2V882z M915,882h-2v-2h2V882z M911,882h-2v-2h2V882z M907,882h-2v-2h2V882z M903,882h-2v-2h2
	V882z M899,882h-2v-2h2V882z M895,882h-2v-2h2V882z M891,882h-2v-2h2V882z M887,882h-2v-2h2V882z M883,882h-2v-2h2V882z M879,882h-2
	v-2h2V882z M875,882h-2v-2h2V882z M871,882h-2v-2h2V882z M867,882h-2v-2h2V882z M863,882h-2v-2h2V882z M859,882h-2v-2h2V882z
	 M855,882h-2v-2h2V882z M851,882h-2v-2h2V882z M847,882h-2v-2h2V882z M843,882h-2v-2h2V882z M839,882h-2v-2h2V882z M835,882h-2v-2h2
	V882z M831,882h-2v-2h2V882z M827,882h-2v-2h2V882z M823,882h-2v-2h2V882z M819,882h-2v-2h2V882z M815,882h-2v-2h2V882z M811,882h-2
	v-2h2V882z M807,882h-2v-2h2V882z M803,882h-2v-2h2V882z M799,882h-2v-2h2V882z M795,882h-2v-2h2V882z M791,882h-2v-2h2V882z
	 M787,882h-2v-2h2V882z M783,882h-2v-2h2V882z M779,882h-2v-2h2V882z M775,882h-2v-2h2V882z M771,882h-2v-2h2V882z M767,882h-2v-2h2
	V882z M763,882h-2v-2h2V882z M759,882h-2v-2h2V882z M755,882h-2v-2h2V882z M751,882h-2v-2h2V882z M747,882h-2v-2h2V882z M743,882h-2
	v-2h2V882z M739,882h-2v-2h2V882z M735,882h-2v-2h2V882z M731,882h-2v-2h2V882z M727,882h-2v-2h2V882z M723,882h-2v-2h2V882z
	 M719,882h-2v-2h2V882z M715,882h-2v-2h2V882z M711,882h-2v-2h2V882z M707,882h-2v-2h2V882z M703,882h-2v-2h2V882z M699,882h-2v-2h2
	V882z M695,882h-2v-2h2V882z M691,882h-2v-2h2V882z M687,882h-2v-2h2V882z M683,882h-2v-2h2V882z M679,882h-2v-2h2V882z M675,882h-2
	v-2h2V882z M671,882h-2v-2h2V882z M667,882h-2v-2h2V882z M663,882h-2v-2h2V882z M659,882h-2v-2h2V882z M655,882h-2v-2h2V882z
	 M651,882h-2v-2h2V882z M647,882h-2v-2h2V882z M643,882h-2v-2h2V882z M639,882h-2v-2h2V882z M635,882h-2v-2h2V882z M631,882h-2v-2h2
	V882z M627,882h-2v-2h2V882z M623,882h-2v-2h2V882z M619,882h-2v-2h2V882z M615,882h-2v-2h2V882z M611,882h-2v-2h2V882z M607,882h-2
	v-2h2V882z M603,882h-2v-2h2V882z M599,882h-2v-2h2V882z M595,882h-2v-2h2V882z M591,882h-2v-2h2V882z M587,882h-2v-2h2V882z
	 M583,882h-2v-2h2V882z M579,882h-2v-2h2V882z M575,882h-2v-2h2V882z M571,882h-2v-2h2V882z M567,882h-2v-2h2V882z M563,882h-2v-2h2
	V882z M559,882h-2v-2h2V882z M555,882h-2v-2h2V882z M551,882h-2v-2h2V882z M547,882h-2v-2h2V882z M543,882h-2v-2h2V882z M539,882h-2
	v-2h2V882z M535,882h-2v-2h2V882z M531,882h-2v-2h2V882z M527,882h-2v-2h2V882z M523,882h-2v-2h2V882z M519,882h-2v-2h2V882z
	 M515,882h-2v-2h2V882z M511,882h-2v-2h2V882z M507,882h-2v-2h2V882z M503,882h-2v-2h2V882z M499,882h-2v-2h2V882z M495,882h-2v-2h2
	V882z M491,882h-2v-2h2V882z M487,882h-2v-2h2V882z M483,882h-2v-2h2V882z"/>
<rect x="476" y="830" class="st0" width="448" height="2"/>
<rect x="464" y="686" class="st0" width="472" height="2"/>
<text transform="matrix(1 0 0 1 475.9995 656)" class="st0 st2 st3">Product_card_hash</text>
<text transform="matrix(1 0 0 1 475.9995 576)" class="st0 st2 st3">Owner: @account1</text>
<text transform="matrix(1 0 0 1 475.9995 496.0005)" class="st0 st2 st3">ID:</text>
<text transform="matrix(1 0 0 1 475.9995 416.0005)" class="st0 st2 st3">@product</text>
<rect x="32" y="336" class="st0" width="936" height="4"/>
<rect x="464" y="444" class="st0" width="472" height="4"/>
<rect x="464" y="606" class="st0" width="472" height="2"/>
<rect x="464" y="526" class="st0" width="472" height="2"/>
<text transform="matrix(1 0 0 1 312.7432 300.0903)" class="st0 st2 st9">Elementh Blockchain</text>
<text transform="matrix(1 0 0 1 754.2393 864)" class="st6 st2 st4">skus_hash_1</text>
<text transform="matrix(1 0 0 1 748 806)" class="st0 st2 st4">serial_number</text>
<rect x="795.8" y="904" class="st0" width="60" height="2"/>
<rect x="1196" y="560" class="st1" width="120" height="16"/>
<rect x="1072" y="606" class="st0" width="264" height="2"/>
<text transform="matrix(1 0 0 1 1084 576)" class="st0 st2 st3">Name:</text>
<text transform="matrix(1 0 0 1 1084 496.0005)" class="st0 st2 st3">Product_card</text>
<rect x="1068" y="526" class="st0" width="272" height="4"/>
<text transform="matrix(1 0 0 1 1084 656)" class="st0 st2 st3">Other properties</text>
<text transform="matrix(1 0 0 1 1101.7305 896)" class="st0 st2 st3">[003;018;125]</text>
<text transform="matrix(1 0 0 1 1084 816)" class="st0 st2 st3">serial_number</text>
<path class="st0" d="M468,858h-32c-14.3,0-26-11.7-26-26V448c0-12.1-9.9-22-22-22h-34v-4h34c14.3,0,26,11.7,26,26v384
	c0,12.1,9.9,22,22,22h32V858z"/>
<path class="st0" d="M456,570h-4c-14.3,0-26-11.7-26-26v-96c0-21-17-38-38-38h-50v-4h50c23.2,0,42,18.8,42,42v96
	c0,12.1,9.9,22,22,22h4V570z"/>
<path class="st0" d="M468,906h-48c-14.3,0-26-11.7-26-26V448c0-3.3-2.7-6-6-6h-18v-4h18c5.5,0,10,4.5,10,10v432c0,12.1,9.9,22,22,22
	h48V906z"/>
<rect x="1072" y="846" class="st0" width="264" height="4"/>
<path class="st0" d="M1204,260c42.5,0,77.7,4.4,104.7,13c39.3,12.5,59.3,33.7,59.3,63s-20,50.5-59.3,63c-27,8.6-62.2,13-104.7,13
	s-77.7-4.4-104.7-13c-39.3-12.5-59.3-33.7-59.3-63s20-50.5,59.3-63C1126.3,264.4,1161.5,260,1204,260 M1204,256
	c-58.4,0-168,8.4-168,80s109.6,80,168,80s168-8.4,168-80S1262.4,256,1204,256L1204,256z"/>
<path class="st0" d="M1308.7,719c-27,8.6-62.2,13-104.7,13s-77.7-4.4-104.7-13c-39.3-12.5-59.3-33.7-59.3-63h-4
	c0,71.6,109.6,80,168,80s168-8.4,168-80h-4C1368,685.3,1348,706.5,1308.7,719z"/>
<path class="st0" d="M1308.7,959c-27,8.6-62.2,13-104.7,13s-77.7-4.4-104.7-13c-39.3-12.5-59.3-33.7-59.3-63h-4
	c0,71.6,109.6,80,168,80s168-8.4,168-80h-4C1368,925.3,1348,946.5,1308.7,959z"/>
<rect x="1036" y="336" class="st0" width="4" height="560"/>
<rect x="1368" y="336" class="st0" width="4" height="560"/>
<text transform="matrix(1 0 0 1 1073.4414 352.0005)" class="st0 st2 st9">Elementh IPFS</text>
<path class="st0" d="M502,240h-4v-8c0-14.3,11.7-26,26-26h132c12.1,0,22-9.9,22-22v-8h4v8c0,14.3-11.7,26-26,26H524
	c-12.1,0-22,9.9-22,22V240z"/>
<path class="st0" d="M1206,256h-4v-24c0-12.1-9.9-22-22-22H744c-14.3,0-26-11.7-26-26v-8h4v8c0,12.1,9.9,22,22,22h436
	c14.3,0,26,11.7,26,26V256z"/>
<path class="st10" d="M464,528v30.2c4.6,0.9,8,5,8,9.8s-3.4,8.9-8,9.8V606h472v-78H464z"/>
<path class="st0" d="M462,562c3.3,0,6,2.7,6,6s-2.7,6-6,6s-6-2.7-6-6S458.7,562,462,562 M462,558c-5.5,0-10,4.5-10,10s4.5,10,10,10
	s10-4.5,10-10S467.5,558,462,558L462,558z"/>
<path class="st0" d="M476,898c3.3,0,6,2.7,6,6s-2.7,6-6,6s-6-2.7-6-6S472.7,898,476,898 M476,894c-5.5,0-10,4.5-10,10s4.5,10,10,10
	s10-4.5,10-10S481.5,894,476,894L476,894z"/>
<path class="st0" d="M478,865.8c-0.6,0.1-1.3,0.2-2,0.2v28c0.7,0,1.4,0.1,2,0.2V865.8z"/>
<path class="st0" d="M476,850c3.3,0,6,2.7,6,6s-2.7,6-6,6s-6-2.7-6-6S472.7,850,476,850 M476,846c-5.5,0-10,4.5-10,10s4.5,10,10,10
	s10-4.5,10-10S481.5,846,476,846L476,846z"/>
<path class="st0" d="M330,418c-0.7,0-1.4-0.1-2-0.2V444H64v-60c0-6.6,5.4-12,12-12h240c6.6,0,12,5.4,12,12v14.2
	c0.6-0.1,1.3-0.2,2-0.2s1.4,0.1,2,0.2V384c0-8.8-7.2-16-16-16H76c-8.8,0-16,7.2-16,16v60v4v144c0,8.8,7.2,16,16,16h240
	c8.8,0,16-7.2,16-16V448v-4v-26.2C331.4,417.9,330.7,418,330,418z M328,592c0,6.6-5.4,12-12,12H76c-6.6,0-12-5.4-12-12V448h264V592z
	"/>
<path class="st0" d="M330,402c3.3,0,6,2.7,6,6s-2.7,6-6,6s-6-2.7-6-6S326.7,402,330,402 M330,398c-5.5,0-10,4.5-10,10s4.5,10,10,10
	s10-4.5,10-10S335.5,398,330,398L330,398z"/>
<path class="st0" d="M346,418c3.3,0,6,2.7,6,6s-2.7,6-6,6s-6-2.7-6-6S342.7,418,346,418 M346,414c-5.5,0-10,4.5-10,10s4.5,10,10,10
	s10-4.5,10-10S351.5,414,346,414L346,414z"/>
<path class="st0" d="M362,434c3.3,0,6,2.7,6,6s-2.7,6-6,6s-6-2.7-6-6S358.7,434,362,434 M362,430c-5.5,0-10,4.5-10,10s4.5,10,10,10
	s10-4.5,10-10S367.5,430,362,430L362,430z"/>
<path class="st0" d="M980,650h-32v-4h32c12.1,0,22-9.9,22-22V512c0-14.3,11.7-26,26-26h32v4h-32c-12.1,0-22,9.9-22,22v112
	C1006,638.3,994.3,650,980,650z"/>
<path class="st0" d="M940,642c3.3,0,6,2.7,6,6s-2.7,6-6,6s-6-2.7-6-6S936.7,642,940,642 M940,638c-5.5,0-10,4.5-10,10s4.5,10,10,10
	s10-4.5,10-10S945.5,638,940,638L940,638z"/>
<path class="st8" d="M1324,452h-240c-6.6,0-12,5.4-12,12v14.8c3.5,1.5,6,5.1,6,9.2s-2.5,7.6-6,9.2V526h264v-62
	C1336,457.4,1330.6,452,1324,452z"/>
<path class="st0" d="M1068,482c3.3,0,6,2.7,6,6s-2.7,6-6,6s-6-2.7-6-6S1064.7,482,1068,482 M1068,478c-5.5,0-10,4.5-10,10
	s4.5,10,10,10s10-4.5,10-10S1073.5,478,1068,478L1068,478z"/>
<path class="st0" d="M980,858h-48v-4h48c12.1,0,22-9.9,22-22c0-14.3,11.7-26,26-26h32v4h-32c-12.1,0-22,9.9-22,22
	C1006,846.3,994.3,858,980,858z"/>
<g>
	<path class="st0" d="M478,772c0-1.1,0.9-2,2-2h440c1.1,0,2,0.9,2,2v74.2c0.6-0.1,1.3-0.2,2-0.2v-74c0-2.2-1.8-4-4-4H480
		c-2.2,0-4,1.8-4,4v74c0.7,0,1.4,0.1,2,0.2V772z"/>
	<path class="st0" d="M922,924c0,1.1-0.9,2-2,2H480c-1.1,0-2-0.9-2-2v-10.2c-0.6,0.1-1.3,0.2-2,0.2v10c0,2.2,1.8,4,4,4h440
		c2.2,0,4-1.8,4-4v-58c-0.7,0-1.4-0.1-2-0.2V924z"/>
</g>
<path class="st0" d="M924,850c3.3,0,6,2.7,6,6s-2.7,6-6,6s-6-2.7-6-6S920.7,850,924,850 M924,846c-5.5,0-10,4.5-10,10s4.5,10,10,10
	s10-4.5,10-10S929.5,846,924,846L924,846z"/>
<path class="st10" d="M1324,772h-240c-6.6,0-12,5.4-12,12v14.8c3.5,1.5,6,5.1,6,9.2s-2.5,7.6-6,9.2V846h264v-62
	C1336,777.4,1330.6,772,1324,772z"/>
<path class="st0" d="M1068,802c3.3,0,6,2.7,6,6s-2.7,6-6,6s-6-2.7-6-6S1064.7,802,1068,802 M1068,798c-5.5,0-10,4.5-10,10
	s4.5,10,10,10s10-4.5,10-10S1073.5,798,1068,798L1068,798z"/>
<path class="st10" d="M320,408c0-4.8,3.4-8.9,8-9.8V378c0-3.3-2.7-6-6-6H70c-3.3,0-6,2.7-6,6v66h264v-26.2
	C323.4,416.9,320,412.8,320,408z"/>
<path class="st0" d="M1324,768h-240c-8.8,0-16,7.2-16,16v14c1.4,0,2.8,0.3,4,0.8V784c0-6.6,5.4-12,12-12h240c6.6,0,12,5.4,12,12v128
	c0,6.6-5.4,12-12,12h-240c-6.6,0-12-5.4-12-12v-94.8c-1.2,0.5-2.6,0.8-4,0.8v94c0,8.8,7.2,16,16,16h240c8.8,0,16-7.2,16-16V784
	C1340,775.2,1332.8,768,1324,768z"/>
<g>
	<path class="st0" d="M344,400v14.2c0.6-0.1,1.3-0.2,2-0.2s1.4,0.1,2,0.2V400c0-8.8-7.2-16-16-16v4C338.6,388,344,393.4,344,400z"/>
	<path class="st0" d="M346,434c-0.7,0-1.4-0.1-2-0.2V608c0,6.6-5.4,12-12,12H92c-6.6,0-12-5.4-12-12h-4c0,8.8,7.2,16,16,16h240
		c8.8,0,16-7.2,16-16V433.8C347.4,433.9,346.7,434,346,434z"/>
</g>
<g>
	<path class="st0" d="M360,416v14.2c0.6-0.1,1.3-0.2,2-0.2s1.4,0.1,2,0.2V416c0-8.8-7.2-16-16-16v4C354.6,404,360,409.4,360,416z"/>
	<path class="st0" d="M362,450c-0.7,0-1.4-0.1-2-0.2V624c0,6.6-5.4,12-12,12H108c-6.6,0-12-5.4-12-12h-4c0,8.8,7.2,16,16,16h240
		c8.8,0,16-7.2,16-16V449.8C363.4,449.9,362.7,450,362,450z"/>
</g>
<path class="st0" d="M1324,448h-240c-8.8,0-16,7.2-16,16v14c1.4,0,2.8,0.3,4,0.8V464c0-6.6,5.4-12,12-12h240c6.6,0,12,5.4,12,12v208
	c0,6.6-5.4,12-12,12h-240c-6.6,0-12-5.4-12-12V497.2c-1.2,0.5-2.6,0.8-4,0.8v174c0,8.8,7.2,16,16,16h240c8.8,0,16-7.2,16-16V464
	C1340,455.2,1332.8,448,1324,448z"/>
<g>
	<path class="st0" d="M464,558.2V384c0-6.6,5.4-12,12-12h448c6.6,0,12,5.4,12,12v254.8c1.2-0.5,2.6-0.8,4-0.8V384
		c0-8.8-7.2-16-16-16H476c-8.8,0-16,7.2-16,16v174.2c0.6-0.1,1.3-0.2,2-0.2S463.4,558.1,464,558.2z"/>
	<path class="st0" d="M936,928c0,6.6-5.4,12-12,12H476c-6.6,0-12-5.4-12-12V577.8c-0.6,0.1-1.3,0.2-2,0.2s-1.4-0.1-2-0.2V928
		c0,8.8,7.2,16,16,16h448c8.8,0,16-7.2,16-16V658c-1.4,0-2.8-0.3-4-0.8V928z"/>
</g>
<path class="st8" d="M930,648c0-4.1,2.5-7.6,6-9.2V608H464v78h472v-28.8C932.5,655.6,930,652.1,930,648z"/>
</svg>
