<svg version="1.1" xmlns="http://www.w3.org/2000/svg" xmlns:xlink="http://www.w3.org/1999/xlink" x="0px" y="0px" width="129" height="129"
	 viewBox="0 0 129 129" style="enable-background:new 0 0 129 129;" xml:space="preserve">
    <g fill="#fff">
        <path d="M15,79h30V49H15V79z M16,50h27.9v27.9H16V50z"/>
        <rect x="20" y="59.5" width="1" height="9"/>
        <path d="M27.1,67.6c-2,0-3.6-1.6-3.6-3.6c0-2,1.6-3.6,3.6-3.6c1,0,2,0.4,2.6,1.1l0.6-0.7c-0.9-0.8-2.1-1.3-3.3-1.3
            c-2.6,0-4.7,2-4.7,4.5c0,2.6,2.1,4.6,4.6,4.6c1.2,0,2.4-0.5,3.4-1.4l-0.6-0.7C29.1,67.1,28.1,67.6,27.1,67.6z"/>
        <path d="M35.3,59.5c-2.6,0-4.7,2-4.7,4.5s2.1,4.6,4.7,4.6c2.6,0,4.7-2,4.7-4.6S37.9,59.5,35.3,59.5z M35.3,67.6
            c-2,0-3.6-1.6-3.6-3.6c0-2,1.6-3.6,3.6-3.6s3.6,1.6,3.6,3.6C39,66,37.3,67.6,35.3,67.6z"/>
        <path d="M56.4,59.9c-1.6,0-2.8,0.6-3.6,1.7v-6.1h-4.1v17.1h4.1v-1.6c0.9,1.1,2.1,1.7,3.7,1.7c3.4,0,5.7-2.5,5.7-6.3
            C62.2,62.4,59.9,59.9,56.4,59.9z M55.4,69.3c-1.6,0-2.6-1.2-2.6-3.1s1.1-3.1,2.6-3.1c1.6,0,2.7,1.3,2.7,3.1
            C58.1,68.1,57,69.3,55.4,69.3z"/>
        <path d="M69.4,59.9c-3.9,0-6.5,2.6-6.5,6.4c0,3.8,2.5,6.3,6.6,6.3c2.3,0,4.1-0.8,5.4-2.2l-2.1-2.1
            c-0.9,0.9-1.9,1.3-2.9,1.3c-1.4,0-2.4-0.8-2.9-2.2h8.6C75.9,62.8,73.7,59.9,69.4,59.9z M66.9,65.1c0.3-1.4,1.1-2.4,2.5-2.4
            s2.3,1,2.3,2.4H66.9z"/>
        <path d="M84.5,59.9c-1.8,0-3.2,0.8-4.1,2.2v-2h-4.1v12.4h4.1v-6.6c0.1-1.4,1.1-2.4,2.4-2.4c1.3,0,2.1,0.9,2.1,2.3v6.6
            H89v-7.9C89,61.7,87.1,59.9,84.5,59.9z"/>
        <path d="M96.2,69.3c-1.5,0-2.5-1.2-2.5-3c0-1.8,1-3,2.5-3c1.1,0,1.9,0.5,2.4,1.3l2.9-1.7c-1.1-1.9-3.1-2.9-5.6-2.9
            c-3.9,0-6.4,2.6-6.4,6.4c0,3.8,2.6,6.3,6.4,6.3c2.6,0,4.6-1.1,5.6-3l-3-1.7C98.1,68.9,97.3,69.3,96.2,69.3z"/>
        <path d="M110.5,59.9c-1.8,0-3.2,0.8-4.1,2.2v-6.6h-4.1v17.1h4.1v-6.1c0-1.6,0.9-2.8,2.4-2.8c1.3,0,2.1,0.9,2.1,2.3v6.6
            h4.1v-7.9C115,61.7,113.2,59.9,110.5,59.9z"/>
    </g>
</svg>
