<svg version="1.1" xmlns="http://www.w3.org/2000/svg" xmlns:xlink="http://www.w3.org/1999/xlink" x="0px" y="0px" width="129" height="129"
	 viewBox="0 0 129 129" style="enable-background:new 0 0 129 129;" xml:space="preserve">
    <g fill="#fff">
        <path d="M18.5,74.3H15V59.1h3.5V74.3z M27.1,74.2c-1,0-1.9-0.2-2.9-0.5c-0.9-0.4-1.8-0.9-2.5-1.7
            c-0.7-0.7-1.3-1.5-1.6-2.5c-0.4-0.9-0.6-1.9-0.6-2.9c0-1,0.2-2,0.6-2.9c0.4-0.9,0.9-1.7,1.6-2.4c0.7-0.7,1.6-1.3,2.5-1.7
            c0.9-0.4,1.9-0.5,2.9-0.5s1.9,0.2,2.8,0.5c0.9,0.4,1.8,0.9,2.5,1.7L30,63.8c-0.4-0.4-0.9-0.7-1.4-0.9s-1-0.3-1.5-0.3
            c-0.5,0-1,0.1-1.5,0.3c-0.5,0.2-0.9,0.5-1.3,0.9c-0.4,0.4-0.7,0.9-0.9,1.3c-0.2,0.5-0.3,1-0.3,1.6c0,0.5,0.1,1.1,0.3,1.5
            c0.2,0.5,0.5,0.9,0.9,1.3c0.4,0.4,0.9,0.7,1.3,0.9c0.5,0.2,1,0.3,1.5,0.3c0.5,0,1-0.1,1.5-0.3s1-0.5,1.4-0.9l2.5,2.5
            c-0.7,0.7-1.6,1.3-2.5,1.7C29,74.1,28.1,74.2,27.1,74.2z"/>
        <path d="M65.9,60.2c1.5,0,2.7,0.4,3.6,1.3c0.9,0.9,1.4,2.2,1.4,4v6.9h-1.2v-7c-0.1-1.3-0.4-2.3-1-3c-0.6-0.7-1.6-1-3-1
            c-0.8,0-1.5,0.2-2.1,0.5c-0.7,0.3-1.3,0.9-1.9,1.7c0.2,0.5,0.3,1.2,0.3,2v6.8h-1.2v-6.9c0-2.8-1.3-4.1-4-4.1
            c-1.6,0-2.8,0.7-3.8,1.9v9.1h-1.2V60.7h1l0.2,1.2c1.1-1.1,2.4-1.6,3.9-1.6c2,0,3.4,0.8,4.4,2.4c0.7-0.8,1.4-1.4,2.1-1.8
            C63.9,60.4,64.8,60.2,65.9,60.2z M72.8,69.1c-0.1-0.7,0.1-1.4,0.4-1.9s0.7-1,1.2-1.3s1.1-0.6,1.7-0.7c0.6-0.2,1.3-0.2,2-0.2
            c1,0,1.9,0.2,2.6,0.6s1.4,0.8,1.8,1.4v-0.5c0-1.7-0.3-2.9-1-3.7c-0.7-0.8-1.7-1.2-3.1-1.2c-0.8,0-1.6,0.2-2.4,0.5
            c-0.8,0.3-1.4,0.8-1.9,1.3l-0.7-1c0.6-0.6,1.3-1.1,2.2-1.5c0.9-0.3,1.8-0.5,2.7-0.5c1.7,0,3.1,0.5,4,1.4c0.9,0.9,1.3,2.4,1.3,4.5
            v6.3h-1l-0.2-1.2c-0.5,0.4-1.1,0.8-1.9,1.1c-0.9,0.3-1.7,0.5-2.5,0.5c-1.5,0-2.8-0.3-3.7-0.9C73.4,71.3,72.8,70.4,72.8,69.1
            L72.8,69.1z M82.5,70.2v-1.9c-0.3-0.6-0.9-1.1-1.7-1.6C79.9,66.3,79,66,78,65.9c-0.5,0-1,0-1.5,0.1c-0.5,0.1-0.9,0.3-1.3,0.5
            c-0.4,0.2-0.7,0.6-0.9,1C74.1,68,74,68.5,74,69c0.1,0.9,0.4,1.6,1.2,2c0.7,0.5,1.7,0.7,2.8,0.7c0.8,0,1.6-0.1,2.4-0.4
            C81.2,71.1,81.9,70.7,82.5,70.2z M91.8,60.3l-0.3,1.2c-0.1,0-0.3,0-0.5,0c-1.8,0-3.2,0.6-4.1,1.9v9.1h-1.2V60.7h1l0.3,1.2
            c1.1-1.1,2.5-1.6,4.2-1.6C91.3,60.3,91.5,60.3,91.8,60.3z M94.8,54.7v17.7h-1.2V54.7H94.8z M102.9,60.7l-5.8,5.8l6,5.9h-1.7
            l-5.9-5.9l5.7-5.8H102.9L102.9,60.7z M113.4,61.5l-0.6,1c-0.4-0.3-0.9-0.6-1.6-0.9s-1.4-0.4-2.1-0.4c-0.8,0-1.5,0.2-2,0.5
            c-0.5,0.3-0.8,0.8-0.8,1.4c-0.1,0.7,0.3,1.3,0.9,1.6c0.5,0.3,1.3,0.5,2.2,0.7c1.2,0.3,2.2,0.5,2.9,0.8c0.7,0.3,1.2,0.8,1.5,1.4
            c0.3,0.6,0.3,1.3,0.2,2.1c-0.2,1-0.8,1.7-1.8,2.2c-0.7,0.3-1.7,0.5-2.8,0.5c-0.9,0-1.8-0.2-2.8-0.5c-0.9-0.3-1.6-0.7-2.2-1.2l0.6-1
            l0.1,0.1c0.4,0.4,1,0.7,1.8,1c0.8,0.3,1.6,0.5,2.4,0.5c0.9,0,1.7-0.1,2.3-0.4c0.6-0.3,1-0.8,1.1-1.4c0.2-1-0.1-1.7-1.1-2.2
            c-0.6-0.3-1.5-0.5-2.5-0.7c-1.3-0.3-2.1-0.6-2.7-0.9c-1.1-0.6-1.6-1.5-1.5-2.7c0.1-1.1,0.5-1.9,1.4-2.5c0.7-0.5,1.5-0.7,2.6-0.7
            C110.7,60.1,112.2,60.6,113.4,61.5L113.4,61.5z"/>
        <path d="M40.2,59c-4.2,0-7.6,3.4-7.6,7.6s3.4,7.6,7.6,7.6s7.6-3.4,7.6-7.6S44.4,59,40.2,59z M43.8,67.6l0.7,3.9v0.1
            c0,0.1,0,0.2-0.1,0.3S44.2,72,44.1,72c-0.1,0-0.2,0-0.3-0.1l-3.5-1.8l-3.5,1.8C36.7,72,36.6,72,36.5,72c-0.1,0-0.2,0-0.3-0.1
            s-0.1-0.2-0.1-0.3c0,0,0-0.1,0-0.1l0.7-3.9l-2.8-2.8c-0.1-0.1-0.2-0.3-0.2-0.4c0-0.2,0.1-0.3,0.4-0.3l3.9-0.6l1.7-3.5
            c0.1-0.2,0.2-0.3,0.4-0.3c0.1,0,0.3,0.1,0.4,0.3l1.7,3.5l3.9,0.6c0.3,0.1,0.4,0.2,0.4,0.3c0,0.1-0.1,0.2-0.2,0.4
            C46.6,64.8,43.8,67.6,43.8,67.6z"/>
    </g>
</svg>
