<svg version="1.1" xmlns="http://www.w3.org/2000/svg" xmlns:xlink="http://www.w3.org/1999/xlink" x="0px" y="0px" width="129" height="129"
	 viewBox="0 0 129 129" style="enable-background:new 0 0 129 129;" xml:space="preserve">
<style type="text/css">
	.st0{fill:#FFFFFF;}
</style>
<path class="st0" d="M113,82c-0.4-0.3-0.9-0.6-1.3-1c-1.9-1.6-3.7-3.3-5.5-5c-0.6,0.4-1.1,0.8-1.7,1.2c-7.1,4.3-16.1,1.9-20.2-5.5
	c-4.6-8.2-0.8-18.8,7.9-21.9c1.1-0.4,2.3-0.6,3.4-0.9c0.9,0,1.8,0,2.7,0c0.6,0.1,1.2,0.2,1.7,0.3c7.9,1.8,13,9.9,11.3,17.9
	c-0.5,2.3-1.4,4.4-2.8,6.3c0.2,0.2,0.4,0.4,0.6,0.6c1.6,1.5,3.3,3,4.9,4.5c0.4,0.3,0.7,0.8,1,1.2c0,0.3,0,0.7,0,1
	c-0.4,0.4-0.9,0.8-1.3,1.2C113.5,82,113.3,82,113,82z M85.5,64.4c0.1,0.6,0.1,1.5,0.3,2.4c1.8,8.6,12,12,18.5,6.3
	c5-4.5,5.3-12.4,0.7-17.2c-3.8-4-9.8-4.7-14.3-1.6C87.3,56.7,85.7,60,85.5,64.4z"/>
<path class="st0" d="M15,59.6c0.3-0.1,0.6-0.2,0.9-0.2c4,0,8,0,12,0c0.8,0,0.9,0.1,0.9,0.9c0,0.5,0,0.9,0,1.4c0,0.8-0.1,0.9-0.9,0.9
	c-1.4,0-2.7,0-4.2,0c0,0.3,0,0.6,0,0.8c0,5,0,10.1,0,15.1c0,0.9-0.1,1-1.1,1c-0.4,0-0.9,0-1.3,0c-1.3,0-1.3,0-1.3-1.2
	c0-5,0-9.9,0-14.9c0-0.2,0-0.5,0-0.8c-1.4,0-2.8,0-4.2,0c-0.3,0-0.6-0.2-0.9-0.2C15,61.3,15,60.4,15,59.6z"/>
<path class="st0" d="M69.4,70.4c1-1.4,2-2.7,2.9-4.1c0.4-0.5,0.8-1.1,1.2-1.6c0.3-0.4,0.6-0.6,1.1-0.6c0.8,0,1.6,0,2.4,0
	c0.2,0,0.4,0.1,0.6,0.2c-0.1,0.2-0.1,0.4-0.2,0.6c-1.5,2-3.1,4-4.7,6c-0.4,0.4-0.3,0.7,0,1.1c1.6,2.2,3.1,4.4,4.6,6.5
	c0.1,0.2,0.2,0.5,0.3,0.7c-0.2,0.1-0.5,0.2-0.7,0.2c-0.8,0-1.6,0-2.4,0c-0.6,0-1-0.2-1.3-0.7c-1.2-1.8-2.4-3.6-3.6-5.4
	c-0.1-0.1-0.2-0.2-0.4-0.5c0,0.5,0,0.8,0,1.2c0,1.5,0,3,0,4.6c0,0.8-0.1,0.9-1,0.9c-0.5,0-1,0-1.6,0c-0.8,0-0.9-0.1-0.9-0.9
	c0-3.7,0-7.4,0-11.1c0-2.5,0-5,0-7.5c0-0.8,0.1-0.9,0.9-0.9c0.6,0,1.1,0,1.7,0c0.6,0,0.8,0.2,0.8,0.8c0,3.3,0,6.6,0,9.9
	c0,0.2,0,0.5,0,0.7C69.3,70.4,69.3,70.4,69.4,70.4z"/>
<path class="st0" d="M47,78.5c-1.7,1-3.3,1.4-5,1c-1.6-0.3-2.7-1.2-3-2.9c-0.2-0.9-0.2-1.9-0.1-2.8c0.3-1.9,1.8-3,4-3.3
	c1.3-0.1,2.5-0.2,4-0.2c-0.1-0.8-0.1-1.6-0.3-2.4C46.4,67.2,45.7,67,45,67c-1.5,0-3,0.1-4.5,0.1c-0.8,0-0.9,0-0.9-0.8
	c0-2-0.4-1.8,1.8-2.1c1.8-0.3,3.6-0.4,5.3,0.1c2.1,0.5,3.4,2,3.4,4.2c0.1,3.4,0,6.9,0,10.3c0,0.5-0.2,0.7-0.7,0.7c-0.5,0-1,0-1.6,0
	C47.4,79.4,46.9,79.4,47,78.5z M46.8,72.8c-0.9,0-1.6-0.1-2.4,0c-1.7,0.1-2.4,1.1-2.1,2.8c0.1,0.7,0.5,1.1,1.2,1.1
	c1.1,0.1,2.1,0,3.1-0.6c0.2-0.1,0.3-0.3,0.3-0.5C46.8,74.7,46.8,73.8,46.8,72.8z"/>
<path class="st0" d="M53,71.4c0.1-0.8,0.1-2.2,0.5-3.4c0.6-2.4,2.5-3.8,4.9-3.9c1.2,0,2.5,0.1,3.7,0.2c0.6,0,0.9,0.3,0.8,1
	c0,0.4,0,0.9,0,1.3c0,0.6-0.2,0.7-0.8,0.6c-0.9-0.1-1.9-0.1-2.8-0.2c-1.6,0-2.6,0.7-2.7,2.2c-0.1,1.7-0.1,3.4,0,5.1
	c0.1,1.5,1.1,2.3,2.7,2.2c0.9,0,1.9-0.1,2.8-0.2c0.6-0.1,0.8,0.1,0.8,0.7c0,0.5,0,0.9,0,1.4c0,0.4-0.2,0.7-0.6,0.8
	c-1.7,0.3-3.3,0.5-5,0.1c-2.3-0.5-3.8-2.3-4.1-4.7C53.1,73.8,53.1,72.8,53,71.4z"/>
<path class="st0" d="M33.5,65c0.9-0.3,1.8-0.7,2.8-1c0.2-0.1,0.5-0.1,0.8-0.1c0.4,0,0.6,0.2,0.7,0.6c0,0.5,0,1,0,1.6
	c0,0.5-0.2,0.7-0.8,0.8c-0.9,0.2-1.9,0.4-2.8,0.7c-0.5,0.1-0.6,0.4-0.6,0.9c0,3.3,0,6.6,0,9.8c0,0.9-0.1,1-1,1c-0.6,0-1.1,0-1.7,0
	c-0.5,0-0.8-0.2-0.8-0.7c0-4.6,0-9.2,0-13.8c0-0.5,0.2-0.7,0.8-0.7c0.5,0,0.9,0,1.4,0C33.4,64.1,33.4,64.1,33.5,65z"/>
<path class="st0" d="M98.7,64.4c0.1-0.6,0.1-1.3,0.2-1.9c0.3-1.6,1.6-2.5,3.3-2.5c1.8,0,3.1,0.9,3.3,2.5c0.2,1.3,0.2,2.7,0,3.9
	c-0.2,1.6-1.5,2.5-3.3,2.5c-1.8,0-3-0.9-3.3-2.6C98.8,65.8,98.8,65.1,98.7,64.4z M103.4,64.5c0-0.5,0-1.1-0.1-1.6
	c-0.1-0.6-0.5-0.9-1.1-0.9c-0.6,0-1,0.3-1,0.8c-0.1,1.1-0.1,2.1,0,3.2c0,0.5,0.5,0.8,1,0.8c0.6,0,1-0.3,1.1-0.9
	C103.4,65.5,103.4,65,103.4,64.5z"/>
<path class="st0" d="M98,66.8c0,0.6,0,1.1,0,1.7c0,0.1-0.3,0.4-0.4,0.4c-0.9,0-1.8,0.1-2.6,0c-1.2-0.3-1.9-1.2-2.1-2.4
	c-0.1-1.1-0.2-2.3-0.1-3.4c0.2-2,1.5-3,3.5-3c1.6,0,1.8,0.2,1.7,1.8c0,0.1,0,0.2-0.1,0.4c-0.5,0-1.1-0.1-1.6-0.1
	c-0.8,0-1.2,0.3-1.2,1c-0.1,0.9-0.1,1.9,0,2.9c0.1,0.7,0.5,1,1.2,1c0.3,0,0.5,0,0.8,0C97.4,66.8,97.7,66.8,98,66.8z"/>
<path class="st0" d="M91.4,64.5c0,1.3,0,2.5,0,3.8c0,0.5-0.2,0.6-0.6,0.6c-1.7,0-1.7,0-1.7-1.7c0-2.1,0-4.3,0-6.4
	c0-0.5,0.2-0.7,0.7-0.7c1.6,0,1.6,0,1.6,1.6C91.4,62.6,91.4,63.5,91.4,64.5z"/>
</svg>
