<svg xmlns="http://www.w3.org/2000/svg" xmlns:xlink="http://www.w3.org/1999/xlink" x="0px" y="0px"
	 viewBox="0 0 129 129" style="enable-background:new 0 0 129 129;" xml:space="preserve">
<style type="text/css">
	.st0{fill:none;stroke:#fff;stroke-width:2;stroke-linejoin:round;stroke-miterlimit:10;}
</style>
<path class="st0" d="M28.6,99C20.2,90.1,15,78.2,15,65c0-18.3,9.9-34.3,24.7-42.8"/>
<path class="st0" d="M89.3,22.1C104.1,30.7,114,46.7,114,65c0,13.2-5.1,25.1-13.5,34"/>
<path class="st0" d="M26.6,69.5c0.1-0.5,0.1-1.1,0.1-1.6v-10c-5.5,0-10,4.5-10,10v10c0.7,0,1.4-0.1,2-0.2"/>
<path class="st0" d="M8,76.1c-1.7-1.3-3-3.1-3.6-5.3l-2.6-9.7c5.3-1.4,10.8,1.7,12.2,7.1l2.6,9.7c-0.9,0.2-1.8,0.3-2.6,0.3"/>
<path class="st0" d="M119,46.4c0.8-2,1-4.2,0.4-6.4l-2.6-9.7c-5.3,1.4-8.5,6.9-7.1,12.2l2.6,9.7c0.9-0.2,1.7-0.6,2.4-1"/>
<path class="st0" d="M99.7,50c-0.4-0.4-0.7-0.9-1-1.4l-5-8.7c4.8-2.8,10.9-1.1,13.7,3.7l5,8.7"/>
<path class="st0" d="M29,79.2c-0.1-0.6-0.2-1.1-0.3-1.7l-2.6-9.7c-5.3,1.4-8.5,6.9-7.1,12.2l2.6,9.7c0.7-0.2,1.3-0.4,1.9-0.7"/>
<path class="st0" d="M12.8,90.3c-2-0.8-3.7-2.3-4.8-4.2l-5-8.7c4.8-2.8,10.9-1.1,13.7,3.7l5,8.7c-0.8,0.5-1.6,0.8-2.4,1"/>
<path class="st0" d="M112.3,32.9c0.3-2.1-0.1-4.3-1.3-6.3l-5-8.7c-4.8,2.8-6.4,8.9-3.7,13.7l5,8.7c0.8-0.5,1.5-1,2.1-1.6"/>
<path class="st0" d="M94.5,41.3c-0.4-0.3-0.9-0.7-1.3-1.1l-7.1-7.1c3.9-3.9,10.2-3.9,14.1,0l7.1,7.1c-0.5,0.5-1,0.9-1.6,1.3"/>
<path class="st0" d="M33.9,87.8c-0.2-0.5-0.4-1-0.7-1.5l-5-8.7c-4.8,2.8-6.4,8.9-3.7,13.7L29,99"/>
<path class="st0" d="M14.4,99l-6.1-6.1c3.9-3.9,10.2-3.9,14.1,0l6.1,6.1"/>
<path class="st0" d="M102.4,21.6c-0.3-2.1-1.2-4.1-2.8-5.8l-7.1-7.1c-3.9,3.9-3.9,10.2,0,14.1l7.1,7.1c0.6-0.6,1.2-1.3,1.6-2.1"/>
<path class="st0" d="M87.4,34.4c-0.5-0.2-1-0.4-1.5-0.7l-8.7-5c2.8-4.8,8.9-6.4,13.7-3.7l8.7,5c-0.3,0.6-0.7,1.1-1.2,1.6"/>
<path class="st0" d="M42.5,99c-0.4-1.9-1.3-3.8-2.8-5.3l-7.1-7.1c-3.3,3.3-3.8,8.5-1.4,12.3"/>
<path class="st0" d="M89.9,13.3c-0.8-2-2.3-3.7-4.2-4.8l-8.7-5c-2.8,4.8-1.1,10.9,3.7,13.7l8.7,5c0.5-0.8,0.8-1.6,1-2.4"/>
<path class="st0" d="M78.8,29.5c-0.6-0.1-1.1-0.2-1.7-0.3l-9.7-2.6c1.4-5.3,6.9-8.5,12.2-7.1l9.7,2.6c-0.2,0.7-0.4,1.3-0.7,1.9"/>
<path class="st0" d="M122,61.1c1.3-1.7,2.1-3.8,2.1-6.1V45c-1.8,0-3.6,0.5-5,1.4c-3,1.7-5,5-5,8.6v10c0.9,0,1.7-0.1,2.5-0.3"/>
<path class="st0" d="M102.3,59.3c-0.2-0.4-0.4-0.9-0.5-1.4l-2.6-9.7c4.5-1.2,9.1,0.9,11.3,4.7c0.4,0.7,0.7,1.5,0.9,2.3L114,65
	c-0.7,0.2-1.4,0.3-2.1,0.3"/>
<path class="st0" d="M102.4,69.5c-0.1-0.5-0.1-1.1-0.1-1.6v-10c5.5,0,10,4.5,10,10v10c-0.7,0-1.4-0.1-2-0.2"/>
<path class="st0" d="M121,76.1c1.7-1.3,3-3.1,3.6-5.3l2.6-9.7c-5.3-1.4-10.8,1.7-12.2,7.1l-2.6,9.7c0.9,0.2,1.8,0.3,2.6,0.3"/>
<path class="st0" d="M10,46.4c-0.8-2-1-4.2-0.4-6.4l2.6-9.7c5.3,1.4,8.5,6.9,7.1,12.2l-2.6,9.7c-0.9-0.2-1.7-0.6-2.4-1"/>
<path class="st0" d="M29.3,50c0.4-0.4,0.7-0.9,1-1.4l5-8.7c-4.8-2.8-10.9-1.1-13.7,3.7l-5,8.7"/>
<path class="st0" d="M100,79.2c0.1-0.6,0.2-1.1,0.3-1.7l2.6-9.7c5.3,1.4,8.5,6.9,7.1,12.2l-2.6,9.7c-0.7-0.2-1.3-0.4-1.9-0.7"/>
<path class="st0" d="M116.2,90.3c2-0.8,3.7-2.3,4.8-4.2l5-8.7c-4.8-2.8-10.9-1.1-13.7,3.7l-5,8.7c0.8,0.5,1.6,0.8,2.4,1"/>
<path class="st0" d="M16.7,32.9c-0.3-2.1,0.1-4.3,1.3-6.3l5-8.7c4.8,2.8,6.4,8.9,3.7,13.7l-5,8.7c-0.8-0.5-1.5-1-2.1-1.6"/>
<path class="st0" d="M34.5,41.3c0.4-0.3,0.9-0.7,1.3-1.1l7.1-7.1c-3.9-3.9-10.2-3.9-14.1,0l-7.1,7.1c0.5,0.5,1,0.9,1.6,1.3"/>
<path class="st0" d="M95.1,87.8c0.2-0.5,0.4-1,0.7-1.5l5-8.7c4.8,2.8,6.4,8.9,3.7,13.7l-4.4,7.7"/>
<path class="st0" d="M114.6,99l6.1-6.1c-3.9-3.9-10.2-3.9-14.1,0l-6,6"/>
<path class="st0" d="M26.6,21.6c0.3-2.1,1.2-4.1,2.8-5.8l7.1-7.1c3.9,3.9,3.9,10.2,0,14.1L29.5,30c-0.6-0.6-1.2-1.3-1.6-2.1"/>
<path class="st0" d="M41.6,34.4c0.5-0.2,1-0.4,1.5-0.7l8.7-5c-2.8-4.8-8.9-6.4-13.7-3.7l-8.7,5c0.3,0.6,0.7,1.1,1.2,1.6"/>
<path class="st0" d="M86.5,99c0.4-1.9,1.3-3.8,2.8-5.3l7.1-7.1c3.3,3.3,3.8,8.5,1.4,12.3"/>
<path class="st0" d="M39.1,13.3c0.8-2,2.3-3.7,4.2-4.8l8.7-5c2.8,4.8,1.1,10.9-3.7,13.7l-8.7,5c-0.5-0.8-0.8-1.6-1-2.4"/>
<path class="st0" d="M50.2,29.5c0.6-0.1,1.1-0.2,1.7-0.3l9.7-2.6c-1.4-5.3-6.9-8.5-12.2-7.1l-9.7,2.6c0.2,0.7,0.4,1.3,0.7,1.9"/>
<path class="st0" d="M7,61.1C5.7,59.4,5,57.3,5,55V45c1.8,0,3.6,0.5,5,1.4c3,1.7,5,5,5,8.6v10c-0.9,0-1.7-0.1-2.5-0.3"/>
<path class="st0" d="M26.7,59.3c0.2-0.4,0.4-0.9,0.5-1.4l2.6-9.7c-4.5-1.2-9.1,0.9-11.3,4.7c-0.4,0.7-0.7,1.5-0.9,2.3L15,65
	c0.7,0.2,1.4,0.3,2.1,0.3"/>
<rect x="4.5" y="99" class="st0" width="120" height="26"/>
<g fill="#fff">
	<path d="M12,117.7v-1.3c1.2,0.3,2.3,0.4,3.3,0.4c0.8,0,1.4-0.1,1.7-0.3c0.4-0.2,0.5-0.5,0.5-1v-1.3c0-0.4-0.1-0.8-0.4-0.9
		c-0.3-0.2-0.7-0.3-1.3-0.3h-1.2c-1,0-1.7-0.2-2.2-0.6c-0.4-0.4-0.6-1-0.6-1.9v-0.8c0-0.6,0.1-1,0.4-1.4s0.7-0.6,1.3-0.8
		c0.6-0.2,1.4-0.3,2.4-0.3c0.7,0,1.6,0.1,2.7,0.2v1.2c-1.2-0.2-2.1-0.3-2.8-0.3c-1,0-1.6,0.1-2,0.3c-0.3,0.2-0.5,0.5-0.5,1v1.2
		c0,0.4,0.1,0.6,0.4,0.8s0.7,0.2,1.4,0.2h1.2c0.7,0,1.3,0.1,1.7,0.3c0.4,0.2,0.7,0.4,0.8,0.8c0.2,0.3,0.2,0.8,0.2,1.4v0.8
		c0,0.7-0.1,1.3-0.4,1.7c-0.3,0.4-0.7,0.7-1.3,0.9c-0.6,0.2-1.3,0.3-2.2,0.3C14.2,118,13.2,117.9,12,117.7z"/>
	<path d="M21.6,107.5h7v1.1h-5.4v3.4h4.9v1.1h-4.9v3.7h5.6v1.1h-7.1V107.5z"/>
	<path d="M31.3,107.5h2.3l3.3,8.6l0,0l3.2-8.7h2.2v10.4H41v-8.8H41l-3.3,8.8h-1.4l-3.4-8.8h-0.1v8.8h-1.4V107.5z"/>
	<path d="M45.5,107.5H47v10.4h-1.6V107.5z"/>
	<path d="M50.1,107.5h7.1v1.1h-5.6v3.4h5.1v1.1h-5.1v4.8h-1.6V107.5z"/>
	<path d="M59.5,107.5H61v10.4h-1.6V107.5z"/>
	<path d="M64.1,107.5H66l5.6,8.6v-8.6H73v10.4h-1.9l-5.6-8.7v8.7h-1.4V107.5z"/>
	<path d="M79.1,107.5h1.8l4,10.4h-1.6l-1.2-3.2h-4.4l-1.2,3.2H75L79.1,107.5z M81.8,113.6l-1.8-4.7h-0.1l-1.8,4.7H81.8z"/>
	<path d="M86.9,107.5h1.6v9.3h5.1v1.1h-6.7V107.5z"/>
	<path d="M95.7,107.5h1.6v10.4h-1.6V107.5z"/>
	<path d="M100.1,117.7v-1.3c1.2,0.3,2.3,0.4,3.3,0.4c0.8,0,1.4-0.1,1.7-0.3s0.5-0.5,0.5-1v-1.3c0-0.4-0.1-0.8-0.4-0.9
		c-0.3-0.2-0.7-0.3-1.3-0.3h-1.2c-1,0-1.7-0.2-2.2-0.6c-0.4-0.4-0.6-1-0.6-1.9v-0.8c0-0.6,0.1-1,0.4-1.4c0.3-0.4,0.7-0.6,1.3-0.8
		c0.6-0.2,1.4-0.3,2.4-0.3c0.7,0,1.6,0.1,2.7,0.2v1.2c-1.2-0.2-2.1-0.3-2.8-0.3c-1,0-1.6,0.1-2,0.3c-0.3,0.2-0.5,0.5-0.5,1v1.2
		c0,0.4,0.1,0.6,0.4,0.8c0.3,0.2,0.7,0.2,1.4,0.2h1.2c0.7,0,1.3,0.1,1.7,0.3c0.4,0.2,0.7,0.4,0.8,0.8s0.2,0.8,0.2,1.4v0.8
		c0,0.7-0.1,1.3-0.4,1.7c-0.3,0.4-0.7,0.7-1.3,0.9c-0.6,0.2-1.3,0.3-2.2,0.3C102.4,118,101.3,117.9,100.1,117.7z"/>
	<path d="M112.4,108.5h-3.5v-1.1h8.6v1.1h-3.5v9.3h-1.6V108.5z"/>
</g>
<path class="st0" d="M64.5,40c-11,0-17.5,5.6-17.5,5.6h17.5H82C82,45.6,75.5,40,64.5,40z"/>
<path class="st0" d="M91,52h-7.8c-0.1-1.5-0.2-2.4-0.2-2.4H46c0,0-0.1,0.9-0.2,2.4H38c0,0-2,8,0.1,15.1s13.5,15,13.5,15l0,0
	C55,88,61,99,61,99l7,0c0,0,6-10.9,9.5-16.9l0,0c0,0,11.4-8,13.5-15S91,52,91,52z M42.5,67C40.7,62.3,41,56,41,56h4.6
	c-0.1,5,0.3,12.2,2.5,18.9c0,0.1,0.1,0.2,0.1,0.3C45.8,72.5,43.5,69.4,42.5,67z M86.5,67c-0.9,2.3-3.3,5.4-5.6,8.2
	c0-0.1,0.1-0.2,0.1-0.3c2.2-6.8,2.6-14,2.5-18.9H88C88,56,88.3,62.3,86.5,67z"/>
<path class="st0" d="M58.1,83.4c0,0-4.7-7.1-6.5-14c-2.3-8.8-1.4-15.9-1.4-15.9h7.1"/>
<circle class="st0" cx="64.5" cy="34" r="3"/>
</svg>
