<svg xmlns="http://www.w3.org/2000/svg" xmlns:xlink="http://www.w3.org/1999/xlink" x="0px" y="0px"  width="25" height="25"
	 viewBox="0 0 25 25" style="enable-background:new 0 0 25 25;" xml:space="preserve">
<style type="text/css">
	.st0{fill:#FFFFFF;}
</style>
<g>
	<rect x="16" y="7.7" class="st0" width="5.1" height="1.6"/>
	<path class="st0" d="M11.1,12.8c0,0,1.9-0.1,1.9-2.4S11.4,7,9.5,7H5.9H5.7H3v12.7h2.7h0.1h3.6c0,0,3.9,0.1,3.9-3.8
		C13.4,16,13.6,12.8,11.1,12.8z M5.9,9.2H9h0.5c0,0,0.9,0,0.9,1.3s-0.5,1.5-1.1,1.5H5.9V9.2z M9.3,17.5H5.9V14h3.6
		c0,0,1.3,0,1.3,1.8C10.8,17.3,9.8,17.4,9.3,17.5z"/>
	<path class="st0" d="M18.6,10.2c-4.8,0-4.8,4.9-4.8,4.9S13.6,20,18.6,20c0,0,4.2,0.3,4.2-3.4h-2.2c0,0,0.1,1.4-2,1.4
		c0,0-2.2,0.1-2.2-2.2H23C23,15.8,23.7,10.2,18.6,10.2z M16.5,14c0,0,0.3-2,2.2-2s1.9,2,1.9,2H16.5z"/>
</g>
</svg>
