<svg xmlns="http://www.w3.org/2000/svg" xmlns:xlink="http://www.w3.org/1999/xlink" x="0px" y="0px" width="25" height="25"
	 viewBox="0 0 25 25" style="enable-background:new 0 0 25 25;" xml:space="preserve">
<style type="text/css">
	.st0{fill:#FFFFFF;}
</style>
<g>
	<ellipse class="st0" cx="9.4" cy="12.8" rx="1.4" ry="1.4"/>
	<path class="st0" d="M19.9,8.7c-0.6,0-1.1,0.2-1.6,0.5C16.9,8.3,15,7.8,13,7.7l1.2-3.2l2.4,0.6c0,0.1,0,0.1,0,0.2
		c0,1.3,1.1,2.3,2.4,2.3c1.3,0,2.4-1,2.4-2.3S20.3,3,18.9,3c-0.9,0-1.6,0.4-2,1.1l-3.4-0.8l-1.6,4.4c-2,0.1-3.8,0.6-5.2,1.5
		c0,0,0.1,0,0.1-0.1c-0.5-0.3-1-0.5-1.7-0.5C3.4,8.7,2,10,2,11.7c0,1.1,0.6,2.1,1.5,2.6c0.4,3.2,4.3,5.6,9,5.6c4.8,0,8.7-2.5,9-5.7
		c0.9-0.5,1.4-1.5,1.4-2.6C23,10,21.6,8.7,19.9,8.7z M18.9,4c0.7,0,1.3,0.6,1.3,1.3c0,0.7-0.6,1.3-1.3,1.3c-0.7,0-1.3-0.6-1.3-1.3
		C17.6,4.6,18.2,4,18.9,4z M3.1,11.7c0-1.1,0.9-2,2-2c0.2,0,0.5,0.1,0.7,0.1c-1.2,0.9-1.9,2-2.2,3.3C3.3,12.7,3.1,12.2,3.1,11.7z
		 M12.6,19c-4.4,0-8-2.3-8-5.1s3.6-5.1,8-5.1s8,2.3,8,5.1C20.5,16.7,17,19,12.6,19z M21.5,13c-0.3-1.2-1-2.3-2.2-3.2
		c0.2-0.1,0.4-0.1,0.6-0.1c1.1,0,2,0.9,2,2C21.9,12.2,21.8,12.6,21.5,13z"/>
	<ellipse class="st0" cx="15.5" cy="12.8" rx="1.4" ry="1.4"/>
	<path class="st0" d="M15.2,15.9c-3,1.9-5.4,0.1-5.5,0C9.5,15.7,9.1,15.7,9,16c-0.2,0.2-0.2,0.5,0.1,0.7c0,0,1.4,1.1,3.4,1.1
		c1,0,2.2-0.3,3.4-1c0.2-0.2,0.3-0.5,0.2-0.7C15.8,15.8,15.5,15.7,15.2,15.9z"/>
</g>
</svg>
