<svg xmlns="http://www.w3.org/2000/svg" width="25" height="25" viewBox="0 0 25 25">
    <path fill="#FFF" fill-rule="evenodd" d="M12.652 16.539c-.766.712-1.527 1.412-2.28 2.118-.263.248-.559.385-.937.366-.258-.014-.402-.122-.481-.355-.577-1.708-1.162-3.411-1.736-5.12-.056-.167-.138-.247-.314-.3-1.36-.395-2.716-.8-4.07-1.21a2.368 2.368 0 0 1-.6-.264c-.277-.18-.318-.473-.069-.684.23-.194.506-.364.792-.472 1.661-.628 3.332-1.236 5-1.849l12.696-4.674c.804-.296 1.423.121 1.34.951-.054.531-.198 1.054-.315 1.578-.919 4.138-1.839 8.277-2.762 12.415-.22.982-.943 1.239-1.791.643-1.42-.998-2.838-2-4.257-3l-.216-.143zm-3.187 1.256l.048-.012c.009-.039.022-.077.025-.115.091-.938.188-1.876.267-2.816a.678.678 0 0 1 .258-.498c1.309-1.117 2.61-2.24 3.913-3.36 1.443-1.242 2.886-2.482 4.324-3.728.089-.077.126-.207.187-.314-.136-.014-.28-.066-.404-.035a1.797 1.797 0 0 0-.476.224c-3.184 1.913-6.366 3.829-9.552 5.738-.18.108-.214.2-.145.388.235.644.448 1.293.67 1.942l.885 2.586z"/>
</svg>
