<svg xmlns="http://www.w3.org/2000/svg" width="25" height="25" viewBox="0 0 25 25">
    <path fill="#FFF" fill-rule="evenodd" d="M20.952 8.985c.008.173.012.347.012.523C20.964 14.845 16.837 21 9.29 21c-2.317 0-4.474-.669-6.29-1.815.321.038.648.057.979.057a8.317 8.317 0 0 0 5.096-1.73c-1.796-.032-3.311-1.2-3.833-2.805a4.17 4.17 0 0 0 1.853-.069c-1.877-.371-3.292-2.003-3.292-3.96v-.051a4.136 4.136 0 0 0 1.86.505A4.02 4.02 0 0 1 3.836 7.77c0-.74.202-1.434.555-2.03a11.711 11.711 0 0 0 8.458 4.22 3.996 3.996 0 0 1-.106-.921C12.744 6.809 14.58 5 16.847 5c1.18 0 2.246.49 2.995 1.275a8.297 8.297 0 0 0 2.606-.98 4.063 4.063 0 0 1-1.805 2.235A8.306 8.306 0 0 0 23 6.894a8.265 8.265 0 0 1-2.048 2.091z"/>
</svg>
