<svg version="1.1" xmlns="http://www.w3.org/2000/svg" xmlns:xlink="http://www.w3.org/1999/xlink" x="0px" y="0px" width="129" height="129"
	 viewBox="0 0 129 129" style="enable-background:new 0 0 129 129;" xml:space="preserve">
<g fill="#fff">
	<path d="M65,63.7c0,8.7,0,17.3,0,26c0,1.7-1.3,2.8-2.7,3.1C61,93,59.2,92,58.8,90.7c-0.1-0.3-0.1-0.7-0.1-1
		c0-14.8,0-29.6,0-44.4c0-2.1-1.3-2.9-3.2-2c-0.3,0.1-0.6,0.3-0.8,0.5c-0.5,0.4-0.8,0.2-1-0.2c-0.3-0.5-0.3-1.1-0.4-1.7
		c0-0.2,0-0.4,0-0.7c0-2.9,0-2.9,2.5-4.4c1.8-1.1,3.6-2,5.8-2.3c2.3-0.3,3.6,0.7,3.6,3.1C65,46.3,65,55,65,63.7z"/>
	<path d="M109.1,18.5c-2.1-2.1-4.8-2.9-7.8-3c-3.3,0-6.2,0.9-8.3,3.4c-3,3.5-3.9,7.5-3.3,12c0.2,1.3-0.1,1.8-1.3,2.1
		c-1.3,0.4-2.7,0.5-4.1,0.5c-2,0-3.9,0.6-5.6,1.7c-2.4,1.6-4,3.7-5.4,6.2c-3.2,5.9-4.6,12.4-5,19.1c-0.2,3.8,0.1,7.6,0.5,11.5
		c0.4,3.6,1,7.2,2.3,10.6c1.1,2.8,2.6,5.3,5,7.3c2.3,1.9,5.1,2.8,8.1,3.1c3.5,0.3,6.7-0.5,9.5-2.5c2.8-2,4.6-4.8,6-7.8
		c2.3-5.1,3.2-10.5,3.4-16c0.2-5.2-0.6-10.3-1.6-15.3c-0.4-2-1-4.1-1.1-6.2c-0.1-1.5,0.4-1.9,1.9-1.9c1,0,2,0.1,3,0
		c2.6-0.5,4.5-2.2,6-4.2c0.3-0.3,0.2-0.8,0.1-1.1c-0.2-0.5-0.5-1-0.9-1.4c-0.8-0.9-1.5-0.9-2.4-0.2c-0.2,0.1-0.4,0.3-0.6,0.5
		c-1.7,1.4-3.6,2.2-5.7,2.5c-3.1,0.4-7.1-2.8-7.5-5.9c-0.1-1.1,0.3-1.7,1.4-2c0.4-0.1,0.9-0.1,1.3-0.1c2.2,0,4.4,0,6.5,0
		c2.2,0,4.5,0,6.7,0c1.8,0,2.7-0.7,2.9-2.5C113.4,24.7,111.9,21.3,109.1,18.5z M95.2,49.5c0.8,3,1.2,6.2,1.3,9.3
		c0.1,1.4,0.1,2.8,0.1,4.2c0,4.8-0.3,9.5-1.6,14.2c-0.7,2.7-1.7,5.2-3.4,7.3c-1.5,1.8-3.3,3.1-5.8,3.3c-2,0.2-3.7-0.5-5.2-1.8
		c-2-1.8-3.2-4.2-4.1-6.7c-1.4-4.1-1.9-8.3-2.1-12.6c-0.2-3.9-0.1-7.7,0.4-11.5c0.5-3.7,1.3-7.4,3.2-10.7c0.6-1,1.3-2,2.1-2.8
		c3.5-3.7,8.3-2.9,11.2,0.2C93.4,44,94.4,46.7,95.2,49.5z M106,27.4c-1.6,0-3.2,0-4.8,0c0,0,0,0,0,0c-1.5,0-3.1,0-4.6,0
		c-1.8,0-2.6-1-2.2-2.7c0.7-3,2.6-4.7,6-5.3c2.9-0.5,5.8,0.8,7.3,3.3c0.4,0.7,0.7,1.5,0.7,2.3C108.3,26.5,107.4,27.4,106,27.4z"/>
	<path d="M51.9,63.3c-0.1-10-0.1-19.9-0.1-29.9c0-0.6,0.1-1.1,0.1-1.7c0-1.3-0.5-1.9-1.7-2.1c-1.1-0.2-2.2-0.1-3.2,0
		c-0.8,0.1-1.4,0.6-1.6,1.4c-0.2,0.7-0.3,1.3-0.3,2c0,2.1,0,4.3,0,6.4c0,4.8,0,9.6,0,14.5c-0.9-0.9-1.7-1.6-2.6-2.2
		c-5.7-3.9-12.1-4.1-17.6-0.4c-5.3,3.6-7.7,8.9-8.5,15.1c-0.4,3.6-0.3,7.3,0.4,10.9c0.7,3.7,1.9,7.2,4.2,10.3
		c3.4,4.4,8.9,7,14.8,5.4c2.9-0.8,5.5-2.1,7.4-4.5c0.5-0.6,1.1-1,1.9-1.3c0.5-0.1,0.8-0.1,0.8,0.5c0.1,1,0.3,2,0.3,2.9
		c0,0.7,0.3,1.2,0.8,1.6c0.6,0.4,1.2,0.7,2,0.7c1.8,0.2,3.2-1.1,3.2-2.9C51.9,81.2,52,72.3,51.9,63.3z M45.6,70.4
		c0,4.2-0.4,7.7-2,11.1c-1.6,3.3-4,5.5-7.7,6.2c-3.2,0.6-5.9-0.5-8.3-2.5c-2.5-2.1-3.9-4.9-4.5-8c-1-4.9-0.8-9.7,0.8-14.4
		c1.2-3.4,3.3-6.2,6.7-7.7c5.1-2.2,10.6,0,13,5.1c1.1,2.3,1.6,4.7,1.8,7.2C45.6,68.6,45.6,69.8,45.6,70.4z"/>
</g>
</svg>
