<svg version="1.1" xmlns="http://www.w3.org/2000/svg" xmlns:xlink="http://www.w3.org/1999/xlink" x="0px" y="0px" width="129" height="129"
	 viewBox="0 0 129 129" style="enable-background:new 0 0 129 129;" xml:space="preserve">

<g fill="#fff">
	<path d="M50.7,42.5h30.6v9h-21v26h21v9H50.7V42.5z"/>
	<polygon points="43.2,63.6 46.5,61 46.5,49.2 39.8,42.5 26.1,42.5 26.2,51.5 35.4,51.5 36.9,53.1 36.9,57.8 35.3,59
		26.4,59 26.5,68.1 34.9,68.1 38.2,70.7 38.2,75.2 35.9,77.5 23.6,77.5 23.6,42.5 14,42.5 14,86.5 39.9,86.5 47.9,78.6 47.9,67.2 	
		"/>
	<polygon points="93.9,86.5 94,53.9 84.4,53.9 84.4,86.5 94,86.5 94,86.5 	"/>
	<polygon points="96.5,69.8 112.4,69.8 112.4,60.8 96.5,60.8 	"/>
	<rect x="84.4" y="42.5" class="st0" width="30.6" height="9"/>
	<rect x="62.4" y="59" class="st0" width="16.2" height="9"/>
</g>
</svg>
