<?xml version="1.0" encoding="utf-8"?>
<!-- Generator: Adobe Illustrator 20.1.0, SVG Export Plug-In . SVG Version: 6.00 Build 0)  -->
<svg version="1.1" id="logo" xmlns="http://www.w3.org/2000/svg" xmlns:xlink="http://www.w3.org/1999/xlink" x="0px" y="0px"
	 viewBox="0 0 216 36" style="enable-background:new 0 0 216 36;" width="162" height="27" xml:space="preserve">
<style type="text/css">
	.st0{fill:#FFFFFF;}
</style>
<path class="st0" d="M129,9h-12c-3.3,0-6,2.7-6,6v15c0,3.3,2.7,6,6,6h16.9c0.2,0,0.4-0.2,0.4-0.4v-2.2c0-0.2-0.1-0.4-0.4-0.4H117
	c-1.6,0-3-1.3-3-3v-4.5h20.6c0.2,0,0.4-0.1,0.4-0.4V15C135,11.7,132.3,9,129,9z M132,22.1c0,0.2-0.1,0.4-0.4,0.4H114V15
	c0-1.7,1.4-3,3-3h12c1.6,0,3,1.3,3,3V22.1z"/>
<path class="st0" d="M99,9h-4.5c-2.7,0-5.1,1.2-6.8,3.1c-1.1-1.8-3-3.1-5.2-3.1H78c-2.3,0-4.4,0.9-6,2.3V9.4C72,9.1,71.9,9,71.6,9
	h-2.2C69.1,9,69,9.1,69,9.4v26.2c0,0.2,0.1,0.4,0.4,0.4h2.2c0.2,0,0.4-0.2,0.4-0.4V18c0-3.3,2.7-6,6-6h4.5c1.6,0,3,1.3,3,3v20.6
	c0,0.2,0.1,0.4,0.4,0.4h2.2c0.2,0,0.4-0.2,0.4-0.4V18c0-3.3,2.7-6,6-6H99c1.6,0,3,1.3,3,3v20.6c0,0.2,0.1,0.4,0.4,0.4h2.2
	c0.2,0,0.4-0.2,0.4-0.4V15C105,11.7,102.3,9,99,9z"/>
<path class="st0" d="M210,9h-9c-2.3,0-4.4,0.9-6,2.3V0.4c0-0.2-0.2-0.4-0.4-0.4h-2.2c-0.2,0-0.4,0.2-0.4,0.4v35.2
	c0,0.2,0.2,0.4,0.4,0.4h2.2c0.2,0,0.4-0.2,0.4-0.4V18c0-3.3,2.7-6,6-6h9c1.7,0,3,1.3,3,3v20.6c0,0.2,0.2,0.4,0.4,0.4h2.2
	c0.2,0,0.4-0.2,0.4-0.4V15C216,11.7,213.3,9,210,9z"/>
<path class="st0" d="M159,9h-9c-2.3,0-4.4,0.9-6,2.3V9.4c0-0.2-0.1-0.4-0.4-0.4h-2.2c-0.2,0-0.4,0.1-0.4,0.4v26.2
	c0,0.2,0.1,0.4,0.4,0.4h2.2c0.2,0,0.4-0.2,0.4-0.4V18c0-3.3,2.7-6,6-6h9c1.6,0,3,1.3,3,3v20.6c0,0.2,0.1,0.4,0.4,0.4h2.2
	c0.2,0,0.4-0.2,0.4-0.4V15C165,11.7,162.3,9,159,9z"/>
<path class="st0" d="M57,9H45c-3.3,0-6,2.7-6,6v15c0,3.3,2.7,6,6,6h16.9c0.2,0,0.4-0.2,0.4-0.4v-2.2c0-0.2-0.1-0.4-0.4-0.4H45
	c-1.7,0-3-1.3-3-3v-4.5h20.6c0.2,0,0.4-0.1,0.4-0.4V15C63,11.7,60.3,9,57,9z M60,22.1c0,0.2-0.1,0.4-0.4,0.4H42V15c0-1.7,1.3-3,3-3
	h12c1.6,0,3,1.3,3,3V22.1z"/>
<path class="st0" d="M33,0.4C33,0.1,32.8,0,32.6,0h-2.2C30.2,0,30,0.1,30,0.4v35.2c0,0.2,0.2,0.4,0.4,0.4h2.2c0.2,0,0.4-0.2,0.4-0.4
	V0.4z"/>
<path class="st0" d="M187.1,33h-8.6c-2.5,0-4.5-2-4.5-4.5V12h12.4c0.2,0,0.4-0.2,0.4-0.4V9.4c0-0.2-0.1-0.4-0.4-0.4H174V3.4
	c0-0.2-0.1-0.4-0.4-0.4h-2.2c-0.2,0-0.4,0.1-0.4,0.4v25.1c0,4.1,3.4,7.5,7.5,7.5h8.6c0.2,0,0.4-0.2,0.4-0.4v-2.2
	C187.5,33.1,187.4,33,187.1,33z"/>
<path class="st0" d="M12,7.5c2.1,0,3.8-1.6,3.8-3.7S14.1,0,12,0S8.2,1.6,8.2,3.7S9.9,7.5,12,7.5z M12,2.2c0.8,0,1.5,0.7,1.5,1.5
	S12.8,5.2,12,5.2s-1.5-0.7-1.5-1.5S11.2,2.2,12,2.2z"/>
<path class="st0" d="M18,9H6c-3.3,0-6,2.7-6,6v15c0,3.3,2.7,6,6,6h16.9c0.2,0,0.4-0.2,0.4-0.4v-2.2c0-0.2-0.2-0.4-0.4-0.4H6
	c-1.6,0-3-1.3-3-3v-4.5h20.6c0.2,0,0.4-0.1,0.4-0.4V15C24,11.7,21.3,9,18,9z M21,22.1c0,0.2-0.2,0.4-0.4,0.4H3V15c0-1.7,1.4-3,3-3
	h12c1.7,0,3,1.3,3,3V22.1z"/>
</svg>
