<svg xmlns="http://www.w3.org/2000/svg" xmlns:xlink="http://www.w3.org/1999/xlink" x="0px" y="0px" width="129" height="129" fill="#fff" viewBox="0 0 129 129" style="enable-background:new 0 0 129 129;" xml:space="preserve">
<path d="M33.7,57.3c0-5.8,4.8-10.6,10.6-10.6s10.6,4.8,10.6,10.6c0,1.4-0.2,2.7-0.8,3.9l13.4,10.1
	c1.6-1.1,3.6-1.7,5.8-1.7c0.8,0,1.6,0.1,2.4,0.2l10.5-17.8c-3.9-3.4-6.5-8.5-6.5-14.1c0-4.9,1.8-9.2,4.9-12.6l-12.1-6.9
	c-5.3-3.1-11.9-3.1-17.3,0L28,34c-5.3,3.1-8.5,8.8-8.5,15v32.6c1.4-1,2.8-1.8,4.6-2c0.6-0.1,1.4-0.2,2-0.2c0.5,0,1.3,0,1.7,0.1
	l8.6-14.8C34.9,62.6,33.7,60,33.7,57.3L33.7,57.3z"/>
<path d="M98.6,56.6c-2.3,0-4.7-0.5-6.7-1.3l-10.4,18c1.6,1.9,2.5,4.1,2.5,6.9c0,5.8-4.8,10.6-10.6,10.6
	S62.9,86,62.9,80.2c0-1.4,0.2-2.5,0.7-3.8L50.2,66c-1.6,1.3-3.8,1.9-5.9,1.9c-0.8,0-1.5-0.1-2.2-0.2l-8.6,14.5c1,1,1.7,2,2.2,3.3
	c0.5,1.4,0.8,2.7,0.8,4.1c0,3.3-1.5,6.3-3.8,8.2L55,110.7c5.3,3.1,11.9,3.1,17.3,0L99.5,95c5.3-3.1,8.6-8.8,8.6-15V53.6
	C105.5,55.6,102.2,56.6,98.6,56.6z"/>
<ellipse cx="98.6" cy="37.6" rx="10.9" ry="10.9"/>
</svg>
