<svg version="1.1" xmlns="http://www.w3.org/2000/svg" xmlns:xlink="http://www.w3.org/1999/xlink" x="0px" y="0px" width="129" height="129" fill="#fff"
	 viewBox="0 0 129 129" style="enable-background:new 0 0 129 129;" xml:space="preserve">
	<path d="M65.5,20.1C42.1,20.1,23,39.2,23,62.6s19.1,42.5,42.5,42.5c23.4,0,42.5-19.1,42.5-42.5S88.9,20.1,65.5,20.1z
		 M65.5,100.1C44.8,100.1,28,83.3,28,62.6s16.8-37.5,37.5-37.5S103,41.9,103,62.6S86.2,100.1,65.5,100.1z"/>
	<path d="M83.7,106.5c-11.7,4.9-24.6,4.9-36.3,0c-11.7-4.9-20.8-14-25.7-25.7c-4.9-11.7-4.9-24.6,0-36.3
		c4.9-11.7,14-20.8,25.7-25.7c1.3-0.5,1.9-2,1.4-3.3c-0.5-1.3-2-1.9-3.3-1.4c-13,5.4-23,15.5-28.4,28.4s-5.4,27.2,0,40.2
		c5.4,13,15.5,23,28.4,28.4c6.5,2.7,13.3,4,20.1,4c6.8,0,13.6-1.3,20.1-4c1.3-0.5,1.9-2,1.4-3.3C86.4,106.5,85,105.9,83.7,106.5z"/>
	<path d="M76,58.2c-0.9-0.4-1.8-0.6-2.7-0.7c1.2-2.7,1.4-6,0.2-8.9c-1.1-2.8-3.3-4.9-6.1-6.1c-2.1-0.9-4.3-1.1-6.4-0.7
		l-1-2.5c-0.5-1.3-2-1.9-3.3-1.4c-1.3,0.5-1.9,2-1.4,3.3l1,2.3l-3.5,1.4l-1-2.3c-0.5-1.3-2-1.9-3.3-1.4c-1.3,0.5-1.9,2-1.4,3.3
		l1,2.3l-2.3,1c-1.3,0.5-1.9,2-1.4,3.3c0.5,1.3,2,1.9,3.3,1.4l2.3-1l5.7,13.9c0,0,0,0,0,0s0,0,0,0l6.7,16.2l-2.3,1
		c-1.3,0.5-1.9,2-1.4,3.3c0.4,1,1.3,1.5,2.3,1.5c0.3,0,0.6-0.1,1-0.2l2.3-1l1,2.3c0.4,1,1.3,1.5,2.3,1.5c0.3,0,0.6-0.1,1-0.2
		c1.3-0.5,1.9-2,1.4-3.3l-1-2.3l3.5-1.4l1,2.3c0.4,1,1.3,1.5,2.3,1.5c0.3,0,0.6-0.1,1-0.2c1.3-0.5,1.9-2,1.4-3.3l-1-2.4
		c2.5-1.4,4.5-3.5,5.7-6.2c1.3-3.1,1.3-6.5,0-9.6C81.4,61.8,79,59.4,76,58.2z M60.7,47c1.5-0.6,3.2-0.6,4.8,0
		c1.5,0.6,2.7,1.8,3.4,3.4c0.6,1.5,0.6,3.2,0,4.8c-0.6,1.5-1.8,2.7-3.4,3.4l-3,1.2l-3,1.3l-4.8-11.5L60.7,47z M78.1,72.6
		c-0.8,1.9-2.2,3.3-4.1,4.1l-6.9,2.9l-5.7-13.9l3-1.3l3-1.2c0,0,0,0,0,0l0.9-0.4c3.8-1.6,8.2,0.2,9.8,4.1
		C78.9,68.7,78.9,70.7,78.1,72.6z"/>
</svg>
