<svg xmlns="http://www.w3.org/2000/svg" xmlns:xlink="http://www.w3.org/1999/xlink" x="0px" y="0px" width="129" height="129" fill="#fff"
 viewBox="0 0 81 81" style="enable-background:new 0 0 81 81;" xml:space="preserve">
<path d="M60.8,14.6c-0.4-0.4-0.9-0.6-1.4-0.6c-0.5,0-1,0.2-1.5,0.5c-3.1,2.9-5.5,6.4-7.1,10.2c-7.1-1.8-14.7-1.8-21.8,0
	c-1.6-3.8-3.9-7.3-7.1-10.2c-0.4-0.4-0.9-0.6-1.5-0.5c-0.5,0-1,0.2-1.4,0.6C13.3,20.3,10,27.9,10,36c0,16.5,13.5,30,30,30
	s30-13.5,30-30C70,27.9,66.7,20.3,60.8,14.6z M52.7,38.2c-0.1-0.7-0.1-1.5-0.1-2.2c0-6.4,2.4-12.4,6.7-17.2
	c3.9,4.3,6.1,9.6,6.5,15.3C61.1,34.4,56.6,35.9,52.7,38.2z M49.6,28.6c-0.6,2.4-1,4.9-1,7.5c0,1.6,0.2,3.2,0.4,4.7
	c-4,3.3-7.1,7.6-9,12.5c-1.9-4.9-5-9.3-9-12.5c0.3-1.6,0.4-3.2,0.4-4.7c0-2.6-0.4-5.1-1-7.5C36.7,27,43.3,27,49.6,28.6z M20.6,18.8
	c4.3,4.8,6.7,10.8,6.7,17.2c0,0.7,0,1.5-0.1,2.2c-3.9-2.3-8.4-3.8-13.2-4.1C14.5,28.4,16.8,23.1,20.6,18.8z M14.1,38.1
	c12.7,1,22.8,11.1,23.8,23.8C25.2,60.9,15.1,50.8,14.1,38.1z M42.1,61.9c1-12.7,11.1-22.8,23.8-23.8C64.9,50.8,54.8,60.9,42.1,61.9z
	"/>
</svg>
