<svg xmlns="http://www.w3.org/2000/svg" xmlns:xlink="http://www.w3.org/1999/xlink" x="0px" y="0px" width="129" height="129"
	 viewBox="0 0 129 129" style="enable-background:new 0 0 129 129;" xml:space="preserve" fill="#fff">
<g>
	<path d="M87.7,113c-3,0-6,0-9.5,0c-1.5,0-2-0.5-2-2c0-2.5,0-5,0-7.5c0-1.5,0.5-2.5,2-2.5c3.5,0,7,0,10.5,0
		c1.5,0,2-0.5,2.5-2c4.5-15,5.5-30,4.5-45.5c-0.5-8-2-15.5-4-23c-0.5-1.5-1-2.5-3-2.5c-3.5,0-6.5-0.5-10-0.5c-1.5,0-2.5-0.5-2-2.5
		c0-2.5,0-5,0-7c0-1.5,0.5-2,2-2c6.5,0.5,13,0.5,19,1c1.5,0,1.5,1,2,2c3.5,9,5.5,18,7,27.5c2.5,20,1,40-5,59.5c-2,6.5-2,6.5-9,6.5
		C91.2,113,89.7,113,87.7,113L87.7,113z"/>
	<path d="M21.2,65.5c0.5-15.5,2.5-31,8-45.5c0.5-2,1.5-2.5,3.5-2.5c6,0,11.5-0.5,17.5-1c2,0,2.5,0.5,2.5,2.5
		s0,4.5,0,6.5S52.2,28,50.2,28c-3.5,0-6.5,0.5-10,0.5c-1.5,0-2,0.5-2,1.5c-4,14.5-5.5,29-4.5,43.5c0.5,8.5,2,16.5,4,24.5
		c0.5,2,1.5,3,3.5,3c3,0,6.5,0,9.5,0c1.5,0,2,0.5,2,2c0,2.5,0,5,0,7.5c0,1.5-0.5,2-2,2c-6.5,0-12.5-0.5-19-0.5c-1.5,0-2-1-2.5-2
		c-4-9.5-6-19.5-7-29.5C21.7,76,21.7,70.5,21.2,65.5z"/>
	<path d="M64.7,59.5c1.5-4,3-8,4.5-11.5c0.5-1.5,1.5-2,3-2c3,0.5,6.5,0.5,10,0.5c-3,9-6,17.5-10,25.5c-1,2-1,3,0,5
		c2,3.5,4,7.5,6,11.5c-4.5,0-8,0-12,0c-1,0-1.5-0.5-2-1.5c-7-12.5-12.5-25.5-16.5-39c-0.5-1.5,0-2,1.5-2c2.5,0,5.5,0,8-0.5
		c1.5,0,2,0.5,2.5,2c1.5,4,3,8,4,12C64.2,59.5,64.2,59.5,64.7,59.5z"/>
</g>
</svg>
