<svg xmlns="http://www.w3.org/2000/svg" xmlns:xlink="http://www.w3.org/1999/xlink" x="0px" y="0px" width="129" height="129" fill="#fff" viewBox="0 0 129 129" style="enable-background:new 0 0 129 129;" xml:space="preserve">
<path d="M113,62.6c0,26.8-21.7,48.5-48.5,48.5S16,89.4,16,62.6c0-1.1,0-2.2,0.1-3.2l29.4,16.9l62.2-35.8
	C111.1,47.1,113,54.6,113,62.6z M45.5,64.1L18.1,48.3c-0.5,1.7-1,3.5-1.3,5.3l28.7,16.5L105,35.9c-1-1.5-2-2.9-3.2-4.3L45.5,64.1z
	 M98.1,27.7c-1.3-1.3-2.8-2.5-4.3-3.7L45.5,51.9L22.4,38.6c-0.9,1.5-1.7,3.1-2.4,4.7L45.5,58L98.1,27.7z M45.5,45.8l43.5-25
	c-1.8-1.1-3.7-2-5.7-2.8L45.5,39.7L28.6,30c-1.2,1.3-2.3,2.7-3.4,4.2L45.5,45.8z"/>
</svg>
