<?xml version="1.0" encoding="UTF-8" standalone="no"?>
<svg width="64px" height="64px" viewBox="0 0 64 64" version="1.1" xmlns="http://www.w3.org/2000/svg" xmlns:xlink="http://www.w3.org/1999/xlink">
    <!-- Generator: Sketch 47.1 (45422) - http://www.bohemiancoding.com/sketch -->
    <title>Rectangle</title>
    <desc>Created with Sketch.</desc>
    <defs></defs>
    <g id="Page-1" stroke="none" stroke-width="1" fill="none" fill-rule="evenodd">
        <g id="Mobile" fill="#FFFFFF">
            <rect id="Rectangle" fill-opacity="0.3" x="0" y="4" width="1" height="1"></rect>
            <rect id="Rectangle" fill-opacity="0.3" x="0" y="8" width="1" height="1"></rect>
            <rect id="Rectangle" fill-opacity="0.3" x="0" y="12" width="1" height="1"></rect>
            <rect id="Rectangle" fill-opacity="0.3" x="0" y="16" width="1" height="1"></rect>
            <rect id="Rectangle" fill-opacity="0.3" x="0" y="20" width="1" height="1"></rect>
            <rect id="Rectangle" fill-opacity="0.3" x="0" y="24" width="1" height="1"></rect>
            <rect id="Rectangle" fill-opacity="0.3" x="0" y="28" width="1" height="1"></rect>
            <rect id="Rectangle" fill-opacity="0.3" x="0" y="32" width="1" height="1"></rect>
            <rect id="Rectangle" fill-opacity="0.3" x="0" y="36" width="1" height="1"></rect>
            <rect id="Rectangle" fill-opacity="0.3" x="0" y="40" width="1" height="1"></rect>
            <rect id="Rectangle" fill-opacity="0.3" x="0" y="44" width="1" height="1"></rect>
            <rect id="Rectangle" fill-opacity="0.3" x="0" y="48" width="1" height="1"></rect>
            <rect id="Rectangle" fill-opacity="0.3" x="0" y="52" width="1" height="1"></rect>
            <rect id="Rectangle" fill-opacity="0.3" x="0" y="56" width="1" height="1"></rect>
            <rect id="Rectangle" fill-opacity="0.3" x="0" y="60" width="1" height="1"></rect>
            <rect id="Rectangle" x="0" y="0" width="1" height="1"></rect>
            <rect id="Rectangle" fill-opacity="0.3" x="4" y="4" width="1" height="1"></rect>
            <rect id="Rectangle" fill-opacity="0.3" x="4" y="8" width="1" height="1"></rect>
            <rect id="Rectangle" fill-opacity="0.3" x="4" y="12" width="1" height="1"></rect>
            <rect id="Rectangle" fill-opacity="0.3" x="4" y="16" width="1" height="1"></rect>
            <rect id="Rectangle" fill-opacity="0.3" x="4" y="20" width="1" height="1"></rect>
            <rect id="Rectangle" fill-opacity="0.3" x="4" y="24" width="1" height="1"></rect>
            <rect id="Rectangle" fill-opacity="0.3" x="4" y="28" width="1" height="1"></rect>
            <rect id="Rectangle" fill-opacity="0.3" x="4" y="32" width="1" height="1"></rect>
            <rect id="Rectangle" fill-opacity="0.3" x="4" y="36" width="1" height="1"></rect>
            <rect id="Rectangle" fill-opacity="0.3" x="4" y="40" width="1" height="1"></rect>
            <rect id="Rectangle" fill-opacity="0.3" x="4" y="44" width="1" height="1"></rect>
            <rect id="Rectangle" fill-opacity="0.3" x="4" y="48" width="1" height="1"></rect>
            <rect id="Rectangle" fill-opacity="0.3" x="4" y="52" width="1" height="1"></rect>
            <rect id="Rectangle" fill-opacity="0.3" x="4" y="56" width="1" height="1"></rect>
            <rect id="Rectangle" fill-opacity="0.3" x="4" y="60" width="1" height="1"></rect>
            <rect id="Rectangle" fill-opacity="0.3" x="4" y="0" width="1" height="1"></rect>
            <rect id="Rectangle" fill-opacity="0.3" x="8" y="4" width="1" height="1"></rect>
            <rect id="Rectangle" fill-opacity="0.3" x="8" y="8" width="1" height="1"></rect>
            <rect id="Rectangle" fill-opacity="0.3" x="8" y="12" width="1" height="1"></rect>
            <rect id="Rectangle" fill-opacity="0.3" x="8" y="16" width="1" height="1"></rect>
            <rect id="Rectangle" fill-opacity="0.3" x="8" y="20" width="1" height="1"></rect>
            <rect id="Rectangle" fill-opacity="0.3" x="8" y="24" width="1" height="1"></rect>
            <rect id="Rectangle" fill-opacity="0.3" x="8" y="28" width="1" height="1"></rect>
            <rect id="Rectangle" fill-opacity="0.3" x="8" y="32" width="1" height="1"></rect>
            <rect id="Rectangle" fill-opacity="0.3" x="8" y="36" width="1" height="1"></rect>
            <rect id="Rectangle" fill-opacity="0.3" x="8" y="40" width="1" height="1"></rect>
            <rect id="Rectangle" fill-opacity="0.3" x="8" y="44" width="1" height="1"></rect>
            <rect id="Rectangle" fill-opacity="0.3" x="8" y="48" width="1" height="1"></rect>
            <rect id="Rectangle" fill-opacity="0.3" x="8" y="52" width="1" height="1"></rect>
            <rect id="Rectangle" fill-opacity="0.3" x="8" y="56" width="1" height="1"></rect>
            <rect id="Rectangle" fill-opacity="0.3" x="8" y="60" width="1" height="1"></rect>
            <rect id="Rectangle" fill-opacity="0.3" x="8" y="0" width="1" height="1"></rect>
            <rect id="Rectangle" fill-opacity="0.3" x="12" y="4" width="1" height="1"></rect>
            <rect id="Rectangle" fill-opacity="0.3" x="12" y="8" width="1" height="1"></rect>
            <rect id="Rectangle" fill-opacity="0.3" x="12" y="12" width="1" height="1"></rect>
            <rect id="Rectangle" fill-opacity="0.3" x="12" y="16" width="1" height="1"></rect>
            <rect id="Rectangle" fill-opacity="0.3" x="12" y="20" width="1" height="1"></rect>
            <rect id="Rectangle" fill-opacity="0.3" x="12" y="24" width="1" height="1"></rect>
            <rect id="Rectangle" fill-opacity="0.3" x="12" y="28" width="1" height="1"></rect>
            <rect id="Rectangle" fill-opacity="0.3" x="12" y="32" width="1" height="1"></rect>
            <rect id="Rectangle" fill-opacity="0.3" x="12" y="36" width="1" height="1"></rect>
            <rect id="Rectangle" fill-opacity="0.3" x="12" y="40" width="1" height="1"></rect>
            <rect id="Rectangle" fill-opacity="0.3" x="12" y="44" width="1" height="1"></rect>
            <rect id="Rectangle" fill-opacity="0.3" x="12" y="48" width="1" height="1"></rect>
            <rect id="Rectangle" fill-opacity="0.3" x="12" y="52" width="1" height="1"></rect>
            <rect id="Rectangle" fill-opacity="0.3" x="12" y="56" width="1" height="1"></rect>
            <rect id="Rectangle" fill-opacity="0.3" x="12" y="60" width="1" height="1"></rect>
            <rect id="Rectangle" fill-opacity="0.3" x="12" y="0" width="1" height="1"></rect>
            <rect id="Rectangle" fill-opacity="0.3" x="16" y="4" width="1" height="1"></rect>
            <rect id="Rectangle" fill-opacity="0.3" x="16" y="8" width="1" height="1"></rect>
            <rect id="Rectangle" fill-opacity="0.3" x="16" y="12" width="1" height="1"></rect>
            <rect id="Rectangle" fill-opacity="0.3" x="16" y="16" width="1" height="1"></rect>
            <rect id="Rectangle" fill-opacity="0.3" x="16" y="20" width="1" height="1"></rect>
            <rect id="Rectangle" fill-opacity="0.3" x="16" y="24" width="1" height="1"></rect>
            <rect id="Rectangle" fill-opacity="0.3" x="16" y="28" width="1" height="1"></rect>
            <rect id="Rectangle" fill-opacity="0.3" x="16" y="32" width="1" height="1"></rect>
            <rect id="Rectangle" fill-opacity="0.3" x="16" y="36" width="1" height="1"></rect>
            <rect id="Rectangle" fill-opacity="0.3" x="16" y="40" width="1" height="1"></rect>
            <rect id="Rectangle" fill-opacity="0.3" x="16" y="44" width="1" height="1"></rect>
            <rect id="Rectangle" fill-opacity="0.3" x="16" y="48" width="1" height="1"></rect>
            <rect id="Rectangle" fill-opacity="0.3" x="16" y="52" width="1" height="1"></rect>
            <rect id="Rectangle" fill-opacity="0.3" x="16" y="56" width="1" height="1"></rect>
            <rect id="Rectangle" fill-opacity="0.3" x="16" y="60" width="1" height="1"></rect>
            <rect id="Rectangle" fill-opacity="0.3" x="16" y="0" width="1" height="1"></rect>
            <rect id="Rectangle" fill-opacity="0.3" x="20" y="4" width="1" height="1"></rect>
            <rect id="Rectangle" fill-opacity="0.3" x="20" y="8" width="1" height="1"></rect>
            <rect id="Rectangle" fill-opacity="0.3" x="20" y="12" width="1" height="1"></rect>
            <rect id="Rectangle" fill-opacity="0.3" x="20" y="16" width="1" height="1"></rect>
            <rect id="Rectangle" fill-opacity="0.3" x="20" y="20" width="1" height="1"></rect>
            <rect id="Rectangle" fill-opacity="0.3" x="20" y="24" width="1" height="1"></rect>
            <rect id="Rectangle" fill-opacity="0.3" x="20" y="28" width="1" height="1"></rect>
            <rect id="Rectangle" fill-opacity="0.3" x="20" y="32" width="1" height="1"></rect>
            <rect id="Rectangle" fill-opacity="0.3" x="20" y="36" width="1" height="1"></rect>
            <rect id="Rectangle" fill-opacity="0.3" x="20" y="40" width="1" height="1"></rect>
            <rect id="Rectangle" fill-opacity="0.3" x="20" y="44" width="1" height="1"></rect>
            <rect id="Rectangle" fill-opacity="0.3" x="20" y="48" width="1" height="1"></rect>
            <rect id="Rectangle" fill-opacity="0.3" x="20" y="52" width="1" height="1"></rect>
            <rect id="Rectangle" fill-opacity="0.3" x="20" y="56" width="1" height="1"></rect>
            <rect id="Rectangle" fill-opacity="0.3" x="20" y="60" width="1" height="1"></rect>
            <rect id="Rectangle" fill-opacity="0.3" x="20" y="0" width="1" height="1"></rect>
            <rect id="Rectangle" fill-opacity="0.3" x="24" y="4" width="1" height="1"></rect>
            <rect id="Rectangle" fill-opacity="0.3" x="24" y="8" width="1" height="1"></rect>
            <rect id="Rectangle" fill-opacity="0.3" x="24" y="12" width="1" height="1"></rect>
            <rect id="Rectangle" fill-opacity="0.3" x="24" y="16" width="1" height="1"></rect>
            <rect id="Rectangle" fill-opacity="0.3" x="24" y="20" width="1" height="1"></rect>
            <rect id="Rectangle" fill-opacity="0.3" x="24" y="24" width="1" height="1"></rect>
            <rect id="Rectangle" fill-opacity="0.3" x="24" y="28" width="1" height="1"></rect>
            <rect id="Rectangle" fill-opacity="0.3" x="24" y="32" width="1" height="1"></rect>
            <rect id="Rectangle" fill-opacity="0.3" x="24" y="36" width="1" height="1"></rect>
            <rect id="Rectangle" fill-opacity="0.3" x="24" y="40" width="1" height="1"></rect>
            <rect id="Rectangle" fill-opacity="0.3" x="24" y="44" width="1" height="1"></rect>
            <rect id="Rectangle" fill-opacity="0.3" x="24" y="48" width="1" height="1"></rect>
            <rect id="Rectangle" fill-opacity="0.3" x="24" y="52" width="1" height="1"></rect>
            <rect id="Rectangle" fill-opacity="0.3" x="24" y="56" width="1" height="1"></rect>
            <rect id="Rectangle" fill-opacity="0.3" x="24" y="60" width="1" height="1"></rect>
            <rect id="Rectangle" fill-opacity="0.3" x="24" y="0" width="1" height="1"></rect>
            <rect id="Rectangle" fill-opacity="0.3" x="28" y="4" width="1" height="1"></rect>
            <rect id="Rectangle" fill-opacity="0.3" x="28" y="8" width="1" height="1"></rect>
            <rect id="Rectangle" fill-opacity="0.3" x="28" y="12" width="1" height="1"></rect>
            <rect id="Rectangle" fill-opacity="0.3" x="28" y="16" width="1" height="1"></rect>
            <rect id="Rectangle" fill-opacity="0.3" x="28" y="20" width="1" height="1"></rect>
            <rect id="Rectangle" fill-opacity="0.3" x="28" y="24" width="1" height="1"></rect>
            <rect id="Rectangle" fill-opacity="0.3" x="28" y="28" width="1" height="1"></rect>
            <rect id="Rectangle" fill-opacity="0.3" x="28" y="32" width="1" height="1"></rect>
            <rect id="Rectangle" fill-opacity="0.3" x="28" y="36" width="1" height="1"></rect>
            <rect id="Rectangle" fill-opacity="0.3" x="28" y="40" width="1" height="1"></rect>
            <rect id="Rectangle" fill-opacity="0.3" x="28" y="44" width="1" height="1"></rect>
            <rect id="Rectangle" fill-opacity="0.3" x="28" y="48" width="1" height="1"></rect>
            <rect id="Rectangle" fill-opacity="0.3" x="28" y="52" width="1" height="1"></rect>
            <rect id="Rectangle" fill-opacity="0.3" x="28" y="56" width="1" height="1"></rect>
            <rect id="Rectangle" fill-opacity="0.3" x="28" y="60" width="1" height="1"></rect>
            <rect id="Rectangle" fill-opacity="0.3" x="28" y="0" width="1" height="1"></rect>
            <rect id="Rectangle" fill-opacity="0.3" x="32" y="4" width="1" height="1"></rect>
            <rect id="Rectangle" fill-opacity="0.3" x="32" y="8" width="1" height="1"></rect>
            <rect id="Rectangle" fill-opacity="0.3" x="32" y="12" width="1" height="1"></rect>
            <rect id="Rectangle" fill-opacity="0.3" x="32" y="16" width="1" height="1"></rect>
            <rect id="Rectangle" fill-opacity="0.3" x="32" y="20" width="1" height="1"></rect>
            <rect id="Rectangle" fill-opacity="0.3" x="32" y="24" width="1" height="1"></rect>
            <rect id="Rectangle" fill-opacity="0.3" x="32" y="28" width="1" height="1"></rect>
            <rect id="Rectangle" fill-opacity="0.3" x="32" y="32" width="1" height="1"></rect>
            <rect id="Rectangle" fill-opacity="0.3" x="32" y="36" width="1" height="1"></rect>
            <rect id="Rectangle" fill-opacity="0.3" x="32" y="40" width="1" height="1"></rect>
            <rect id="Rectangle" fill-opacity="0.3" x="32" y="44" width="1" height="1"></rect>
            <rect id="Rectangle" fill-opacity="0.3" x="32" y="48" width="1" height="1"></rect>
            <rect id="Rectangle" fill-opacity="0.3" x="32" y="52" width="1" height="1"></rect>
            <rect id="Rectangle" fill-opacity="0.3" x="32" y="56" width="1" height="1"></rect>
            <rect id="Rectangle" fill-opacity="0.3" x="32" y="60" width="1" height="1"></rect>
            <rect id="Rectangle" fill-opacity="0.3" x="32" y="0" width="1" height="1"></rect>
            <rect id="Rectangle" fill-opacity="0.3" x="36" y="4" width="1" height="1"></rect>
            <rect id="Rectangle" fill-opacity="0.3" x="36" y="8" width="1" height="1"></rect>
            <rect id="Rectangle" fill-opacity="0.3" x="36" y="12" width="1" height="1"></rect>
            <rect id="Rectangle" fill-opacity="0.3" x="36" y="16" width="1" height="1"></rect>
            <rect id="Rectangle" fill-opacity="0.3" x="36" y="20" width="1" height="1"></rect>
            <rect id="Rectangle" fill-opacity="0.3" x="36" y="24" width="1" height="1"></rect>
            <rect id="Rectangle" fill-opacity="0.3" x="36" y="28" width="1" height="1"></rect>
            <rect id="Rectangle" fill-opacity="0.3" x="36" y="32" width="1" height="1"></rect>
            <rect id="Rectangle" fill-opacity="0.3" x="36" y="36" width="1" height="1"></rect>
            <rect id="Rectangle" fill-opacity="0.3" x="36" y="40" width="1" height="1"></rect>
            <rect id="Rectangle" fill-opacity="0.3" x="36" y="44" width="1" height="1"></rect>
            <rect id="Rectangle" fill-opacity="0.3" x="36" y="48" width="1" height="1"></rect>
            <rect id="Rectangle" fill-opacity="0.3" x="36" y="52" width="1" height="1"></rect>
            <rect id="Rectangle" fill-opacity="0.3" x="36" y="56" width="1" height="1"></rect>
            <rect id="Rectangle" fill-opacity="0.3" x="36" y="60" width="1" height="1"></rect>
            <rect id="Rectangle" fill-opacity="0.3" x="36" y="0" width="1" height="1"></rect>
            <rect id="Rectangle" fill-opacity="0.3" x="40" y="4" width="1" height="1"></rect>
            <rect id="Rectangle" fill-opacity="0.3" x="40" y="8" width="1" height="1"></rect>
            <rect id="Rectangle" fill-opacity="0.3" x="40" y="12" width="1" height="1"></rect>
            <rect id="Rectangle" fill-opacity="0.3" x="40" y="16" width="1" height="1"></rect>
            <rect id="Rectangle" fill-opacity="0.3" x="40" y="20" width="1" height="1"></rect>
            <rect id="Rectangle" fill-opacity="0.3" x="40" y="24" width="1" height="1"></rect>
            <rect id="Rectangle" fill-opacity="0.3" x="40" y="28" width="1" height="1"></rect>
            <rect id="Rectangle" fill-opacity="0.3" x="40" y="32" width="1" height="1"></rect>
            <rect id="Rectangle" fill-opacity="0.3" x="40" y="36" width="1" height="1"></rect>
            <rect id="Rectangle" fill-opacity="0.3" x="40" y="40" width="1" height="1"></rect>
            <rect id="Rectangle" fill-opacity="0.3" x="40" y="44" width="1" height="1"></rect>
            <rect id="Rectangle" fill-opacity="0.3" x="40" y="48" width="1" height="1"></rect>
            <rect id="Rectangle" fill-opacity="0.3" x="40" y="52" width="1" height="1"></rect>
            <rect id="Rectangle" fill-opacity="0.3" x="40" y="56" width="1" height="1"></rect>
            <rect id="Rectangle" fill-opacity="0.3" x="40" y="60" width="1" height="1"></rect>
            <rect id="Rectangle" fill-opacity="0.3" x="40" y="0" width="1" height="1"></rect>
            <rect id="Rectangle" fill-opacity="0.3" x="44" y="4" width="1" height="1"></rect>
            <rect id="Rectangle" fill-opacity="0.3" x="44" y="8" width="1" height="1"></rect>
            <rect id="Rectangle" fill-opacity="0.3" x="44" y="12" width="1" height="1"></rect>
            <rect id="Rectangle" fill-opacity="0.3" x="44" y="16" width="1" height="1"></rect>
            <rect id="Rectangle" fill-opacity="0.3" x="44" y="20" width="1" height="1"></rect>
            <rect id="Rectangle" fill-opacity="0.3" x="44" y="24" width="1" height="1"></rect>
            <rect id="Rectangle" fill-opacity="0.3" x="44" y="28" width="1" height="1"></rect>
            <rect id="Rectangle" fill-opacity="0.3" x="44" y="32" width="1" height="1"></rect>
            <rect id="Rectangle" fill-opacity="0.3" x="44" y="36" width="1" height="1"></rect>
            <rect id="Rectangle" fill-opacity="0.3" x="44" y="40" width="1" height="1"></rect>
            <rect id="Rectangle" fill-opacity="0.3" x="44" y="44" width="1" height="1"></rect>
            <rect id="Rectangle" fill-opacity="0.3" x="44" y="48" width="1" height="1"></rect>
            <rect id="Rectangle" fill-opacity="0.3" x="44" y="52" width="1" height="1"></rect>
            <rect id="Rectangle" fill-opacity="0.3" x="44" y="56" width="1" height="1"></rect>
            <rect id="Rectangle" fill-opacity="0.3" x="44" y="60" width="1" height="1"></rect>
            <rect id="Rectangle" fill-opacity="0.3" x="44" y="0" width="1" height="1"></rect>
            <rect id="Rectangle" fill-opacity="0.3" x="48" y="4" width="1" height="1"></rect>
            <rect id="Rectangle" fill-opacity="0.3" x="48" y="8" width="1" height="1"></rect>
            <rect id="Rectangle" fill-opacity="0.3" x="48" y="12" width="1" height="1"></rect>
            <rect id="Rectangle" fill-opacity="0.3" x="48" y="16" width="1" height="1"></rect>
            <rect id="Rectangle" fill-opacity="0.3" x="48" y="20" width="1" height="1"></rect>
            <rect id="Rectangle" fill-opacity="0.3" x="48" y="24" width="1" height="1"></rect>
            <rect id="Rectangle" fill-opacity="0.3" x="48" y="28" width="1" height="1"></rect>
            <rect id="Rectangle" fill-opacity="0.3" x="48" y="32" width="1" height="1"></rect>
            <rect id="Rectangle" fill-opacity="0.3" x="48" y="36" width="1" height="1"></rect>
            <rect id="Rectangle" fill-opacity="0.3" x="48" y="40" width="1" height="1"></rect>
            <rect id="Rectangle" fill-opacity="0.3" x="48" y="44" width="1" height="1"></rect>
            <rect id="Rectangle" fill-opacity="0.3" x="48" y="48" width="1" height="1"></rect>
            <rect id="Rectangle" fill-opacity="0.3" x="48" y="52" width="1" height="1"></rect>
            <rect id="Rectangle" fill-opacity="0.3" x="48" y="56" width="1" height="1"></rect>
            <rect id="Rectangle" fill-opacity="0.3" x="48" y="60" width="1" height="1"></rect>
            <rect id="Rectangle" fill-opacity="0.3" x="48" y="0" width="1" height="1"></rect>
            <rect id="Rectangle" fill-opacity="0.3" x="52" y="4" width="1" height="1"></rect>
            <rect id="Rectangle" fill-opacity="0.3" x="52" y="8" width="1" height="1"></rect>
            <rect id="Rectangle" fill-opacity="0.3" x="52" y="12" width="1" height="1"></rect>
            <rect id="Rectangle" fill-opacity="0.3" x="52" y="16" width="1" height="1"></rect>
            <rect id="Rectangle" fill-opacity="0.3" x="52" y="20" width="1" height="1"></rect>
            <rect id="Rectangle" fill-opacity="0.3" x="52" y="24" width="1" height="1"></rect>
            <rect id="Rectangle" fill-opacity="0.3" x="52" y="28" width="1" height="1"></rect>
            <rect id="Rectangle" fill-opacity="0.3" x="52" y="32" width="1" height="1"></rect>
            <rect id="Rectangle" fill-opacity="0.3" x="52" y="36" width="1" height="1"></rect>
            <rect id="Rectangle" fill-opacity="0.3" x="52" y="40" width="1" height="1"></rect>
            <rect id="Rectangle" fill-opacity="0.3" x="52" y="44" width="1" height="1"></rect>
            <rect id="Rectangle" fill-opacity="0.3" x="52" y="48" width="1" height="1"></rect>
            <rect id="Rectangle" fill-opacity="0.3" x="52" y="52" width="1" height="1"></rect>
            <rect id="Rectangle" fill-opacity="0.3" x="52" y="56" width="1" height="1"></rect>
            <rect id="Rectangle" fill-opacity="0.3" x="52" y="60" width="1" height="1"></rect>
            <rect id="Rectangle" fill-opacity="0.3" x="52" y="0" width="1" height="1"></rect>
            <rect id="Rectangle" fill-opacity="0.3" x="56" y="4" width="1" height="1"></rect>
            <rect id="Rectangle" fill-opacity="0.3" x="56" y="8" width="1" height="1"></rect>
            <rect id="Rectangle" fill-opacity="0.3" x="56" y="12" width="1" height="1"></rect>
            <rect id="Rectangle" fill-opacity="0.3" x="56" y="16" width="1" height="1"></rect>
            <rect id="Rectangle" fill-opacity="0.3" x="56" y="20" width="1" height="1"></rect>
            <rect id="Rectangle" fill-opacity="0.3" x="56" y="24" width="1" height="1"></rect>
            <rect id="Rectangle" fill-opacity="0.3" x="56" y="28" width="1" height="1"></rect>
            <rect id="Rectangle" fill-opacity="0.3" x="56" y="32" width="1" height="1"></rect>
            <rect id="Rectangle" fill-opacity="0.3" x="56" y="36" width="1" height="1"></rect>
            <rect id="Rectangle" fill-opacity="0.3" x="56" y="40" width="1" height="1"></rect>
            <rect id="Rectangle" fill-opacity="0.3" x="56" y="44" width="1" height="1"></rect>
            <rect id="Rectangle" fill-opacity="0.3" x="56" y="48" width="1" height="1"></rect>
            <rect id="Rectangle" fill-opacity="0.3" x="56" y="52" width="1" height="1"></rect>
            <rect id="Rectangle" fill-opacity="0.3" x="56" y="56" width="1" height="1"></rect>
            <rect id="Rectangle" fill-opacity="0.3" x="56" y="60" width="1" height="1"></rect>
            <rect id="Rectangle" fill-opacity="0.3" x="56" y="0" width="1" height="1"></rect>
            <rect id="Rectangle" fill-opacity="0.3" x="60" y="4" width="1" height="1"></rect>
            <rect id="Rectangle" fill-opacity="0.3" x="60" y="8" width="1" height="1"></rect>
            <rect id="Rectangle" fill-opacity="0.3" x="60" y="12" width="1" height="1"></rect>
            <rect id="Rectangle" fill-opacity="0.3" x="60" y="16" width="1" height="1"></rect>
            <rect id="Rectangle" fill-opacity="0.3" x="60" y="20" width="1" height="1"></rect>
            <rect id="Rectangle" fill-opacity="0.3" x="60" y="24" width="1" height="1"></rect>
            <rect id="Rectangle" fill-opacity="0.3" x="60" y="28" width="1" height="1"></rect>
            <rect id="Rectangle" fill-opacity="0.3" x="60" y="32" width="1" height="1"></rect>
            <rect id="Rectangle" fill-opacity="0.3" x="60" y="36" width="1" height="1"></rect>
            <rect id="Rectangle" fill-opacity="0.3" x="60" y="40" width="1" height="1"></rect>
            <rect id="Rectangle" fill-opacity="0.3" x="60" y="44" width="1" height="1"></rect>
            <rect id="Rectangle" fill-opacity="0.3" x="60" y="48" width="1" height="1"></rect>
            <rect id="Rectangle" fill-opacity="0.3" x="60" y="52" width="1" height="1"></rect>
            <rect id="Rectangle" fill-opacity="0.3" x="60" y="56" width="1" height="1"></rect>
            <rect id="Rectangle" fill-opacity="0.3" x="60" y="60" width="1" height="1"></rect>
            <rect id="Rectangle" fill-opacity="0.3" x="60" y="0" width="1" height="1"></rect>
        </g>
    </g>
</svg>